G75*
%MOIN*%
%OFA0B0*%
%FSLAX25Y25*%
%IPPOS*%
%LPD*%
%AMOC8*
5,1,8,0,0,1.08239X$1,22.5*
%
%ADD10C,0.00000*%
%ADD11C,0.00600*%
%ADD12C,0.00500*%
%ADD13R,0.03000X0.42000*%
%ADD14R,0.02000X0.07500*%
%ADD15R,0.02000X0.03000*%
%ADD16C,0.01000*%
%ADD17C,0.00787*%
%ADD18C,0.00400*%
D10*
X0006591Y0029297D02*
X0006591Y0178903D01*
X0101079Y0178903D01*
X0101079Y0029297D01*
X0006591Y0029297D01*
X0009347Y0037171D02*
X0009349Y0037314D01*
X0009355Y0037457D01*
X0009365Y0037599D01*
X0009379Y0037741D01*
X0009397Y0037883D01*
X0009419Y0038025D01*
X0009444Y0038165D01*
X0009474Y0038305D01*
X0009508Y0038444D01*
X0009545Y0038582D01*
X0009587Y0038719D01*
X0009632Y0038854D01*
X0009681Y0038988D01*
X0009733Y0039121D01*
X0009789Y0039253D01*
X0009849Y0039382D01*
X0009913Y0039510D01*
X0009980Y0039637D01*
X0010051Y0039761D01*
X0010125Y0039883D01*
X0010202Y0040003D01*
X0010283Y0040121D01*
X0010367Y0040237D01*
X0010454Y0040350D01*
X0010544Y0040461D01*
X0010638Y0040569D01*
X0010734Y0040675D01*
X0010833Y0040777D01*
X0010936Y0040877D01*
X0011040Y0040974D01*
X0011148Y0041069D01*
X0011258Y0041160D01*
X0011371Y0041248D01*
X0011486Y0041332D01*
X0011603Y0041414D01*
X0011723Y0041492D01*
X0011844Y0041567D01*
X0011968Y0041639D01*
X0012094Y0041707D01*
X0012221Y0041771D01*
X0012351Y0041832D01*
X0012482Y0041889D01*
X0012614Y0041943D01*
X0012748Y0041992D01*
X0012883Y0042039D01*
X0013020Y0042081D01*
X0013158Y0042119D01*
X0013296Y0042154D01*
X0013436Y0042184D01*
X0013576Y0042211D01*
X0013717Y0042234D01*
X0013859Y0042253D01*
X0014001Y0042268D01*
X0014144Y0042279D01*
X0014286Y0042286D01*
X0014429Y0042289D01*
X0014572Y0042288D01*
X0014715Y0042283D01*
X0014858Y0042274D01*
X0015000Y0042261D01*
X0015142Y0042244D01*
X0015283Y0042223D01*
X0015424Y0042198D01*
X0015564Y0042170D01*
X0015703Y0042137D01*
X0015841Y0042100D01*
X0015978Y0042060D01*
X0016114Y0042016D01*
X0016249Y0041968D01*
X0016382Y0041916D01*
X0016514Y0041861D01*
X0016644Y0041802D01*
X0016773Y0041739D01*
X0016899Y0041673D01*
X0017024Y0041603D01*
X0017147Y0041530D01*
X0017267Y0041454D01*
X0017386Y0041374D01*
X0017502Y0041290D01*
X0017616Y0041204D01*
X0017727Y0041114D01*
X0017836Y0041022D01*
X0017942Y0040926D01*
X0018046Y0040828D01*
X0018147Y0040726D01*
X0018244Y0040622D01*
X0018339Y0040515D01*
X0018431Y0040406D01*
X0018520Y0040294D01*
X0018606Y0040179D01*
X0018688Y0040063D01*
X0018767Y0039943D01*
X0018843Y0039822D01*
X0018915Y0039699D01*
X0018984Y0039574D01*
X0019049Y0039447D01*
X0019111Y0039318D01*
X0019169Y0039187D01*
X0019224Y0039055D01*
X0019274Y0038921D01*
X0019321Y0038786D01*
X0019365Y0038650D01*
X0019404Y0038513D01*
X0019439Y0038374D01*
X0019471Y0038235D01*
X0019499Y0038095D01*
X0019523Y0037954D01*
X0019543Y0037812D01*
X0019559Y0037670D01*
X0019571Y0037528D01*
X0019579Y0037385D01*
X0019583Y0037242D01*
X0019583Y0037100D01*
X0019579Y0036957D01*
X0019571Y0036814D01*
X0019559Y0036672D01*
X0019543Y0036530D01*
X0019523Y0036388D01*
X0019499Y0036247D01*
X0019471Y0036107D01*
X0019439Y0035968D01*
X0019404Y0035829D01*
X0019365Y0035692D01*
X0019321Y0035556D01*
X0019274Y0035421D01*
X0019224Y0035287D01*
X0019169Y0035155D01*
X0019111Y0035024D01*
X0019049Y0034895D01*
X0018984Y0034768D01*
X0018915Y0034643D01*
X0018843Y0034520D01*
X0018767Y0034399D01*
X0018688Y0034279D01*
X0018606Y0034163D01*
X0018520Y0034048D01*
X0018431Y0033936D01*
X0018339Y0033827D01*
X0018244Y0033720D01*
X0018147Y0033616D01*
X0018046Y0033514D01*
X0017942Y0033416D01*
X0017836Y0033320D01*
X0017727Y0033228D01*
X0017616Y0033138D01*
X0017502Y0033052D01*
X0017386Y0032968D01*
X0017267Y0032888D01*
X0017147Y0032812D01*
X0017024Y0032739D01*
X0016899Y0032669D01*
X0016773Y0032603D01*
X0016644Y0032540D01*
X0016514Y0032481D01*
X0016382Y0032426D01*
X0016249Y0032374D01*
X0016114Y0032326D01*
X0015978Y0032282D01*
X0015841Y0032242D01*
X0015703Y0032205D01*
X0015564Y0032172D01*
X0015424Y0032144D01*
X0015283Y0032119D01*
X0015142Y0032098D01*
X0015000Y0032081D01*
X0014858Y0032068D01*
X0014715Y0032059D01*
X0014572Y0032054D01*
X0014429Y0032053D01*
X0014286Y0032056D01*
X0014144Y0032063D01*
X0014001Y0032074D01*
X0013859Y0032089D01*
X0013717Y0032108D01*
X0013576Y0032131D01*
X0013436Y0032158D01*
X0013296Y0032188D01*
X0013158Y0032223D01*
X0013020Y0032261D01*
X0012883Y0032303D01*
X0012748Y0032350D01*
X0012614Y0032399D01*
X0012482Y0032453D01*
X0012351Y0032510D01*
X0012221Y0032571D01*
X0012094Y0032635D01*
X0011968Y0032703D01*
X0011844Y0032775D01*
X0011723Y0032850D01*
X0011603Y0032928D01*
X0011486Y0033010D01*
X0011371Y0033094D01*
X0011258Y0033182D01*
X0011148Y0033273D01*
X0011040Y0033368D01*
X0010936Y0033465D01*
X0010833Y0033565D01*
X0010734Y0033667D01*
X0010638Y0033773D01*
X0010544Y0033881D01*
X0010454Y0033992D01*
X0010367Y0034105D01*
X0010283Y0034221D01*
X0010202Y0034339D01*
X0010125Y0034459D01*
X0010051Y0034581D01*
X0009980Y0034705D01*
X0009913Y0034832D01*
X0009849Y0034960D01*
X0009789Y0035089D01*
X0009733Y0035221D01*
X0009681Y0035354D01*
X0009632Y0035488D01*
X0009587Y0035623D01*
X0009545Y0035760D01*
X0009508Y0035898D01*
X0009474Y0036037D01*
X0009444Y0036177D01*
X0009419Y0036317D01*
X0009397Y0036459D01*
X0009379Y0036601D01*
X0009365Y0036743D01*
X0009355Y0036885D01*
X0009349Y0037028D01*
X0009347Y0037171D01*
X0009347Y0171029D02*
X0009349Y0171172D01*
X0009355Y0171315D01*
X0009365Y0171457D01*
X0009379Y0171599D01*
X0009397Y0171741D01*
X0009419Y0171883D01*
X0009444Y0172023D01*
X0009474Y0172163D01*
X0009508Y0172302D01*
X0009545Y0172440D01*
X0009587Y0172577D01*
X0009632Y0172712D01*
X0009681Y0172846D01*
X0009733Y0172979D01*
X0009789Y0173111D01*
X0009849Y0173240D01*
X0009913Y0173368D01*
X0009980Y0173495D01*
X0010051Y0173619D01*
X0010125Y0173741D01*
X0010202Y0173861D01*
X0010283Y0173979D01*
X0010367Y0174095D01*
X0010454Y0174208D01*
X0010544Y0174319D01*
X0010638Y0174427D01*
X0010734Y0174533D01*
X0010833Y0174635D01*
X0010936Y0174735D01*
X0011040Y0174832D01*
X0011148Y0174927D01*
X0011258Y0175018D01*
X0011371Y0175106D01*
X0011486Y0175190D01*
X0011603Y0175272D01*
X0011723Y0175350D01*
X0011844Y0175425D01*
X0011968Y0175497D01*
X0012094Y0175565D01*
X0012221Y0175629D01*
X0012351Y0175690D01*
X0012482Y0175747D01*
X0012614Y0175801D01*
X0012748Y0175850D01*
X0012883Y0175897D01*
X0013020Y0175939D01*
X0013158Y0175977D01*
X0013296Y0176012D01*
X0013436Y0176042D01*
X0013576Y0176069D01*
X0013717Y0176092D01*
X0013859Y0176111D01*
X0014001Y0176126D01*
X0014144Y0176137D01*
X0014286Y0176144D01*
X0014429Y0176147D01*
X0014572Y0176146D01*
X0014715Y0176141D01*
X0014858Y0176132D01*
X0015000Y0176119D01*
X0015142Y0176102D01*
X0015283Y0176081D01*
X0015424Y0176056D01*
X0015564Y0176028D01*
X0015703Y0175995D01*
X0015841Y0175958D01*
X0015978Y0175918D01*
X0016114Y0175874D01*
X0016249Y0175826D01*
X0016382Y0175774D01*
X0016514Y0175719D01*
X0016644Y0175660D01*
X0016773Y0175597D01*
X0016899Y0175531D01*
X0017024Y0175461D01*
X0017147Y0175388D01*
X0017267Y0175312D01*
X0017386Y0175232D01*
X0017502Y0175148D01*
X0017616Y0175062D01*
X0017727Y0174972D01*
X0017836Y0174880D01*
X0017942Y0174784D01*
X0018046Y0174686D01*
X0018147Y0174584D01*
X0018244Y0174480D01*
X0018339Y0174373D01*
X0018431Y0174264D01*
X0018520Y0174152D01*
X0018606Y0174037D01*
X0018688Y0173921D01*
X0018767Y0173801D01*
X0018843Y0173680D01*
X0018915Y0173557D01*
X0018984Y0173432D01*
X0019049Y0173305D01*
X0019111Y0173176D01*
X0019169Y0173045D01*
X0019224Y0172913D01*
X0019274Y0172779D01*
X0019321Y0172644D01*
X0019365Y0172508D01*
X0019404Y0172371D01*
X0019439Y0172232D01*
X0019471Y0172093D01*
X0019499Y0171953D01*
X0019523Y0171812D01*
X0019543Y0171670D01*
X0019559Y0171528D01*
X0019571Y0171386D01*
X0019579Y0171243D01*
X0019583Y0171100D01*
X0019583Y0170958D01*
X0019579Y0170815D01*
X0019571Y0170672D01*
X0019559Y0170530D01*
X0019543Y0170388D01*
X0019523Y0170246D01*
X0019499Y0170105D01*
X0019471Y0169965D01*
X0019439Y0169826D01*
X0019404Y0169687D01*
X0019365Y0169550D01*
X0019321Y0169414D01*
X0019274Y0169279D01*
X0019224Y0169145D01*
X0019169Y0169013D01*
X0019111Y0168882D01*
X0019049Y0168753D01*
X0018984Y0168626D01*
X0018915Y0168501D01*
X0018843Y0168378D01*
X0018767Y0168257D01*
X0018688Y0168137D01*
X0018606Y0168021D01*
X0018520Y0167906D01*
X0018431Y0167794D01*
X0018339Y0167685D01*
X0018244Y0167578D01*
X0018147Y0167474D01*
X0018046Y0167372D01*
X0017942Y0167274D01*
X0017836Y0167178D01*
X0017727Y0167086D01*
X0017616Y0166996D01*
X0017502Y0166910D01*
X0017386Y0166826D01*
X0017267Y0166746D01*
X0017147Y0166670D01*
X0017024Y0166597D01*
X0016899Y0166527D01*
X0016773Y0166461D01*
X0016644Y0166398D01*
X0016514Y0166339D01*
X0016382Y0166284D01*
X0016249Y0166232D01*
X0016114Y0166184D01*
X0015978Y0166140D01*
X0015841Y0166100D01*
X0015703Y0166063D01*
X0015564Y0166030D01*
X0015424Y0166002D01*
X0015283Y0165977D01*
X0015142Y0165956D01*
X0015000Y0165939D01*
X0014858Y0165926D01*
X0014715Y0165917D01*
X0014572Y0165912D01*
X0014429Y0165911D01*
X0014286Y0165914D01*
X0014144Y0165921D01*
X0014001Y0165932D01*
X0013859Y0165947D01*
X0013717Y0165966D01*
X0013576Y0165989D01*
X0013436Y0166016D01*
X0013296Y0166046D01*
X0013158Y0166081D01*
X0013020Y0166119D01*
X0012883Y0166161D01*
X0012748Y0166208D01*
X0012614Y0166257D01*
X0012482Y0166311D01*
X0012351Y0166368D01*
X0012221Y0166429D01*
X0012094Y0166493D01*
X0011968Y0166561D01*
X0011844Y0166633D01*
X0011723Y0166708D01*
X0011603Y0166786D01*
X0011486Y0166868D01*
X0011371Y0166952D01*
X0011258Y0167040D01*
X0011148Y0167131D01*
X0011040Y0167226D01*
X0010936Y0167323D01*
X0010833Y0167423D01*
X0010734Y0167525D01*
X0010638Y0167631D01*
X0010544Y0167739D01*
X0010454Y0167850D01*
X0010367Y0167963D01*
X0010283Y0168079D01*
X0010202Y0168197D01*
X0010125Y0168317D01*
X0010051Y0168439D01*
X0009980Y0168563D01*
X0009913Y0168690D01*
X0009849Y0168818D01*
X0009789Y0168947D01*
X0009733Y0169079D01*
X0009681Y0169212D01*
X0009632Y0169346D01*
X0009587Y0169481D01*
X0009545Y0169618D01*
X0009508Y0169756D01*
X0009474Y0169895D01*
X0009444Y0170035D01*
X0009419Y0170175D01*
X0009397Y0170317D01*
X0009379Y0170459D01*
X0009365Y0170601D01*
X0009355Y0170743D01*
X0009349Y0170886D01*
X0009347Y0171029D01*
X0088087Y0171029D02*
X0088089Y0171172D01*
X0088095Y0171315D01*
X0088105Y0171457D01*
X0088119Y0171599D01*
X0088137Y0171741D01*
X0088159Y0171883D01*
X0088184Y0172023D01*
X0088214Y0172163D01*
X0088248Y0172302D01*
X0088285Y0172440D01*
X0088327Y0172577D01*
X0088372Y0172712D01*
X0088421Y0172846D01*
X0088473Y0172979D01*
X0088529Y0173111D01*
X0088589Y0173240D01*
X0088653Y0173368D01*
X0088720Y0173495D01*
X0088791Y0173619D01*
X0088865Y0173741D01*
X0088942Y0173861D01*
X0089023Y0173979D01*
X0089107Y0174095D01*
X0089194Y0174208D01*
X0089284Y0174319D01*
X0089378Y0174427D01*
X0089474Y0174533D01*
X0089573Y0174635D01*
X0089676Y0174735D01*
X0089780Y0174832D01*
X0089888Y0174927D01*
X0089998Y0175018D01*
X0090111Y0175106D01*
X0090226Y0175190D01*
X0090343Y0175272D01*
X0090463Y0175350D01*
X0090584Y0175425D01*
X0090708Y0175497D01*
X0090834Y0175565D01*
X0090961Y0175629D01*
X0091091Y0175690D01*
X0091222Y0175747D01*
X0091354Y0175801D01*
X0091488Y0175850D01*
X0091623Y0175897D01*
X0091760Y0175939D01*
X0091898Y0175977D01*
X0092036Y0176012D01*
X0092176Y0176042D01*
X0092316Y0176069D01*
X0092457Y0176092D01*
X0092599Y0176111D01*
X0092741Y0176126D01*
X0092884Y0176137D01*
X0093026Y0176144D01*
X0093169Y0176147D01*
X0093312Y0176146D01*
X0093455Y0176141D01*
X0093598Y0176132D01*
X0093740Y0176119D01*
X0093882Y0176102D01*
X0094023Y0176081D01*
X0094164Y0176056D01*
X0094304Y0176028D01*
X0094443Y0175995D01*
X0094581Y0175958D01*
X0094718Y0175918D01*
X0094854Y0175874D01*
X0094989Y0175826D01*
X0095122Y0175774D01*
X0095254Y0175719D01*
X0095384Y0175660D01*
X0095513Y0175597D01*
X0095639Y0175531D01*
X0095764Y0175461D01*
X0095887Y0175388D01*
X0096007Y0175312D01*
X0096126Y0175232D01*
X0096242Y0175148D01*
X0096356Y0175062D01*
X0096467Y0174972D01*
X0096576Y0174880D01*
X0096682Y0174784D01*
X0096786Y0174686D01*
X0096887Y0174584D01*
X0096984Y0174480D01*
X0097079Y0174373D01*
X0097171Y0174264D01*
X0097260Y0174152D01*
X0097346Y0174037D01*
X0097428Y0173921D01*
X0097507Y0173801D01*
X0097583Y0173680D01*
X0097655Y0173557D01*
X0097724Y0173432D01*
X0097789Y0173305D01*
X0097851Y0173176D01*
X0097909Y0173045D01*
X0097964Y0172913D01*
X0098014Y0172779D01*
X0098061Y0172644D01*
X0098105Y0172508D01*
X0098144Y0172371D01*
X0098179Y0172232D01*
X0098211Y0172093D01*
X0098239Y0171953D01*
X0098263Y0171812D01*
X0098283Y0171670D01*
X0098299Y0171528D01*
X0098311Y0171386D01*
X0098319Y0171243D01*
X0098323Y0171100D01*
X0098323Y0170958D01*
X0098319Y0170815D01*
X0098311Y0170672D01*
X0098299Y0170530D01*
X0098283Y0170388D01*
X0098263Y0170246D01*
X0098239Y0170105D01*
X0098211Y0169965D01*
X0098179Y0169826D01*
X0098144Y0169687D01*
X0098105Y0169550D01*
X0098061Y0169414D01*
X0098014Y0169279D01*
X0097964Y0169145D01*
X0097909Y0169013D01*
X0097851Y0168882D01*
X0097789Y0168753D01*
X0097724Y0168626D01*
X0097655Y0168501D01*
X0097583Y0168378D01*
X0097507Y0168257D01*
X0097428Y0168137D01*
X0097346Y0168021D01*
X0097260Y0167906D01*
X0097171Y0167794D01*
X0097079Y0167685D01*
X0096984Y0167578D01*
X0096887Y0167474D01*
X0096786Y0167372D01*
X0096682Y0167274D01*
X0096576Y0167178D01*
X0096467Y0167086D01*
X0096356Y0166996D01*
X0096242Y0166910D01*
X0096126Y0166826D01*
X0096007Y0166746D01*
X0095887Y0166670D01*
X0095764Y0166597D01*
X0095639Y0166527D01*
X0095513Y0166461D01*
X0095384Y0166398D01*
X0095254Y0166339D01*
X0095122Y0166284D01*
X0094989Y0166232D01*
X0094854Y0166184D01*
X0094718Y0166140D01*
X0094581Y0166100D01*
X0094443Y0166063D01*
X0094304Y0166030D01*
X0094164Y0166002D01*
X0094023Y0165977D01*
X0093882Y0165956D01*
X0093740Y0165939D01*
X0093598Y0165926D01*
X0093455Y0165917D01*
X0093312Y0165912D01*
X0093169Y0165911D01*
X0093026Y0165914D01*
X0092884Y0165921D01*
X0092741Y0165932D01*
X0092599Y0165947D01*
X0092457Y0165966D01*
X0092316Y0165989D01*
X0092176Y0166016D01*
X0092036Y0166046D01*
X0091898Y0166081D01*
X0091760Y0166119D01*
X0091623Y0166161D01*
X0091488Y0166208D01*
X0091354Y0166257D01*
X0091222Y0166311D01*
X0091091Y0166368D01*
X0090961Y0166429D01*
X0090834Y0166493D01*
X0090708Y0166561D01*
X0090584Y0166633D01*
X0090463Y0166708D01*
X0090343Y0166786D01*
X0090226Y0166868D01*
X0090111Y0166952D01*
X0089998Y0167040D01*
X0089888Y0167131D01*
X0089780Y0167226D01*
X0089676Y0167323D01*
X0089573Y0167423D01*
X0089474Y0167525D01*
X0089378Y0167631D01*
X0089284Y0167739D01*
X0089194Y0167850D01*
X0089107Y0167963D01*
X0089023Y0168079D01*
X0088942Y0168197D01*
X0088865Y0168317D01*
X0088791Y0168439D01*
X0088720Y0168563D01*
X0088653Y0168690D01*
X0088589Y0168818D01*
X0088529Y0168947D01*
X0088473Y0169079D01*
X0088421Y0169212D01*
X0088372Y0169346D01*
X0088327Y0169481D01*
X0088285Y0169618D01*
X0088248Y0169756D01*
X0088214Y0169895D01*
X0088184Y0170035D01*
X0088159Y0170175D01*
X0088137Y0170317D01*
X0088119Y0170459D01*
X0088105Y0170601D01*
X0088095Y0170743D01*
X0088089Y0170886D01*
X0088087Y0171029D01*
X0088087Y0037171D02*
X0088089Y0037314D01*
X0088095Y0037457D01*
X0088105Y0037599D01*
X0088119Y0037741D01*
X0088137Y0037883D01*
X0088159Y0038025D01*
X0088184Y0038165D01*
X0088214Y0038305D01*
X0088248Y0038444D01*
X0088285Y0038582D01*
X0088327Y0038719D01*
X0088372Y0038854D01*
X0088421Y0038988D01*
X0088473Y0039121D01*
X0088529Y0039253D01*
X0088589Y0039382D01*
X0088653Y0039510D01*
X0088720Y0039637D01*
X0088791Y0039761D01*
X0088865Y0039883D01*
X0088942Y0040003D01*
X0089023Y0040121D01*
X0089107Y0040237D01*
X0089194Y0040350D01*
X0089284Y0040461D01*
X0089378Y0040569D01*
X0089474Y0040675D01*
X0089573Y0040777D01*
X0089676Y0040877D01*
X0089780Y0040974D01*
X0089888Y0041069D01*
X0089998Y0041160D01*
X0090111Y0041248D01*
X0090226Y0041332D01*
X0090343Y0041414D01*
X0090463Y0041492D01*
X0090584Y0041567D01*
X0090708Y0041639D01*
X0090834Y0041707D01*
X0090961Y0041771D01*
X0091091Y0041832D01*
X0091222Y0041889D01*
X0091354Y0041943D01*
X0091488Y0041992D01*
X0091623Y0042039D01*
X0091760Y0042081D01*
X0091898Y0042119D01*
X0092036Y0042154D01*
X0092176Y0042184D01*
X0092316Y0042211D01*
X0092457Y0042234D01*
X0092599Y0042253D01*
X0092741Y0042268D01*
X0092884Y0042279D01*
X0093026Y0042286D01*
X0093169Y0042289D01*
X0093312Y0042288D01*
X0093455Y0042283D01*
X0093598Y0042274D01*
X0093740Y0042261D01*
X0093882Y0042244D01*
X0094023Y0042223D01*
X0094164Y0042198D01*
X0094304Y0042170D01*
X0094443Y0042137D01*
X0094581Y0042100D01*
X0094718Y0042060D01*
X0094854Y0042016D01*
X0094989Y0041968D01*
X0095122Y0041916D01*
X0095254Y0041861D01*
X0095384Y0041802D01*
X0095513Y0041739D01*
X0095639Y0041673D01*
X0095764Y0041603D01*
X0095887Y0041530D01*
X0096007Y0041454D01*
X0096126Y0041374D01*
X0096242Y0041290D01*
X0096356Y0041204D01*
X0096467Y0041114D01*
X0096576Y0041022D01*
X0096682Y0040926D01*
X0096786Y0040828D01*
X0096887Y0040726D01*
X0096984Y0040622D01*
X0097079Y0040515D01*
X0097171Y0040406D01*
X0097260Y0040294D01*
X0097346Y0040179D01*
X0097428Y0040063D01*
X0097507Y0039943D01*
X0097583Y0039822D01*
X0097655Y0039699D01*
X0097724Y0039574D01*
X0097789Y0039447D01*
X0097851Y0039318D01*
X0097909Y0039187D01*
X0097964Y0039055D01*
X0098014Y0038921D01*
X0098061Y0038786D01*
X0098105Y0038650D01*
X0098144Y0038513D01*
X0098179Y0038374D01*
X0098211Y0038235D01*
X0098239Y0038095D01*
X0098263Y0037954D01*
X0098283Y0037812D01*
X0098299Y0037670D01*
X0098311Y0037528D01*
X0098319Y0037385D01*
X0098323Y0037242D01*
X0098323Y0037100D01*
X0098319Y0036957D01*
X0098311Y0036814D01*
X0098299Y0036672D01*
X0098283Y0036530D01*
X0098263Y0036388D01*
X0098239Y0036247D01*
X0098211Y0036107D01*
X0098179Y0035968D01*
X0098144Y0035829D01*
X0098105Y0035692D01*
X0098061Y0035556D01*
X0098014Y0035421D01*
X0097964Y0035287D01*
X0097909Y0035155D01*
X0097851Y0035024D01*
X0097789Y0034895D01*
X0097724Y0034768D01*
X0097655Y0034643D01*
X0097583Y0034520D01*
X0097507Y0034399D01*
X0097428Y0034279D01*
X0097346Y0034163D01*
X0097260Y0034048D01*
X0097171Y0033936D01*
X0097079Y0033827D01*
X0096984Y0033720D01*
X0096887Y0033616D01*
X0096786Y0033514D01*
X0096682Y0033416D01*
X0096576Y0033320D01*
X0096467Y0033228D01*
X0096356Y0033138D01*
X0096242Y0033052D01*
X0096126Y0032968D01*
X0096007Y0032888D01*
X0095887Y0032812D01*
X0095764Y0032739D01*
X0095639Y0032669D01*
X0095513Y0032603D01*
X0095384Y0032540D01*
X0095254Y0032481D01*
X0095122Y0032426D01*
X0094989Y0032374D01*
X0094854Y0032326D01*
X0094718Y0032282D01*
X0094581Y0032242D01*
X0094443Y0032205D01*
X0094304Y0032172D01*
X0094164Y0032144D01*
X0094023Y0032119D01*
X0093882Y0032098D01*
X0093740Y0032081D01*
X0093598Y0032068D01*
X0093455Y0032059D01*
X0093312Y0032054D01*
X0093169Y0032053D01*
X0093026Y0032056D01*
X0092884Y0032063D01*
X0092741Y0032074D01*
X0092599Y0032089D01*
X0092457Y0032108D01*
X0092316Y0032131D01*
X0092176Y0032158D01*
X0092036Y0032188D01*
X0091898Y0032223D01*
X0091760Y0032261D01*
X0091623Y0032303D01*
X0091488Y0032350D01*
X0091354Y0032399D01*
X0091222Y0032453D01*
X0091091Y0032510D01*
X0090961Y0032571D01*
X0090834Y0032635D01*
X0090708Y0032703D01*
X0090584Y0032775D01*
X0090463Y0032850D01*
X0090343Y0032928D01*
X0090226Y0033010D01*
X0090111Y0033094D01*
X0089998Y0033182D01*
X0089888Y0033273D01*
X0089780Y0033368D01*
X0089676Y0033465D01*
X0089573Y0033565D01*
X0089474Y0033667D01*
X0089378Y0033773D01*
X0089284Y0033881D01*
X0089194Y0033992D01*
X0089107Y0034105D01*
X0089023Y0034221D01*
X0088942Y0034339D01*
X0088865Y0034459D01*
X0088791Y0034581D01*
X0088720Y0034705D01*
X0088653Y0034832D01*
X0088589Y0034960D01*
X0088529Y0035089D01*
X0088473Y0035221D01*
X0088421Y0035354D01*
X0088372Y0035488D01*
X0088327Y0035623D01*
X0088285Y0035760D01*
X0088248Y0035898D01*
X0088214Y0036037D01*
X0088184Y0036177D01*
X0088159Y0036317D01*
X0088137Y0036459D01*
X0088119Y0036601D01*
X0088105Y0036743D01*
X0088095Y0036885D01*
X0088089Y0037028D01*
X0088087Y0037171D01*
D11*
X0075591Y0059797D02*
X0067591Y0059797D01*
X0067531Y0059799D01*
X0067470Y0059804D01*
X0067411Y0059813D01*
X0067352Y0059826D01*
X0067293Y0059842D01*
X0067236Y0059862D01*
X0067181Y0059885D01*
X0067126Y0059912D01*
X0067074Y0059941D01*
X0067023Y0059974D01*
X0066974Y0060010D01*
X0066928Y0060048D01*
X0066884Y0060090D01*
X0066842Y0060134D01*
X0066804Y0060180D01*
X0066768Y0060229D01*
X0066735Y0060280D01*
X0066706Y0060332D01*
X0066679Y0060387D01*
X0066656Y0060442D01*
X0066636Y0060499D01*
X0066620Y0060558D01*
X0066607Y0060617D01*
X0066598Y0060676D01*
X0066593Y0060737D01*
X0066591Y0060797D01*
X0066591Y0077797D01*
X0066593Y0077857D01*
X0066598Y0077918D01*
X0066607Y0077977D01*
X0066620Y0078036D01*
X0066636Y0078095D01*
X0066656Y0078152D01*
X0066679Y0078207D01*
X0066706Y0078262D01*
X0066735Y0078314D01*
X0066768Y0078365D01*
X0066804Y0078414D01*
X0066842Y0078460D01*
X0066884Y0078504D01*
X0066928Y0078546D01*
X0066974Y0078584D01*
X0067023Y0078620D01*
X0067074Y0078653D01*
X0067126Y0078682D01*
X0067181Y0078709D01*
X0067236Y0078732D01*
X0067293Y0078752D01*
X0067352Y0078768D01*
X0067411Y0078781D01*
X0067470Y0078790D01*
X0067531Y0078795D01*
X0067591Y0078797D01*
X0075591Y0078797D01*
X0075651Y0078795D01*
X0075712Y0078790D01*
X0075771Y0078781D01*
X0075830Y0078768D01*
X0075889Y0078752D01*
X0075946Y0078732D01*
X0076001Y0078709D01*
X0076056Y0078682D01*
X0076108Y0078653D01*
X0076159Y0078620D01*
X0076208Y0078584D01*
X0076254Y0078546D01*
X0076298Y0078504D01*
X0076340Y0078460D01*
X0076378Y0078414D01*
X0076414Y0078365D01*
X0076447Y0078314D01*
X0076476Y0078262D01*
X0076503Y0078207D01*
X0076526Y0078152D01*
X0076546Y0078095D01*
X0076562Y0078036D01*
X0076575Y0077977D01*
X0076584Y0077918D01*
X0076589Y0077857D01*
X0076591Y0077797D01*
X0076591Y0060797D01*
X0076589Y0060737D01*
X0076584Y0060676D01*
X0076575Y0060617D01*
X0076562Y0060558D01*
X0076546Y0060499D01*
X0076526Y0060442D01*
X0076503Y0060387D01*
X0076476Y0060332D01*
X0076447Y0060280D01*
X0076414Y0060229D01*
X0076378Y0060180D01*
X0076340Y0060134D01*
X0076298Y0060090D01*
X0076254Y0060048D01*
X0076208Y0060010D01*
X0076159Y0059974D01*
X0076108Y0059941D01*
X0076056Y0059912D01*
X0076001Y0059885D01*
X0075946Y0059862D01*
X0075889Y0059842D01*
X0075830Y0059826D01*
X0075771Y0059813D01*
X0075712Y0059804D01*
X0075651Y0059799D01*
X0075591Y0059797D01*
X0071591Y0067797D02*
X0071591Y0068297D01*
X0071591Y0070297D02*
X0071591Y0070797D01*
X0063091Y0078797D02*
X0063591Y0079297D01*
X0063591Y0080797D01*
X0063589Y0080857D01*
X0063584Y0080918D01*
X0063575Y0080977D01*
X0063562Y0081036D01*
X0063546Y0081095D01*
X0063526Y0081152D01*
X0063503Y0081207D01*
X0063476Y0081262D01*
X0063447Y0081314D01*
X0063414Y0081365D01*
X0063378Y0081414D01*
X0063340Y0081460D01*
X0063298Y0081504D01*
X0063254Y0081546D01*
X0063208Y0081584D01*
X0063159Y0081620D01*
X0063108Y0081653D01*
X0063056Y0081682D01*
X0063001Y0081709D01*
X0062946Y0081732D01*
X0062889Y0081752D01*
X0062830Y0081768D01*
X0062771Y0081781D01*
X0062712Y0081790D01*
X0062651Y0081795D01*
X0062591Y0081797D01*
X0063091Y0078797D02*
X0063091Y0059797D01*
X0063591Y0059297D01*
X0063591Y0057797D01*
X0063589Y0057737D01*
X0063584Y0057676D01*
X0063575Y0057617D01*
X0063562Y0057558D01*
X0063546Y0057499D01*
X0063526Y0057442D01*
X0063503Y0057387D01*
X0063476Y0057332D01*
X0063447Y0057280D01*
X0063414Y0057229D01*
X0063378Y0057180D01*
X0063340Y0057134D01*
X0063298Y0057090D01*
X0063254Y0057048D01*
X0063208Y0057010D01*
X0063159Y0056974D01*
X0063108Y0056941D01*
X0063056Y0056912D01*
X0063001Y0056885D01*
X0062946Y0056862D01*
X0062889Y0056842D01*
X0062830Y0056826D01*
X0062771Y0056813D01*
X0062712Y0056804D01*
X0062651Y0056799D01*
X0062591Y0056797D01*
X0055591Y0056797D02*
X0055531Y0056799D01*
X0055470Y0056804D01*
X0055411Y0056813D01*
X0055352Y0056826D01*
X0055293Y0056842D01*
X0055236Y0056862D01*
X0055181Y0056885D01*
X0055126Y0056912D01*
X0055074Y0056941D01*
X0055023Y0056974D01*
X0054974Y0057010D01*
X0054928Y0057048D01*
X0054884Y0057090D01*
X0054842Y0057134D01*
X0054804Y0057180D01*
X0054768Y0057229D01*
X0054735Y0057280D01*
X0054706Y0057332D01*
X0054679Y0057387D01*
X0054656Y0057442D01*
X0054636Y0057499D01*
X0054620Y0057558D01*
X0054607Y0057617D01*
X0054598Y0057676D01*
X0054593Y0057737D01*
X0054591Y0057797D01*
X0054591Y0059297D01*
X0055091Y0059797D01*
X0055091Y0078797D01*
X0054591Y0079297D01*
X0054591Y0080797D01*
X0054593Y0080857D01*
X0054598Y0080918D01*
X0054607Y0080977D01*
X0054620Y0081036D01*
X0054636Y0081095D01*
X0054656Y0081152D01*
X0054679Y0081207D01*
X0054706Y0081262D01*
X0054735Y0081314D01*
X0054768Y0081365D01*
X0054804Y0081414D01*
X0054842Y0081460D01*
X0054884Y0081504D01*
X0054928Y0081546D01*
X0054974Y0081584D01*
X0055023Y0081620D01*
X0055074Y0081653D01*
X0055126Y0081682D01*
X0055181Y0081709D01*
X0055236Y0081732D01*
X0055293Y0081752D01*
X0055352Y0081768D01*
X0055411Y0081781D01*
X0055470Y0081790D01*
X0055531Y0081795D01*
X0055591Y0081797D01*
X0051591Y0077797D02*
X0051591Y0060797D01*
X0051589Y0060737D01*
X0051584Y0060676D01*
X0051575Y0060617D01*
X0051562Y0060558D01*
X0051546Y0060499D01*
X0051526Y0060442D01*
X0051503Y0060387D01*
X0051476Y0060332D01*
X0051447Y0060280D01*
X0051414Y0060229D01*
X0051378Y0060180D01*
X0051340Y0060134D01*
X0051298Y0060090D01*
X0051254Y0060048D01*
X0051208Y0060010D01*
X0051159Y0059974D01*
X0051108Y0059941D01*
X0051056Y0059912D01*
X0051001Y0059885D01*
X0050946Y0059862D01*
X0050889Y0059842D01*
X0050830Y0059826D01*
X0050771Y0059813D01*
X0050712Y0059804D01*
X0050651Y0059799D01*
X0050591Y0059797D01*
X0042591Y0059797D01*
X0042531Y0059799D01*
X0042470Y0059804D01*
X0042411Y0059813D01*
X0042352Y0059826D01*
X0042293Y0059842D01*
X0042236Y0059862D01*
X0042181Y0059885D01*
X0042126Y0059912D01*
X0042074Y0059941D01*
X0042023Y0059974D01*
X0041974Y0060010D01*
X0041928Y0060048D01*
X0041884Y0060090D01*
X0041842Y0060134D01*
X0041804Y0060180D01*
X0041768Y0060229D01*
X0041735Y0060280D01*
X0041706Y0060332D01*
X0041679Y0060387D01*
X0041656Y0060442D01*
X0041636Y0060499D01*
X0041620Y0060558D01*
X0041607Y0060617D01*
X0041598Y0060676D01*
X0041593Y0060737D01*
X0041591Y0060797D01*
X0041591Y0077797D01*
X0041593Y0077857D01*
X0041598Y0077918D01*
X0041607Y0077977D01*
X0041620Y0078036D01*
X0041636Y0078095D01*
X0041656Y0078152D01*
X0041679Y0078207D01*
X0041706Y0078262D01*
X0041735Y0078314D01*
X0041768Y0078365D01*
X0041804Y0078414D01*
X0041842Y0078460D01*
X0041884Y0078504D01*
X0041928Y0078546D01*
X0041974Y0078584D01*
X0042023Y0078620D01*
X0042074Y0078653D01*
X0042126Y0078682D01*
X0042181Y0078709D01*
X0042236Y0078732D01*
X0042293Y0078752D01*
X0042352Y0078768D01*
X0042411Y0078781D01*
X0042470Y0078790D01*
X0042531Y0078795D01*
X0042591Y0078797D01*
X0050591Y0078797D01*
X0050651Y0078795D01*
X0050712Y0078790D01*
X0050771Y0078781D01*
X0050830Y0078768D01*
X0050889Y0078752D01*
X0050946Y0078732D01*
X0051001Y0078709D01*
X0051056Y0078682D01*
X0051108Y0078653D01*
X0051159Y0078620D01*
X0051208Y0078584D01*
X0051254Y0078546D01*
X0051298Y0078504D01*
X0051340Y0078460D01*
X0051378Y0078414D01*
X0051414Y0078365D01*
X0051447Y0078314D01*
X0051476Y0078262D01*
X0051503Y0078207D01*
X0051526Y0078152D01*
X0051546Y0078095D01*
X0051562Y0078036D01*
X0051575Y0077977D01*
X0051584Y0077918D01*
X0051589Y0077857D01*
X0051591Y0077797D01*
X0046591Y0070797D02*
X0046591Y0070297D01*
X0046591Y0068297D02*
X0046591Y0067797D01*
X0050091Y0094297D02*
X0050151Y0094299D01*
X0050212Y0094304D01*
X0050271Y0094313D01*
X0050330Y0094326D01*
X0050389Y0094342D01*
X0050446Y0094362D01*
X0050501Y0094385D01*
X0050556Y0094412D01*
X0050608Y0094441D01*
X0050659Y0094474D01*
X0050708Y0094510D01*
X0050754Y0094548D01*
X0050798Y0094590D01*
X0050840Y0094634D01*
X0050878Y0094680D01*
X0050914Y0094729D01*
X0050947Y0094780D01*
X0050976Y0094832D01*
X0051003Y0094887D01*
X0051026Y0094942D01*
X0051046Y0094999D01*
X0051062Y0095058D01*
X0051075Y0095117D01*
X0051084Y0095176D01*
X0051089Y0095237D01*
X0051091Y0095297D01*
X0051091Y0096797D01*
X0050591Y0097297D01*
X0050591Y0116297D01*
X0051091Y0116797D01*
X0051091Y0118297D01*
X0051089Y0118357D01*
X0051084Y0118418D01*
X0051075Y0118477D01*
X0051062Y0118536D01*
X0051046Y0118595D01*
X0051026Y0118652D01*
X0051003Y0118707D01*
X0050976Y0118762D01*
X0050947Y0118814D01*
X0050914Y0118865D01*
X0050878Y0118914D01*
X0050840Y0118960D01*
X0050798Y0119004D01*
X0050754Y0119046D01*
X0050708Y0119084D01*
X0050659Y0119120D01*
X0050608Y0119153D01*
X0050556Y0119182D01*
X0050501Y0119209D01*
X0050446Y0119232D01*
X0050389Y0119252D01*
X0050330Y0119268D01*
X0050271Y0119281D01*
X0050212Y0119290D01*
X0050151Y0119295D01*
X0050091Y0119297D01*
X0043091Y0119297D02*
X0043031Y0119295D01*
X0042970Y0119290D01*
X0042911Y0119281D01*
X0042852Y0119268D01*
X0042793Y0119252D01*
X0042736Y0119232D01*
X0042681Y0119209D01*
X0042626Y0119182D01*
X0042574Y0119153D01*
X0042523Y0119120D01*
X0042474Y0119084D01*
X0042428Y0119046D01*
X0042384Y0119004D01*
X0042342Y0118960D01*
X0042304Y0118914D01*
X0042268Y0118865D01*
X0042235Y0118814D01*
X0042206Y0118762D01*
X0042179Y0118707D01*
X0042156Y0118652D01*
X0042136Y0118595D01*
X0042120Y0118536D01*
X0042107Y0118477D01*
X0042098Y0118418D01*
X0042093Y0118357D01*
X0042091Y0118297D01*
X0042091Y0116797D01*
X0042591Y0116297D01*
X0042591Y0097297D01*
X0042091Y0096797D01*
X0042091Y0095297D01*
X0042093Y0095237D01*
X0042098Y0095176D01*
X0042107Y0095117D01*
X0042120Y0095058D01*
X0042136Y0094999D01*
X0042156Y0094942D01*
X0042179Y0094887D01*
X0042206Y0094832D01*
X0042235Y0094780D01*
X0042268Y0094729D01*
X0042304Y0094680D01*
X0042342Y0094634D01*
X0042384Y0094590D01*
X0042428Y0094548D01*
X0042474Y0094510D01*
X0042523Y0094474D01*
X0042574Y0094441D01*
X0042626Y0094412D01*
X0042681Y0094385D01*
X0042736Y0094362D01*
X0042793Y0094342D01*
X0042852Y0094326D01*
X0042911Y0094313D01*
X0042970Y0094304D01*
X0043031Y0094299D01*
X0043091Y0094297D01*
X0062091Y0095297D02*
X0062091Y0096797D01*
X0062591Y0097297D01*
X0062591Y0116297D01*
X0062091Y0116797D01*
X0062091Y0118297D01*
X0062093Y0118357D01*
X0062098Y0118418D01*
X0062107Y0118477D01*
X0062120Y0118536D01*
X0062136Y0118595D01*
X0062156Y0118652D01*
X0062179Y0118707D01*
X0062206Y0118762D01*
X0062235Y0118814D01*
X0062268Y0118865D01*
X0062304Y0118914D01*
X0062342Y0118960D01*
X0062384Y0119004D01*
X0062428Y0119046D01*
X0062474Y0119084D01*
X0062523Y0119120D01*
X0062574Y0119153D01*
X0062626Y0119182D01*
X0062681Y0119209D01*
X0062736Y0119232D01*
X0062793Y0119252D01*
X0062852Y0119268D01*
X0062911Y0119281D01*
X0062970Y0119290D01*
X0063031Y0119295D01*
X0063091Y0119297D01*
X0070091Y0119297D02*
X0070151Y0119295D01*
X0070212Y0119290D01*
X0070271Y0119281D01*
X0070330Y0119268D01*
X0070389Y0119252D01*
X0070446Y0119232D01*
X0070501Y0119209D01*
X0070556Y0119182D01*
X0070608Y0119153D01*
X0070659Y0119120D01*
X0070708Y0119084D01*
X0070754Y0119046D01*
X0070798Y0119004D01*
X0070840Y0118960D01*
X0070878Y0118914D01*
X0070914Y0118865D01*
X0070947Y0118814D01*
X0070976Y0118762D01*
X0071003Y0118707D01*
X0071026Y0118652D01*
X0071046Y0118595D01*
X0071062Y0118536D01*
X0071075Y0118477D01*
X0071084Y0118418D01*
X0071089Y0118357D01*
X0071091Y0118297D01*
X0071091Y0116797D01*
X0070591Y0116297D01*
X0070591Y0097297D01*
X0071091Y0096797D01*
X0071091Y0095297D01*
X0071089Y0095237D01*
X0071084Y0095176D01*
X0071075Y0095117D01*
X0071062Y0095058D01*
X0071046Y0094999D01*
X0071026Y0094942D01*
X0071003Y0094887D01*
X0070976Y0094832D01*
X0070947Y0094780D01*
X0070914Y0094729D01*
X0070878Y0094680D01*
X0070840Y0094634D01*
X0070798Y0094590D01*
X0070754Y0094548D01*
X0070708Y0094510D01*
X0070659Y0094474D01*
X0070608Y0094441D01*
X0070556Y0094412D01*
X0070501Y0094385D01*
X0070446Y0094362D01*
X0070389Y0094342D01*
X0070330Y0094326D01*
X0070271Y0094313D01*
X0070212Y0094304D01*
X0070151Y0094299D01*
X0070091Y0094297D01*
X0063091Y0094297D02*
X0063031Y0094299D01*
X0062970Y0094304D01*
X0062911Y0094313D01*
X0062852Y0094326D01*
X0062793Y0094342D01*
X0062736Y0094362D01*
X0062681Y0094385D01*
X0062626Y0094412D01*
X0062574Y0094441D01*
X0062523Y0094474D01*
X0062474Y0094510D01*
X0062428Y0094548D01*
X0062384Y0094590D01*
X0062342Y0094634D01*
X0062304Y0094680D01*
X0062268Y0094729D01*
X0062235Y0094780D01*
X0062206Y0094832D01*
X0062179Y0094887D01*
X0062156Y0094942D01*
X0062136Y0094999D01*
X0062120Y0095058D01*
X0062107Y0095117D01*
X0062098Y0095176D01*
X0062093Y0095237D01*
X0062091Y0095297D01*
X0076591Y0100797D02*
X0076591Y0117797D01*
X0076593Y0117857D01*
X0076598Y0117918D01*
X0076607Y0117977D01*
X0076620Y0118036D01*
X0076636Y0118095D01*
X0076656Y0118152D01*
X0076679Y0118207D01*
X0076706Y0118262D01*
X0076735Y0118314D01*
X0076768Y0118365D01*
X0076804Y0118414D01*
X0076842Y0118460D01*
X0076884Y0118504D01*
X0076928Y0118546D01*
X0076974Y0118584D01*
X0077023Y0118620D01*
X0077074Y0118653D01*
X0077126Y0118682D01*
X0077181Y0118709D01*
X0077236Y0118732D01*
X0077293Y0118752D01*
X0077352Y0118768D01*
X0077411Y0118781D01*
X0077470Y0118790D01*
X0077531Y0118795D01*
X0077591Y0118797D01*
X0085591Y0118797D01*
X0085651Y0118795D01*
X0085712Y0118790D01*
X0085771Y0118781D01*
X0085830Y0118768D01*
X0085889Y0118752D01*
X0085946Y0118732D01*
X0086001Y0118709D01*
X0086056Y0118682D01*
X0086108Y0118653D01*
X0086159Y0118620D01*
X0086208Y0118584D01*
X0086254Y0118546D01*
X0086298Y0118504D01*
X0086340Y0118460D01*
X0086378Y0118414D01*
X0086414Y0118365D01*
X0086447Y0118314D01*
X0086476Y0118262D01*
X0086503Y0118207D01*
X0086526Y0118152D01*
X0086546Y0118095D01*
X0086562Y0118036D01*
X0086575Y0117977D01*
X0086584Y0117918D01*
X0086589Y0117857D01*
X0086591Y0117797D01*
X0086591Y0100797D01*
X0086589Y0100737D01*
X0086584Y0100676D01*
X0086575Y0100617D01*
X0086562Y0100558D01*
X0086546Y0100499D01*
X0086526Y0100442D01*
X0086503Y0100387D01*
X0086476Y0100332D01*
X0086447Y0100280D01*
X0086414Y0100229D01*
X0086378Y0100180D01*
X0086340Y0100134D01*
X0086298Y0100090D01*
X0086254Y0100048D01*
X0086208Y0100010D01*
X0086159Y0099974D01*
X0086108Y0099941D01*
X0086056Y0099912D01*
X0086001Y0099885D01*
X0085946Y0099862D01*
X0085889Y0099842D01*
X0085830Y0099826D01*
X0085771Y0099813D01*
X0085712Y0099804D01*
X0085651Y0099799D01*
X0085591Y0099797D01*
X0077591Y0099797D01*
X0077531Y0099799D01*
X0077470Y0099804D01*
X0077411Y0099813D01*
X0077352Y0099826D01*
X0077293Y0099842D01*
X0077236Y0099862D01*
X0077181Y0099885D01*
X0077126Y0099912D01*
X0077074Y0099941D01*
X0077023Y0099974D01*
X0076974Y0100010D01*
X0076928Y0100048D01*
X0076884Y0100090D01*
X0076842Y0100134D01*
X0076804Y0100180D01*
X0076768Y0100229D01*
X0076735Y0100280D01*
X0076706Y0100332D01*
X0076679Y0100387D01*
X0076656Y0100442D01*
X0076636Y0100499D01*
X0076620Y0100558D01*
X0076607Y0100617D01*
X0076598Y0100676D01*
X0076593Y0100737D01*
X0076591Y0100797D01*
X0081591Y0107797D02*
X0081591Y0108297D01*
X0081591Y0110297D02*
X0081591Y0110797D01*
X0085091Y0131797D02*
X0085151Y0131799D01*
X0085212Y0131804D01*
X0085271Y0131813D01*
X0085330Y0131826D01*
X0085389Y0131842D01*
X0085446Y0131862D01*
X0085501Y0131885D01*
X0085556Y0131912D01*
X0085608Y0131941D01*
X0085659Y0131974D01*
X0085708Y0132010D01*
X0085754Y0132048D01*
X0085798Y0132090D01*
X0085840Y0132134D01*
X0085878Y0132180D01*
X0085914Y0132229D01*
X0085947Y0132280D01*
X0085976Y0132332D01*
X0086003Y0132387D01*
X0086026Y0132442D01*
X0086046Y0132499D01*
X0086062Y0132558D01*
X0086075Y0132617D01*
X0086084Y0132676D01*
X0086089Y0132737D01*
X0086091Y0132797D01*
X0086091Y0134297D01*
X0085591Y0134797D01*
X0085591Y0153797D01*
X0086091Y0154297D01*
X0086091Y0155797D01*
X0086089Y0155857D01*
X0086084Y0155918D01*
X0086075Y0155977D01*
X0086062Y0156036D01*
X0086046Y0156095D01*
X0086026Y0156152D01*
X0086003Y0156207D01*
X0085976Y0156262D01*
X0085947Y0156314D01*
X0085914Y0156365D01*
X0085878Y0156414D01*
X0085840Y0156460D01*
X0085798Y0156504D01*
X0085754Y0156546D01*
X0085708Y0156584D01*
X0085659Y0156620D01*
X0085608Y0156653D01*
X0085556Y0156682D01*
X0085501Y0156709D01*
X0085446Y0156732D01*
X0085389Y0156752D01*
X0085330Y0156768D01*
X0085271Y0156781D01*
X0085212Y0156790D01*
X0085151Y0156795D01*
X0085091Y0156797D01*
X0078091Y0156797D02*
X0078031Y0156795D01*
X0077970Y0156790D01*
X0077911Y0156781D01*
X0077852Y0156768D01*
X0077793Y0156752D01*
X0077736Y0156732D01*
X0077681Y0156709D01*
X0077626Y0156682D01*
X0077574Y0156653D01*
X0077523Y0156620D01*
X0077474Y0156584D01*
X0077428Y0156546D01*
X0077384Y0156504D01*
X0077342Y0156460D01*
X0077304Y0156414D01*
X0077268Y0156365D01*
X0077235Y0156314D01*
X0077206Y0156262D01*
X0077179Y0156207D01*
X0077156Y0156152D01*
X0077136Y0156095D01*
X0077120Y0156036D01*
X0077107Y0155977D01*
X0077098Y0155918D01*
X0077093Y0155857D01*
X0077091Y0155797D01*
X0077091Y0154297D01*
X0077591Y0153797D01*
X0077591Y0134797D01*
X0077091Y0134297D01*
X0077091Y0132797D01*
X0077093Y0132737D01*
X0077098Y0132676D01*
X0077107Y0132617D01*
X0077120Y0132558D01*
X0077136Y0132499D01*
X0077156Y0132442D01*
X0077179Y0132387D01*
X0077206Y0132332D01*
X0077235Y0132280D01*
X0077268Y0132229D01*
X0077304Y0132180D01*
X0077342Y0132134D01*
X0077384Y0132090D01*
X0077428Y0132048D01*
X0077474Y0132010D01*
X0077523Y0131974D01*
X0077574Y0131941D01*
X0077626Y0131912D01*
X0077681Y0131885D01*
X0077736Y0131862D01*
X0077793Y0131842D01*
X0077852Y0131826D01*
X0077911Y0131813D01*
X0077970Y0131804D01*
X0078031Y0131799D01*
X0078091Y0131797D01*
X0062268Y0162097D02*
X0060490Y0162097D01*
X0060490Y0162096D02*
X0060426Y0162098D01*
X0060361Y0162104D01*
X0060298Y0162113D01*
X0060235Y0162127D01*
X0060173Y0162144D01*
X0060112Y0162165D01*
X0060052Y0162190D01*
X0059994Y0162218D01*
X0059938Y0162250D01*
X0059884Y0162285D01*
X0059832Y0162323D01*
X0059782Y0162364D01*
X0059736Y0162409D01*
X0059691Y0162455D01*
X0059650Y0162505D01*
X0059612Y0162557D01*
X0059577Y0162611D01*
X0059545Y0162667D01*
X0059517Y0162725D01*
X0059492Y0162785D01*
X0059471Y0162846D01*
X0059454Y0162908D01*
X0059440Y0162971D01*
X0059431Y0163034D01*
X0059425Y0163099D01*
X0059423Y0163163D01*
X0059423Y0165297D01*
X0059425Y0165361D01*
X0059431Y0165426D01*
X0059440Y0165489D01*
X0059454Y0165552D01*
X0059471Y0165614D01*
X0059492Y0165675D01*
X0059517Y0165735D01*
X0059545Y0165793D01*
X0059577Y0165849D01*
X0059612Y0165903D01*
X0059650Y0165955D01*
X0059691Y0166005D01*
X0059736Y0166051D01*
X0059782Y0166096D01*
X0059832Y0166137D01*
X0059884Y0166175D01*
X0059938Y0166210D01*
X0059994Y0166242D01*
X0060052Y0166270D01*
X0060112Y0166295D01*
X0060173Y0166316D01*
X0060235Y0166333D01*
X0060298Y0166347D01*
X0060361Y0166356D01*
X0060426Y0166362D01*
X0060490Y0166364D01*
X0060490Y0166363D02*
X0062268Y0166363D01*
X0062268Y0168497D02*
X0062268Y0162097D01*
X0056963Y0162097D02*
X0055185Y0162097D01*
X0055185Y0162096D02*
X0055121Y0162098D01*
X0055056Y0162104D01*
X0054993Y0162113D01*
X0054930Y0162127D01*
X0054868Y0162144D01*
X0054807Y0162165D01*
X0054747Y0162190D01*
X0054689Y0162218D01*
X0054633Y0162250D01*
X0054579Y0162285D01*
X0054527Y0162323D01*
X0054477Y0162364D01*
X0054431Y0162409D01*
X0054386Y0162455D01*
X0054345Y0162505D01*
X0054307Y0162557D01*
X0054272Y0162611D01*
X0054240Y0162667D01*
X0054212Y0162725D01*
X0054187Y0162785D01*
X0054166Y0162846D01*
X0054149Y0162908D01*
X0054135Y0162971D01*
X0054126Y0163034D01*
X0054120Y0163099D01*
X0054118Y0163163D01*
X0054119Y0163163D02*
X0054119Y0164941D01*
X0054119Y0164230D02*
X0056963Y0164230D01*
X0056963Y0164941D01*
X0056961Y0165015D01*
X0056955Y0165090D01*
X0056945Y0165163D01*
X0056932Y0165237D01*
X0056915Y0165309D01*
X0056893Y0165380D01*
X0056869Y0165451D01*
X0056840Y0165519D01*
X0056808Y0165587D01*
X0056772Y0165652D01*
X0056734Y0165715D01*
X0056691Y0165777D01*
X0056646Y0165836D01*
X0056598Y0165893D01*
X0056547Y0165947D01*
X0056493Y0165998D01*
X0056436Y0166046D01*
X0056377Y0166091D01*
X0056315Y0166134D01*
X0056252Y0166172D01*
X0056187Y0166208D01*
X0056119Y0166240D01*
X0056051Y0166269D01*
X0055980Y0166293D01*
X0055909Y0166315D01*
X0055837Y0166332D01*
X0055763Y0166345D01*
X0055690Y0166355D01*
X0055615Y0166361D01*
X0055541Y0166363D01*
X0055467Y0166361D01*
X0055392Y0166355D01*
X0055319Y0166345D01*
X0055245Y0166332D01*
X0055173Y0166315D01*
X0055102Y0166293D01*
X0055031Y0166269D01*
X0054963Y0166240D01*
X0054895Y0166208D01*
X0054830Y0166172D01*
X0054767Y0166134D01*
X0054705Y0166091D01*
X0054646Y0166046D01*
X0054589Y0165998D01*
X0054535Y0165947D01*
X0054484Y0165893D01*
X0054436Y0165836D01*
X0054391Y0165777D01*
X0054348Y0165715D01*
X0054310Y0165652D01*
X0054274Y0165587D01*
X0054242Y0165519D01*
X0054213Y0165451D01*
X0054189Y0165380D01*
X0054167Y0165309D01*
X0054150Y0165237D01*
X0054137Y0165163D01*
X0054127Y0165090D01*
X0054121Y0165015D01*
X0054119Y0164941D01*
X0051643Y0166363D02*
X0051643Y0162097D01*
X0049942Y0166363D02*
X0047808Y0166363D01*
X0048519Y0167430D02*
X0048519Y0162097D01*
X0045694Y0162097D02*
X0045694Y0166363D01*
X0045872Y0168141D02*
X0045517Y0168141D01*
X0045517Y0168497D01*
X0045872Y0168497D01*
X0045872Y0168141D01*
X0043491Y0166363D02*
X0040646Y0164230D01*
X0041891Y0165119D02*
X0043491Y0162097D01*
X0040646Y0162097D02*
X0040646Y0168497D01*
X0038152Y0166363D02*
X0036730Y0166363D01*
X0036730Y0166364D02*
X0036666Y0166362D01*
X0036601Y0166356D01*
X0036538Y0166347D01*
X0036475Y0166333D01*
X0036413Y0166316D01*
X0036352Y0166295D01*
X0036292Y0166270D01*
X0036234Y0166242D01*
X0036178Y0166210D01*
X0036124Y0166175D01*
X0036072Y0166137D01*
X0036022Y0166096D01*
X0035976Y0166051D01*
X0035931Y0166005D01*
X0035890Y0165955D01*
X0035852Y0165903D01*
X0035817Y0165849D01*
X0035785Y0165793D01*
X0035757Y0165735D01*
X0035732Y0165675D01*
X0035711Y0165614D01*
X0035694Y0165552D01*
X0035680Y0165489D01*
X0035671Y0165426D01*
X0035665Y0165361D01*
X0035663Y0165297D01*
X0035664Y0165297D02*
X0035664Y0163163D01*
X0035663Y0163163D02*
X0035665Y0163099D01*
X0035671Y0163034D01*
X0035680Y0162971D01*
X0035694Y0162908D01*
X0035711Y0162846D01*
X0035732Y0162785D01*
X0035757Y0162725D01*
X0035785Y0162667D01*
X0035817Y0162611D01*
X0035852Y0162557D01*
X0035890Y0162505D01*
X0035931Y0162455D01*
X0035976Y0162409D01*
X0036022Y0162364D01*
X0036072Y0162323D01*
X0036124Y0162285D01*
X0036178Y0162250D01*
X0036234Y0162218D01*
X0036292Y0162190D01*
X0036352Y0162165D01*
X0036413Y0162144D01*
X0036475Y0162127D01*
X0036538Y0162113D01*
X0036601Y0162104D01*
X0036666Y0162098D01*
X0036730Y0162096D01*
X0036730Y0162097D02*
X0038152Y0162097D01*
X0033181Y0162097D02*
X0033181Y0166363D01*
X0033359Y0168141D02*
X0033004Y0168141D01*
X0033004Y0168497D01*
X0033359Y0168497D01*
X0033359Y0168141D01*
X0030446Y0168497D02*
X0030446Y0162097D01*
X0026891Y0168497D01*
X0026891Y0162097D01*
X0048519Y0167430D02*
X0048521Y0167494D01*
X0048527Y0167559D01*
X0048536Y0167622D01*
X0048550Y0167685D01*
X0048567Y0167747D01*
X0048588Y0167808D01*
X0048613Y0167868D01*
X0048641Y0167926D01*
X0048673Y0167982D01*
X0048708Y0168036D01*
X0048746Y0168088D01*
X0048787Y0168138D01*
X0048832Y0168184D01*
X0048878Y0168229D01*
X0048928Y0168270D01*
X0048980Y0168308D01*
X0049034Y0168343D01*
X0049090Y0168375D01*
X0049148Y0168403D01*
X0049208Y0168428D01*
X0049269Y0168449D01*
X0049331Y0168466D01*
X0049394Y0168480D01*
X0049457Y0168489D01*
X0049522Y0168495D01*
X0049586Y0168497D01*
X0049942Y0168497D01*
X0051466Y0168497D02*
X0051821Y0168497D01*
X0051821Y0168141D01*
X0051466Y0168141D01*
X0051466Y0168497D01*
D12*
X0071341Y0144201D02*
X0075841Y0144201D01*
X0075841Y0142951D02*
X0075841Y0145451D01*
X0075841Y0140984D02*
X0073841Y0139984D01*
X0073841Y0139734D02*
X0073841Y0138484D01*
X0073841Y0139734D02*
X0073839Y0139803D01*
X0073833Y0139872D01*
X0073824Y0139940D01*
X0073811Y0140007D01*
X0073794Y0140074D01*
X0073773Y0140140D01*
X0073749Y0140204D01*
X0073721Y0140267D01*
X0073690Y0140329D01*
X0073656Y0140389D01*
X0073618Y0140446D01*
X0073577Y0140502D01*
X0073534Y0140555D01*
X0073487Y0140606D01*
X0073438Y0140654D01*
X0073386Y0140699D01*
X0073331Y0140741D01*
X0073275Y0140780D01*
X0073216Y0140817D01*
X0073155Y0140849D01*
X0073093Y0140879D01*
X0073029Y0140905D01*
X0072964Y0140927D01*
X0072898Y0140946D01*
X0072831Y0140961D01*
X0072763Y0140972D01*
X0072694Y0140980D01*
X0072625Y0140984D01*
X0072557Y0140984D01*
X0072488Y0140980D01*
X0072419Y0140972D01*
X0072351Y0140961D01*
X0072284Y0140946D01*
X0072218Y0140927D01*
X0072153Y0140905D01*
X0072089Y0140879D01*
X0072027Y0140849D01*
X0071966Y0140817D01*
X0071907Y0140780D01*
X0071851Y0140741D01*
X0071796Y0140699D01*
X0071744Y0140654D01*
X0071695Y0140606D01*
X0071648Y0140555D01*
X0071605Y0140502D01*
X0071564Y0140446D01*
X0071526Y0140389D01*
X0071492Y0140329D01*
X0071461Y0140267D01*
X0071433Y0140204D01*
X0071409Y0140140D01*
X0071388Y0140074D01*
X0071371Y0140007D01*
X0071358Y0139940D01*
X0071349Y0139872D01*
X0071343Y0139803D01*
X0071341Y0139734D01*
X0071341Y0138484D01*
X0075841Y0138484D01*
X0072341Y0142951D02*
X0071341Y0144201D01*
X0075841Y0112951D02*
X0075841Y0110451D01*
X0073341Y0112576D01*
X0071341Y0111826D02*
X0071343Y0111753D01*
X0071348Y0111681D01*
X0071357Y0111609D01*
X0071370Y0111537D01*
X0071386Y0111466D01*
X0071406Y0111396D01*
X0071430Y0111328D01*
X0071456Y0111260D01*
X0071487Y0111194D01*
X0071520Y0111129D01*
X0071557Y0111067D01*
X0071596Y0111006D01*
X0071639Y0110947D01*
X0071685Y0110890D01*
X0071733Y0110836D01*
X0071784Y0110785D01*
X0071838Y0110735D01*
X0071894Y0110689D01*
X0071952Y0110646D01*
X0072013Y0110605D01*
X0072075Y0110568D01*
X0072139Y0110534D01*
X0072205Y0110503D01*
X0072272Y0110475D01*
X0072341Y0110451D01*
X0073341Y0112576D02*
X0073295Y0112622D01*
X0073246Y0112666D01*
X0073195Y0112706D01*
X0073142Y0112744D01*
X0073087Y0112779D01*
X0073030Y0112811D01*
X0072972Y0112840D01*
X0072912Y0112866D01*
X0072850Y0112888D01*
X0072788Y0112907D01*
X0072725Y0112923D01*
X0072661Y0112935D01*
X0072596Y0112944D01*
X0072531Y0112949D01*
X0072466Y0112951D01*
X0072401Y0112949D01*
X0072335Y0112943D01*
X0072271Y0112934D01*
X0072207Y0112921D01*
X0072143Y0112904D01*
X0072081Y0112883D01*
X0072020Y0112859D01*
X0071961Y0112831D01*
X0071904Y0112800D01*
X0071848Y0112766D01*
X0071794Y0112728D01*
X0071743Y0112688D01*
X0071694Y0112644D01*
X0071648Y0112598D01*
X0071604Y0112549D01*
X0071564Y0112498D01*
X0071526Y0112444D01*
X0071492Y0112389D01*
X0071461Y0112331D01*
X0071433Y0112272D01*
X0071409Y0112211D01*
X0071388Y0112149D01*
X0071371Y0112085D01*
X0071358Y0112021D01*
X0071349Y0111957D01*
X0071343Y0111891D01*
X0071341Y0111826D01*
X0071341Y0107234D02*
X0071341Y0105984D01*
X0075841Y0105984D01*
X0075841Y0108484D02*
X0073841Y0107484D01*
X0073841Y0107234D02*
X0073841Y0105984D01*
X0073841Y0107234D02*
X0073839Y0107303D01*
X0073833Y0107372D01*
X0073824Y0107440D01*
X0073811Y0107507D01*
X0073794Y0107574D01*
X0073773Y0107640D01*
X0073749Y0107704D01*
X0073721Y0107767D01*
X0073690Y0107829D01*
X0073656Y0107889D01*
X0073618Y0107946D01*
X0073577Y0108002D01*
X0073534Y0108055D01*
X0073487Y0108106D01*
X0073438Y0108154D01*
X0073386Y0108199D01*
X0073331Y0108241D01*
X0073275Y0108280D01*
X0073216Y0108317D01*
X0073155Y0108349D01*
X0073093Y0108379D01*
X0073029Y0108405D01*
X0072964Y0108427D01*
X0072898Y0108446D01*
X0072831Y0108461D01*
X0072763Y0108472D01*
X0072694Y0108480D01*
X0072625Y0108484D01*
X0072557Y0108484D01*
X0072488Y0108480D01*
X0072419Y0108472D01*
X0072351Y0108461D01*
X0072284Y0108446D01*
X0072218Y0108427D01*
X0072153Y0108405D01*
X0072089Y0108379D01*
X0072027Y0108349D01*
X0071966Y0108317D01*
X0071907Y0108280D01*
X0071851Y0108241D01*
X0071796Y0108199D01*
X0071744Y0108154D01*
X0071695Y0108106D01*
X0071648Y0108055D01*
X0071605Y0108002D01*
X0071564Y0107946D01*
X0071526Y0107889D01*
X0071492Y0107829D01*
X0071461Y0107767D01*
X0071433Y0107704D01*
X0071409Y0107640D01*
X0071388Y0107574D01*
X0071371Y0107507D01*
X0071358Y0107440D01*
X0071349Y0107372D01*
X0071343Y0107303D01*
X0071341Y0107234D01*
X0080591Y0088797D02*
X0092091Y0089297D01*
X0092341Y0104908D02*
X0089841Y0104908D01*
X0089781Y0104910D01*
X0089720Y0104915D01*
X0089661Y0104924D01*
X0089602Y0104937D01*
X0089543Y0104953D01*
X0089486Y0104973D01*
X0089431Y0104996D01*
X0089376Y0105023D01*
X0089324Y0105052D01*
X0089273Y0105085D01*
X0089224Y0105121D01*
X0089178Y0105159D01*
X0089134Y0105201D01*
X0089092Y0105245D01*
X0089054Y0105291D01*
X0089018Y0105340D01*
X0088985Y0105391D01*
X0088956Y0105443D01*
X0088929Y0105498D01*
X0088906Y0105553D01*
X0088886Y0105610D01*
X0088870Y0105669D01*
X0088857Y0105728D01*
X0088848Y0105787D01*
X0088843Y0105848D01*
X0088841Y0105908D01*
X0088841Y0106908D01*
X0090841Y0110797D02*
X0090795Y0110843D01*
X0090746Y0110887D01*
X0090695Y0110927D01*
X0090642Y0110965D01*
X0090587Y0111000D01*
X0090530Y0111032D01*
X0090472Y0111061D01*
X0090412Y0111087D01*
X0090350Y0111109D01*
X0090288Y0111128D01*
X0090225Y0111144D01*
X0090161Y0111156D01*
X0090096Y0111165D01*
X0090031Y0111170D01*
X0089966Y0111172D01*
X0090841Y0110798D02*
X0093341Y0108673D01*
X0093341Y0111173D01*
X0089841Y0108673D02*
X0089772Y0108697D01*
X0089705Y0108725D01*
X0089639Y0108756D01*
X0089575Y0108790D01*
X0089513Y0108827D01*
X0089452Y0108868D01*
X0089394Y0108911D01*
X0089338Y0108957D01*
X0089284Y0109007D01*
X0089233Y0109058D01*
X0089185Y0109112D01*
X0089139Y0109169D01*
X0089096Y0109228D01*
X0089057Y0109289D01*
X0089020Y0109351D01*
X0088987Y0109416D01*
X0088956Y0109482D01*
X0088930Y0109550D01*
X0088906Y0109618D01*
X0088886Y0109688D01*
X0088870Y0109759D01*
X0088857Y0109831D01*
X0088848Y0109903D01*
X0088843Y0109975D01*
X0088841Y0110048D01*
X0088843Y0110113D01*
X0088849Y0110179D01*
X0088858Y0110243D01*
X0088871Y0110307D01*
X0088888Y0110371D01*
X0088909Y0110433D01*
X0088933Y0110494D01*
X0088961Y0110553D01*
X0088992Y0110611D01*
X0089026Y0110666D01*
X0089064Y0110720D01*
X0089104Y0110771D01*
X0089148Y0110820D01*
X0089194Y0110866D01*
X0089243Y0110910D01*
X0089294Y0110950D01*
X0089348Y0110988D01*
X0089404Y0111022D01*
X0089461Y0111053D01*
X0089520Y0111081D01*
X0089581Y0111105D01*
X0089643Y0111126D01*
X0089707Y0111143D01*
X0089771Y0111156D01*
X0089835Y0111165D01*
X0089901Y0111171D01*
X0089966Y0111173D01*
X0093341Y0106908D02*
X0093341Y0105908D01*
X0093339Y0105848D01*
X0093334Y0105787D01*
X0093325Y0105728D01*
X0093312Y0105669D01*
X0093296Y0105610D01*
X0093276Y0105553D01*
X0093253Y0105498D01*
X0093226Y0105443D01*
X0093197Y0105391D01*
X0093164Y0105340D01*
X0093128Y0105291D01*
X0093090Y0105245D01*
X0093048Y0105201D01*
X0093004Y0105159D01*
X0092958Y0105121D01*
X0092909Y0105085D01*
X0092858Y0105052D01*
X0092806Y0105023D01*
X0092751Y0104996D01*
X0092696Y0104973D01*
X0092639Y0104953D01*
X0092580Y0104937D01*
X0092521Y0104924D01*
X0092462Y0104915D01*
X0092401Y0104910D01*
X0092341Y0104908D01*
X0080991Y0086997D02*
X0080993Y0087060D01*
X0080999Y0087122D01*
X0081009Y0087184D01*
X0081022Y0087246D01*
X0081040Y0087306D01*
X0081061Y0087365D01*
X0081086Y0087423D01*
X0081115Y0087479D01*
X0081147Y0087533D01*
X0081182Y0087585D01*
X0081220Y0087634D01*
X0081262Y0087682D01*
X0081306Y0087726D01*
X0081354Y0087768D01*
X0081403Y0087806D01*
X0081455Y0087841D01*
X0081509Y0087873D01*
X0081565Y0087902D01*
X0081623Y0087927D01*
X0081682Y0087948D01*
X0081742Y0087966D01*
X0081804Y0087979D01*
X0081866Y0087989D01*
X0081928Y0087995D01*
X0081991Y0087997D01*
X0082054Y0087995D01*
X0082116Y0087989D01*
X0082178Y0087979D01*
X0082240Y0087966D01*
X0082300Y0087948D01*
X0082359Y0087927D01*
X0082417Y0087902D01*
X0082473Y0087873D01*
X0082527Y0087841D01*
X0082579Y0087806D01*
X0082628Y0087768D01*
X0082676Y0087726D01*
X0082720Y0087682D01*
X0082762Y0087634D01*
X0082800Y0087585D01*
X0082835Y0087533D01*
X0082867Y0087479D01*
X0082896Y0087423D01*
X0082921Y0087365D01*
X0082942Y0087306D01*
X0082960Y0087246D01*
X0082973Y0087184D01*
X0082983Y0087122D01*
X0082989Y0087060D01*
X0082991Y0086997D01*
X0082989Y0086934D01*
X0082983Y0086872D01*
X0082973Y0086810D01*
X0082960Y0086748D01*
X0082942Y0086688D01*
X0082921Y0086629D01*
X0082896Y0086571D01*
X0082867Y0086515D01*
X0082835Y0086461D01*
X0082800Y0086409D01*
X0082762Y0086360D01*
X0082720Y0086312D01*
X0082676Y0086268D01*
X0082628Y0086226D01*
X0082579Y0086188D01*
X0082527Y0086153D01*
X0082473Y0086121D01*
X0082417Y0086092D01*
X0082359Y0086067D01*
X0082300Y0086046D01*
X0082240Y0086028D01*
X0082178Y0086015D01*
X0082116Y0086005D01*
X0082054Y0085999D01*
X0081991Y0085997D01*
X0081928Y0085999D01*
X0081866Y0086005D01*
X0081804Y0086015D01*
X0081742Y0086028D01*
X0081682Y0086046D01*
X0081623Y0086067D01*
X0081565Y0086092D01*
X0081509Y0086121D01*
X0081455Y0086153D01*
X0081403Y0086188D01*
X0081354Y0086226D01*
X0081306Y0086268D01*
X0081262Y0086312D01*
X0081220Y0086360D01*
X0081182Y0086409D01*
X0081147Y0086461D01*
X0081115Y0086515D01*
X0081086Y0086571D01*
X0081061Y0086629D01*
X0081040Y0086688D01*
X0081022Y0086748D01*
X0081009Y0086810D01*
X0080999Y0086872D01*
X0080993Y0086934D01*
X0080991Y0086997D01*
X0079591Y0087797D02*
X0080591Y0088797D01*
X0079591Y0087797D02*
X0079591Y0050797D01*
X0080591Y0049797D01*
X0092091Y0049297D01*
X0085789Y0040551D02*
X0083289Y0040551D01*
X0085414Y0043051D01*
X0084664Y0045051D02*
X0084591Y0045049D01*
X0084519Y0045044D01*
X0084447Y0045035D01*
X0084375Y0045022D01*
X0084304Y0045006D01*
X0084234Y0044986D01*
X0084166Y0044962D01*
X0084098Y0044936D01*
X0084032Y0044905D01*
X0083967Y0044872D01*
X0083905Y0044835D01*
X0083844Y0044796D01*
X0083785Y0044753D01*
X0083728Y0044707D01*
X0083674Y0044659D01*
X0083623Y0044608D01*
X0083573Y0044554D01*
X0083527Y0044498D01*
X0083484Y0044440D01*
X0083443Y0044379D01*
X0083406Y0044317D01*
X0083372Y0044253D01*
X0083341Y0044187D01*
X0083313Y0044120D01*
X0083289Y0044051D01*
X0081525Y0045051D02*
X0080525Y0045051D01*
X0080465Y0045049D01*
X0080404Y0045044D01*
X0080345Y0045035D01*
X0080286Y0045022D01*
X0080227Y0045006D01*
X0080170Y0044986D01*
X0080115Y0044963D01*
X0080060Y0044936D01*
X0080008Y0044907D01*
X0079957Y0044874D01*
X0079908Y0044838D01*
X0079862Y0044800D01*
X0079818Y0044758D01*
X0079776Y0044714D01*
X0079738Y0044668D01*
X0079702Y0044619D01*
X0079669Y0044568D01*
X0079640Y0044516D01*
X0079613Y0044461D01*
X0079590Y0044406D01*
X0079570Y0044349D01*
X0079554Y0044290D01*
X0079541Y0044231D01*
X0079532Y0044172D01*
X0079527Y0044111D01*
X0079525Y0044051D01*
X0079525Y0041551D01*
X0079527Y0041491D01*
X0079532Y0041430D01*
X0079541Y0041371D01*
X0079554Y0041312D01*
X0079570Y0041253D01*
X0079590Y0041196D01*
X0079613Y0041141D01*
X0079640Y0041086D01*
X0079669Y0041034D01*
X0079702Y0040983D01*
X0079738Y0040934D01*
X0079776Y0040888D01*
X0079818Y0040844D01*
X0079862Y0040802D01*
X0079908Y0040764D01*
X0079957Y0040728D01*
X0080008Y0040695D01*
X0080060Y0040666D01*
X0080115Y0040639D01*
X0080170Y0040616D01*
X0080227Y0040596D01*
X0080286Y0040580D01*
X0080345Y0040567D01*
X0080404Y0040558D01*
X0080465Y0040553D01*
X0080525Y0040551D01*
X0081525Y0040551D01*
X0085414Y0043051D02*
X0085460Y0043097D01*
X0085504Y0043146D01*
X0085544Y0043197D01*
X0085582Y0043250D01*
X0085617Y0043305D01*
X0085649Y0043362D01*
X0085678Y0043420D01*
X0085704Y0043480D01*
X0085726Y0043542D01*
X0085745Y0043604D01*
X0085761Y0043667D01*
X0085773Y0043731D01*
X0085782Y0043796D01*
X0085787Y0043861D01*
X0085789Y0043926D01*
X0085787Y0043991D01*
X0085781Y0044057D01*
X0085772Y0044121D01*
X0085759Y0044185D01*
X0085742Y0044249D01*
X0085721Y0044311D01*
X0085697Y0044372D01*
X0085669Y0044431D01*
X0085638Y0044489D01*
X0085604Y0044544D01*
X0085566Y0044598D01*
X0085526Y0044649D01*
X0085482Y0044698D01*
X0085436Y0044744D01*
X0085387Y0044788D01*
X0085336Y0044828D01*
X0085282Y0044866D01*
X0085227Y0044900D01*
X0085169Y0044931D01*
X0085110Y0044959D01*
X0085049Y0044983D01*
X0084987Y0045004D01*
X0084923Y0045021D01*
X0084859Y0045034D01*
X0084795Y0045043D01*
X0084729Y0045049D01*
X0084664Y0045051D01*
X0077689Y0045051D02*
X0076689Y0045051D01*
X0077189Y0045051D02*
X0077189Y0040551D01*
X0076689Y0040551D02*
X0077689Y0040551D01*
X0072229Y0052924D02*
X0070979Y0052924D01*
X0072229Y0052924D02*
X0072298Y0052926D01*
X0072367Y0052932D01*
X0072435Y0052941D01*
X0072502Y0052954D01*
X0072569Y0052971D01*
X0072635Y0052992D01*
X0072699Y0053016D01*
X0072762Y0053044D01*
X0072824Y0053075D01*
X0072884Y0053109D01*
X0072941Y0053147D01*
X0072997Y0053188D01*
X0073050Y0053231D01*
X0073101Y0053278D01*
X0073149Y0053327D01*
X0073194Y0053379D01*
X0073236Y0053434D01*
X0073275Y0053490D01*
X0073312Y0053549D01*
X0073344Y0053610D01*
X0073374Y0053672D01*
X0073400Y0053736D01*
X0073422Y0053801D01*
X0073441Y0053867D01*
X0073456Y0053934D01*
X0073467Y0054002D01*
X0073475Y0054071D01*
X0073479Y0054140D01*
X0073479Y0054208D01*
X0073475Y0054277D01*
X0073467Y0054346D01*
X0073456Y0054414D01*
X0073441Y0054481D01*
X0073422Y0054547D01*
X0073400Y0054612D01*
X0073374Y0054676D01*
X0073344Y0054738D01*
X0073312Y0054799D01*
X0073275Y0054858D01*
X0073236Y0054914D01*
X0073194Y0054969D01*
X0073149Y0055021D01*
X0073101Y0055070D01*
X0073050Y0055117D01*
X0072997Y0055160D01*
X0072941Y0055201D01*
X0072884Y0055239D01*
X0072824Y0055273D01*
X0072762Y0055304D01*
X0072699Y0055332D01*
X0072635Y0055356D01*
X0072569Y0055377D01*
X0072502Y0055394D01*
X0072435Y0055407D01*
X0072367Y0055416D01*
X0072298Y0055422D01*
X0072229Y0055424D01*
X0072479Y0055424D02*
X0071479Y0055424D01*
X0072479Y0055424D02*
X0072541Y0055426D01*
X0072602Y0055432D01*
X0072663Y0055441D01*
X0072723Y0055454D01*
X0072782Y0055471D01*
X0072840Y0055492D01*
X0072897Y0055516D01*
X0072952Y0055543D01*
X0073005Y0055574D01*
X0073057Y0055608D01*
X0073106Y0055645D01*
X0073153Y0055685D01*
X0073197Y0055728D01*
X0073238Y0055773D01*
X0073277Y0055821D01*
X0073313Y0055872D01*
X0073345Y0055924D01*
X0073374Y0055978D01*
X0073400Y0056034D01*
X0073422Y0056092D01*
X0073441Y0056150D01*
X0073456Y0056210D01*
X0073467Y0056271D01*
X0073475Y0056332D01*
X0073479Y0056393D01*
X0073479Y0056455D01*
X0073475Y0056516D01*
X0073467Y0056577D01*
X0073456Y0056638D01*
X0073441Y0056698D01*
X0073422Y0056756D01*
X0073400Y0056814D01*
X0073374Y0056870D01*
X0073345Y0056924D01*
X0073313Y0056976D01*
X0073277Y0057027D01*
X0073238Y0057075D01*
X0073197Y0057120D01*
X0073153Y0057163D01*
X0073106Y0057203D01*
X0073057Y0057240D01*
X0073005Y0057274D01*
X0072952Y0057305D01*
X0072897Y0057332D01*
X0072840Y0057356D01*
X0072782Y0057377D01*
X0072723Y0057394D01*
X0072663Y0057407D01*
X0072602Y0057416D01*
X0072541Y0057422D01*
X0072479Y0057424D01*
X0070979Y0057424D01*
X0069215Y0057424D02*
X0068215Y0057424D01*
X0068155Y0057422D01*
X0068094Y0057417D01*
X0068035Y0057408D01*
X0067976Y0057395D01*
X0067917Y0057379D01*
X0067860Y0057359D01*
X0067805Y0057336D01*
X0067750Y0057309D01*
X0067698Y0057280D01*
X0067647Y0057247D01*
X0067598Y0057211D01*
X0067552Y0057173D01*
X0067508Y0057131D01*
X0067466Y0057087D01*
X0067428Y0057041D01*
X0067392Y0056992D01*
X0067359Y0056941D01*
X0067330Y0056889D01*
X0067303Y0056834D01*
X0067280Y0056779D01*
X0067260Y0056722D01*
X0067244Y0056663D01*
X0067231Y0056604D01*
X0067222Y0056545D01*
X0067217Y0056484D01*
X0067215Y0056424D01*
X0067215Y0053924D01*
X0067217Y0053864D01*
X0067222Y0053803D01*
X0067231Y0053744D01*
X0067244Y0053685D01*
X0067260Y0053626D01*
X0067280Y0053569D01*
X0067303Y0053514D01*
X0067330Y0053459D01*
X0067359Y0053407D01*
X0067392Y0053356D01*
X0067428Y0053307D01*
X0067466Y0053261D01*
X0067508Y0053217D01*
X0067552Y0053175D01*
X0067598Y0053137D01*
X0067647Y0053101D01*
X0067698Y0053068D01*
X0067750Y0053039D01*
X0067805Y0053012D01*
X0067860Y0052989D01*
X0067917Y0052969D01*
X0067976Y0052953D01*
X0068035Y0052940D01*
X0068094Y0052931D01*
X0068155Y0052926D01*
X0068215Y0052924D01*
X0069215Y0052924D01*
X0059967Y0047798D02*
X0058467Y0047798D01*
X0059967Y0047798D02*
X0060029Y0047796D01*
X0060090Y0047790D01*
X0060151Y0047781D01*
X0060211Y0047768D01*
X0060270Y0047751D01*
X0060328Y0047730D01*
X0060385Y0047706D01*
X0060440Y0047679D01*
X0060493Y0047648D01*
X0060545Y0047614D01*
X0060594Y0047577D01*
X0060641Y0047537D01*
X0060685Y0047494D01*
X0060726Y0047449D01*
X0060765Y0047401D01*
X0060801Y0047350D01*
X0060833Y0047298D01*
X0060862Y0047244D01*
X0060888Y0047188D01*
X0060910Y0047130D01*
X0060929Y0047072D01*
X0060944Y0047012D01*
X0060955Y0046951D01*
X0060963Y0046890D01*
X0060967Y0046829D01*
X0060967Y0046767D01*
X0060963Y0046706D01*
X0060955Y0046645D01*
X0060944Y0046584D01*
X0060929Y0046524D01*
X0060910Y0046466D01*
X0060888Y0046408D01*
X0060862Y0046352D01*
X0060833Y0046298D01*
X0060801Y0046246D01*
X0060765Y0046195D01*
X0060726Y0046147D01*
X0060685Y0046102D01*
X0060641Y0046059D01*
X0060594Y0046019D01*
X0060545Y0045982D01*
X0060493Y0045948D01*
X0060440Y0045917D01*
X0060385Y0045890D01*
X0060328Y0045866D01*
X0060270Y0045845D01*
X0060211Y0045828D01*
X0060151Y0045815D01*
X0060090Y0045806D01*
X0060029Y0045800D01*
X0059967Y0045798D01*
X0058967Y0045798D01*
X0059717Y0045798D02*
X0059786Y0045796D01*
X0059855Y0045790D01*
X0059923Y0045781D01*
X0059990Y0045768D01*
X0060057Y0045751D01*
X0060123Y0045730D01*
X0060187Y0045706D01*
X0060250Y0045678D01*
X0060312Y0045647D01*
X0060372Y0045613D01*
X0060429Y0045575D01*
X0060485Y0045534D01*
X0060538Y0045491D01*
X0060589Y0045444D01*
X0060637Y0045395D01*
X0060682Y0045343D01*
X0060724Y0045288D01*
X0060763Y0045232D01*
X0060800Y0045173D01*
X0060832Y0045112D01*
X0060862Y0045050D01*
X0060888Y0044986D01*
X0060910Y0044921D01*
X0060929Y0044855D01*
X0060944Y0044788D01*
X0060955Y0044720D01*
X0060963Y0044651D01*
X0060967Y0044582D01*
X0060967Y0044514D01*
X0060963Y0044445D01*
X0060955Y0044376D01*
X0060944Y0044308D01*
X0060929Y0044241D01*
X0060910Y0044175D01*
X0060888Y0044110D01*
X0060862Y0044046D01*
X0060832Y0043984D01*
X0060800Y0043923D01*
X0060763Y0043864D01*
X0060724Y0043808D01*
X0060682Y0043753D01*
X0060637Y0043701D01*
X0060589Y0043652D01*
X0060538Y0043605D01*
X0060485Y0043562D01*
X0060429Y0043521D01*
X0060372Y0043483D01*
X0060312Y0043449D01*
X0060250Y0043418D01*
X0060187Y0043390D01*
X0060123Y0043366D01*
X0060057Y0043345D01*
X0059990Y0043328D01*
X0059923Y0043315D01*
X0059855Y0043306D01*
X0059786Y0043300D01*
X0059717Y0043298D01*
X0058467Y0043298D01*
X0056499Y0043298D02*
X0055499Y0045298D01*
X0055249Y0045298D02*
X0053999Y0045298D01*
X0053999Y0043298D02*
X0053999Y0047798D01*
X0055249Y0047798D01*
X0055318Y0047796D01*
X0055387Y0047790D01*
X0055455Y0047781D01*
X0055522Y0047768D01*
X0055589Y0047751D01*
X0055655Y0047730D01*
X0055719Y0047706D01*
X0055782Y0047678D01*
X0055844Y0047647D01*
X0055904Y0047613D01*
X0055961Y0047575D01*
X0056017Y0047534D01*
X0056070Y0047491D01*
X0056121Y0047444D01*
X0056169Y0047395D01*
X0056214Y0047343D01*
X0056256Y0047288D01*
X0056295Y0047232D01*
X0056332Y0047173D01*
X0056364Y0047112D01*
X0056394Y0047050D01*
X0056420Y0046986D01*
X0056442Y0046921D01*
X0056461Y0046855D01*
X0056476Y0046788D01*
X0056487Y0046720D01*
X0056495Y0046651D01*
X0056499Y0046582D01*
X0056499Y0046514D01*
X0056495Y0046445D01*
X0056487Y0046376D01*
X0056476Y0046308D01*
X0056461Y0046241D01*
X0056442Y0046175D01*
X0056420Y0046110D01*
X0056394Y0046046D01*
X0056364Y0045984D01*
X0056332Y0045923D01*
X0056295Y0045864D01*
X0056256Y0045808D01*
X0056214Y0045753D01*
X0056169Y0045701D01*
X0056121Y0045652D01*
X0056070Y0045605D01*
X0056017Y0045562D01*
X0055961Y0045521D01*
X0055904Y0045483D01*
X0055844Y0045449D01*
X0055782Y0045418D01*
X0055719Y0045390D01*
X0055655Y0045366D01*
X0055589Y0045345D01*
X0055522Y0045328D01*
X0055455Y0045315D01*
X0055387Y0045306D01*
X0055318Y0045300D01*
X0055249Y0045298D01*
X0048467Y0053610D02*
X0045967Y0053610D01*
X0047217Y0053610D02*
X0047217Y0058110D01*
X0045967Y0057110D01*
X0044202Y0058110D02*
X0043202Y0058110D01*
X0043142Y0058108D01*
X0043081Y0058103D01*
X0043022Y0058094D01*
X0042963Y0058081D01*
X0042904Y0058065D01*
X0042847Y0058045D01*
X0042792Y0058022D01*
X0042737Y0057995D01*
X0042685Y0057966D01*
X0042634Y0057933D01*
X0042585Y0057897D01*
X0042539Y0057859D01*
X0042495Y0057817D01*
X0042453Y0057773D01*
X0042415Y0057727D01*
X0042379Y0057678D01*
X0042346Y0057627D01*
X0042317Y0057575D01*
X0042290Y0057520D01*
X0042267Y0057465D01*
X0042247Y0057408D01*
X0042231Y0057349D01*
X0042218Y0057290D01*
X0042209Y0057231D01*
X0042204Y0057170D01*
X0042202Y0057110D01*
X0042202Y0054610D01*
X0042204Y0054550D01*
X0042209Y0054489D01*
X0042218Y0054430D01*
X0042231Y0054371D01*
X0042247Y0054312D01*
X0042267Y0054255D01*
X0042290Y0054200D01*
X0042317Y0054145D01*
X0042346Y0054093D01*
X0042379Y0054042D01*
X0042415Y0053993D01*
X0042453Y0053947D01*
X0042495Y0053903D01*
X0042539Y0053861D01*
X0042585Y0053823D01*
X0042634Y0053787D01*
X0042685Y0053754D01*
X0042737Y0053725D01*
X0042792Y0053698D01*
X0042847Y0053675D01*
X0042904Y0053655D01*
X0042963Y0053639D01*
X0043022Y0053626D01*
X0043081Y0053617D01*
X0043142Y0053612D01*
X0043202Y0053610D01*
X0044202Y0053610D01*
X0053841Y0105984D02*
X0053841Y0107234D01*
X0053843Y0107303D01*
X0053849Y0107372D01*
X0053858Y0107440D01*
X0053871Y0107507D01*
X0053888Y0107574D01*
X0053909Y0107640D01*
X0053933Y0107704D01*
X0053961Y0107767D01*
X0053992Y0107829D01*
X0054026Y0107889D01*
X0054064Y0107946D01*
X0054105Y0108002D01*
X0054148Y0108055D01*
X0054195Y0108106D01*
X0054244Y0108154D01*
X0054296Y0108199D01*
X0054351Y0108241D01*
X0054407Y0108280D01*
X0054466Y0108317D01*
X0054527Y0108349D01*
X0054589Y0108379D01*
X0054653Y0108405D01*
X0054718Y0108427D01*
X0054784Y0108446D01*
X0054851Y0108461D01*
X0054919Y0108472D01*
X0054988Y0108480D01*
X0055057Y0108484D01*
X0055125Y0108484D01*
X0055194Y0108480D01*
X0055263Y0108472D01*
X0055331Y0108461D01*
X0055398Y0108446D01*
X0055464Y0108427D01*
X0055529Y0108405D01*
X0055593Y0108379D01*
X0055655Y0108349D01*
X0055716Y0108317D01*
X0055775Y0108280D01*
X0055831Y0108241D01*
X0055886Y0108199D01*
X0055938Y0108154D01*
X0055987Y0108106D01*
X0056034Y0108055D01*
X0056077Y0108002D01*
X0056118Y0107946D01*
X0056156Y0107889D01*
X0056190Y0107829D01*
X0056221Y0107767D01*
X0056249Y0107704D01*
X0056273Y0107640D01*
X0056294Y0107574D01*
X0056311Y0107507D01*
X0056324Y0107440D01*
X0056333Y0107372D01*
X0056339Y0107303D01*
X0056341Y0107234D01*
X0056341Y0105984D01*
X0056341Y0107484D02*
X0058341Y0108484D01*
X0057341Y0110451D02*
X0057341Y0112951D01*
X0056341Y0112201D02*
X0058341Y0112201D01*
X0057341Y0110451D02*
X0053841Y0111451D01*
X0053841Y0105984D02*
X0058341Y0105984D01*
D13*
X0095091Y0069297D03*
D14*
X0092591Y0086547D03*
X0092591Y0052047D03*
D15*
X0092591Y0064297D03*
X0092591Y0074297D03*
D16*
X0074591Y0070297D02*
X0071591Y0070297D01*
X0068591Y0070297D01*
X0068591Y0068297D02*
X0071591Y0068297D01*
X0074591Y0068297D01*
X0078591Y0108297D02*
X0081591Y0108297D01*
X0084591Y0108297D01*
X0084591Y0110297D02*
X0081591Y0110297D01*
X0078591Y0110297D01*
X0049591Y0070297D02*
X0046591Y0070297D01*
X0043591Y0070297D01*
X0043591Y0068297D02*
X0046591Y0068297D01*
X0049591Y0068297D01*
X0037447Y0086285D02*
X0037447Y0047308D01*
X0014809Y0047308D01*
X0014809Y0086285D01*
X0037447Y0086285D01*
X0037447Y0089730D02*
X0037447Y0118863D01*
X0014809Y0118863D01*
X0014809Y0089730D01*
X0037447Y0089730D01*
X0017004Y0077033D02*
X0015035Y0077033D01*
X0015035Y0056954D02*
X0017004Y0056954D01*
X0014809Y0124730D02*
X0014809Y0153863D01*
X0037447Y0153863D01*
X0037447Y0124730D01*
X0014809Y0124730D01*
D17*
X0015035Y0134178D02*
X0017004Y0134178D01*
X0017004Y0144415D01*
X0015035Y0144415D01*
X0015035Y0109415D02*
X0017004Y0109415D01*
X0017004Y0099178D01*
X0015035Y0099178D01*
D18*
X0013146Y0102391D02*
X0009546Y0104791D01*
X0009546Y0106191D02*
X0009546Y0107391D01*
X0009548Y0107447D01*
X0009554Y0107502D01*
X0009563Y0107557D01*
X0009577Y0107612D01*
X0009594Y0107665D01*
X0009615Y0107716D01*
X0009640Y0107767D01*
X0009668Y0107815D01*
X0009699Y0107861D01*
X0009733Y0107905D01*
X0009771Y0107947D01*
X0009811Y0107986D01*
X0009853Y0108021D01*
X0009899Y0108054D01*
X0009946Y0108084D01*
X0009995Y0108110D01*
X0010046Y0108133D01*
X0010099Y0108152D01*
X0010152Y0108167D01*
X0010207Y0108179D01*
X0010262Y0108187D01*
X0010318Y0108191D01*
X0010374Y0108191D01*
X0010430Y0108187D01*
X0010485Y0108179D01*
X0010540Y0108167D01*
X0010593Y0108152D01*
X0010646Y0108133D01*
X0010697Y0108110D01*
X0010746Y0108084D01*
X0010793Y0108054D01*
X0010839Y0108021D01*
X0010881Y0107986D01*
X0010921Y0107947D01*
X0010959Y0107905D01*
X0010993Y0107861D01*
X0011024Y0107815D01*
X0011052Y0107767D01*
X0011077Y0107716D01*
X0011098Y0107665D01*
X0011115Y0107612D01*
X0011129Y0107557D01*
X0011138Y0107502D01*
X0011144Y0107447D01*
X0011146Y0107391D01*
X0011146Y0106591D01*
X0011146Y0107191D02*
X0011148Y0107253D01*
X0011154Y0107314D01*
X0011163Y0107375D01*
X0011176Y0107435D01*
X0011193Y0107494D01*
X0011214Y0107552D01*
X0011238Y0107609D01*
X0011265Y0107664D01*
X0011296Y0107717D01*
X0011330Y0107769D01*
X0011367Y0107818D01*
X0011407Y0107865D01*
X0011450Y0107909D01*
X0011495Y0107950D01*
X0011543Y0107989D01*
X0011594Y0108025D01*
X0011646Y0108057D01*
X0011700Y0108086D01*
X0011756Y0108112D01*
X0011814Y0108134D01*
X0011872Y0108153D01*
X0011932Y0108168D01*
X0011993Y0108179D01*
X0012054Y0108187D01*
X0012115Y0108191D01*
X0012177Y0108191D01*
X0012238Y0108187D01*
X0012299Y0108179D01*
X0012360Y0108168D01*
X0012420Y0108153D01*
X0012478Y0108134D01*
X0012536Y0108112D01*
X0012592Y0108086D01*
X0012646Y0108057D01*
X0012698Y0108025D01*
X0012749Y0107989D01*
X0012797Y0107950D01*
X0012842Y0107909D01*
X0012885Y0107865D01*
X0012925Y0107818D01*
X0012962Y0107769D01*
X0012996Y0107717D01*
X0013027Y0107664D01*
X0013054Y0107609D01*
X0013078Y0107552D01*
X0013099Y0107494D01*
X0013116Y0107435D01*
X0013129Y0107375D01*
X0013138Y0107314D01*
X0013144Y0107253D01*
X0013146Y0107191D01*
X0013146Y0106191D01*
X0013146Y0104791D02*
X0009546Y0102391D01*
X0013528Y0070691D02*
X0013528Y0068691D01*
X0010728Y0069491D01*
X0010728Y0067291D02*
X0014328Y0064891D01*
X0014328Y0067291D02*
X0010728Y0064891D01*
X0012728Y0070091D02*
X0014328Y0070091D01*
X0013146Y0137391D02*
X0009546Y0139791D01*
X0011146Y0142891D02*
X0011103Y0142933D01*
X0011058Y0142973D01*
X0011010Y0143009D01*
X0010960Y0143043D01*
X0010908Y0143073D01*
X0010854Y0143101D01*
X0010799Y0143124D01*
X0010742Y0143144D01*
X0010684Y0143161D01*
X0010626Y0143174D01*
X0010566Y0143184D01*
X0010506Y0143189D01*
X0010446Y0143191D01*
X0011146Y0142891D02*
X0013146Y0141191D01*
X0013146Y0143191D01*
X0013146Y0139791D02*
X0009546Y0137391D01*
X0009546Y0142291D02*
X0009548Y0142350D01*
X0009554Y0142408D01*
X0009563Y0142467D01*
X0009577Y0142524D01*
X0009594Y0142580D01*
X0009615Y0142635D01*
X0009639Y0142689D01*
X0009667Y0142741D01*
X0009698Y0142791D01*
X0009732Y0142839D01*
X0009769Y0142884D01*
X0009810Y0142927D01*
X0009853Y0142968D01*
X0009898Y0143005D01*
X0009946Y0143039D01*
X0009996Y0143070D01*
X0010048Y0143098D01*
X0010102Y0143122D01*
X0010157Y0143143D01*
X0010213Y0143160D01*
X0010270Y0143174D01*
X0010329Y0143183D01*
X0010387Y0143189D01*
X0010446Y0143191D01*
X0009547Y0142291D02*
X0009549Y0142225D01*
X0009555Y0142159D01*
X0009564Y0142094D01*
X0009577Y0142029D01*
X0009594Y0141965D01*
X0009614Y0141902D01*
X0009638Y0141841D01*
X0009666Y0141781D01*
X0009697Y0141722D01*
X0009731Y0141666D01*
X0009768Y0141611D01*
X0009808Y0141559D01*
X0009852Y0141509D01*
X0009898Y0141462D01*
X0009947Y0141417D01*
X0009998Y0141375D01*
X0010051Y0141336D01*
X0010107Y0141301D01*
X0010164Y0141268D01*
X0010224Y0141239D01*
X0010285Y0141213D01*
X0010347Y0141191D01*
M02*
