%
M48
M72
T01C0.01378
T02C0.03200
T03C0.04000
T04C0.10236
%
T01
X26591Y34297
X31591Y34297
X36591Y34297
X41591Y34297
X46591Y34297
X51591Y34297
X56591Y34297
X61591Y34297
X66591Y34297
X71591Y34297
X76591Y34297
X81591Y34297
X84091Y174297
X79091Y174297
X74091Y174297
X69091Y174297
X64091Y174297
X59091Y174297
X54091Y174297
X49091Y174297
X44091Y174297
X39091Y174297
X34091Y174297
X29091Y174297
X24091Y174297
T02
X46591Y121797
X46591Y91797
X46591Y74297
X46591Y64297
X59091Y54297
X71591Y64297
X71591Y74297
X66591Y91797
X59091Y84297
X66591Y121797
X81591Y129297
X81591Y114297
X81591Y104297
X81591Y159297
T03
X86591Y79297
X86591Y69297
X86591Y59297
X24091Y56797
X24091Y66797
X24091Y76797
X24091Y99297
X24091Y109297
X24091Y134297
X24091Y144297
T04
X14465Y37171
X14465Y171029
X93205Y171029
X93205Y37171
M30
