G75*
%MOIN*%
%OFA0B0*%
%FSLAX25Y25*%
%IPPOS*%
%LPD*%
%AMOC8*
5,1,8,0,0,1.08239X$1,22.5*
%
%ADD10C,0.06000*%
%ADD11OC8,0.04800*%
%ADD12C,0.06000*%
%ADD13R,0.08661X0.02362*%
%ADD14OC8,0.06300*%
%ADD15C,0.01181*%
%ADD16C,0.02362*%
D10*
X0083591Y0059297D02*
X0089591Y0059297D01*
X0089591Y0069297D02*
X0083591Y0069297D01*
X0083591Y0079297D02*
X0089591Y0079297D01*
D11*
X0066591Y0091797D03*
X0059091Y0084297D03*
X0046591Y0091797D03*
X0046591Y0121797D03*
X0066591Y0121797D03*
X0081591Y0129297D03*
X0081591Y0159297D03*
X0059091Y0054297D03*
D12*
X0024091Y0056797D03*
X0024091Y0066797D03*
X0024091Y0076797D03*
X0024091Y0099297D03*
X0024091Y0109297D03*
X0024091Y0134297D03*
X0024091Y0144297D03*
D13*
X0046354Y0144297D03*
X0046354Y0149297D03*
X0046354Y0139297D03*
X0046354Y0134297D03*
X0066827Y0134297D03*
X0066827Y0139297D03*
X0066827Y0144297D03*
X0066827Y0149297D03*
D14*
X0081591Y0114297D03*
X0081591Y0104297D03*
X0071591Y0074297D03*
X0071591Y0064297D03*
X0046591Y0064297D03*
X0046591Y0074297D03*
D15*
X0007968Y0030674D02*
X0007968Y0177525D01*
X0099701Y0177525D01*
X0099701Y0030674D01*
X0007968Y0030674D01*
X0007968Y0031656D02*
X0010803Y0031656D01*
X0010785Y0031663D02*
X0013172Y0030674D01*
X0015757Y0030674D01*
X0018144Y0031663D01*
X0019972Y0033491D01*
X0020961Y0035878D01*
X0020961Y0038463D01*
X0019972Y0040850D01*
X0018144Y0042678D01*
X0015757Y0043667D01*
X0013172Y0043667D01*
X0010785Y0042678D01*
X0008957Y0040850D01*
X0007969Y0038463D01*
X0007969Y0035878D01*
X0008957Y0033491D01*
X0010785Y0031663D01*
X0009613Y0032835D02*
X0007968Y0032835D01*
X0007968Y0034015D02*
X0008740Y0034015D01*
X0008252Y0035195D02*
X0007968Y0035195D01*
X0007968Y0036374D02*
X0007969Y0036374D01*
X0007968Y0037554D02*
X0007969Y0037554D01*
X0007968Y0038733D02*
X0008081Y0038733D01*
X0007968Y0039913D02*
X0008569Y0039913D01*
X0007968Y0041093D02*
X0009200Y0041093D01*
X0010379Y0042272D02*
X0007968Y0042272D01*
X0007968Y0043452D02*
X0012654Y0043452D01*
X0016275Y0043452D02*
X0091394Y0043452D01*
X0091913Y0043667D02*
X0089525Y0042678D01*
X0087698Y0040850D01*
X0086709Y0038463D01*
X0086709Y0035878D01*
X0087698Y0033491D01*
X0089525Y0031663D01*
X0091913Y0030674D01*
X0094497Y0030674D01*
X0096884Y0031663D01*
X0098712Y0033491D01*
X0099701Y0035878D01*
X0099701Y0038463D01*
X0098712Y0040850D01*
X0096884Y0042678D01*
X0094497Y0043667D01*
X0091913Y0043667D01*
X0089120Y0042272D02*
X0018550Y0042272D01*
X0019729Y0041093D02*
X0087940Y0041093D01*
X0087309Y0039913D02*
X0020360Y0039913D01*
X0020848Y0038733D02*
X0086821Y0038733D01*
X0086709Y0037554D02*
X0020961Y0037554D01*
X0020961Y0036374D02*
X0025094Y0036374D01*
X0024959Y0036284D02*
X0024603Y0035928D01*
X0024323Y0035509D01*
X0024130Y0035043D01*
X0024031Y0034549D01*
X0024031Y0034297D01*
X0026590Y0034297D01*
X0026590Y0034296D01*
X0026591Y0034296D01*
X0026591Y0031737D01*
X0026843Y0031737D01*
X0027337Y0031836D01*
X0027803Y0032029D01*
X0028222Y0032309D01*
X0028578Y0032665D01*
X0028858Y0033084D01*
X0029051Y0033550D01*
X0029091Y0033748D01*
X0029130Y0033550D01*
X0029323Y0033084D01*
X0029603Y0032665D01*
X0029959Y0032309D01*
X0030378Y0032029D01*
X0030844Y0031836D01*
X0031338Y0031737D01*
X0031590Y0031737D01*
X0031590Y0034296D01*
X0031591Y0034296D01*
X0031591Y0031737D01*
X0031843Y0031737D01*
X0032337Y0031836D01*
X0032803Y0032029D01*
X0033222Y0032309D01*
X0033578Y0032665D01*
X0033858Y0033084D01*
X0034051Y0033550D01*
X0034091Y0033748D01*
X0034130Y0033550D01*
X0034323Y0033084D01*
X0034603Y0032665D01*
X0034959Y0032309D01*
X0035378Y0032029D01*
X0035844Y0031836D01*
X0036338Y0031737D01*
X0036590Y0031737D01*
X0036590Y0034296D01*
X0036591Y0034296D01*
X0036591Y0031737D01*
X0036843Y0031737D01*
X0037337Y0031836D01*
X0037803Y0032029D01*
X0038222Y0032309D01*
X0038578Y0032665D01*
X0038858Y0033084D01*
X0039051Y0033550D01*
X0039091Y0033748D01*
X0039130Y0033550D01*
X0039323Y0033084D01*
X0039603Y0032665D01*
X0039959Y0032309D01*
X0040378Y0032029D01*
X0040844Y0031836D01*
X0041338Y0031737D01*
X0041590Y0031737D01*
X0041590Y0034296D01*
X0041591Y0034296D01*
X0041591Y0031737D01*
X0041843Y0031737D01*
X0042337Y0031836D01*
X0042803Y0032029D01*
X0043222Y0032309D01*
X0043578Y0032665D01*
X0043858Y0033084D01*
X0044051Y0033550D01*
X0044091Y0033748D01*
X0044130Y0033550D01*
X0044323Y0033084D01*
X0044603Y0032665D01*
X0044959Y0032309D01*
X0045378Y0032029D01*
X0045844Y0031836D01*
X0046338Y0031737D01*
X0046590Y0031737D01*
X0046590Y0034296D01*
X0046591Y0034296D01*
X0046591Y0031737D01*
X0046843Y0031737D01*
X0047337Y0031836D01*
X0047803Y0032029D01*
X0048222Y0032309D01*
X0048578Y0032665D01*
X0048858Y0033084D01*
X0049051Y0033550D01*
X0049091Y0033748D01*
X0049130Y0033550D01*
X0049323Y0033084D01*
X0049603Y0032665D01*
X0049959Y0032309D01*
X0050378Y0032029D01*
X0050844Y0031836D01*
X0051338Y0031737D01*
X0051590Y0031737D01*
X0051590Y0034296D01*
X0051591Y0034296D01*
X0051591Y0031737D01*
X0051843Y0031737D01*
X0052337Y0031836D01*
X0052803Y0032029D01*
X0053222Y0032309D01*
X0053578Y0032665D01*
X0053858Y0033084D01*
X0054051Y0033550D01*
X0054091Y0033748D01*
X0054130Y0033550D01*
X0054323Y0033084D01*
X0054603Y0032665D01*
X0054959Y0032309D01*
X0055378Y0032029D01*
X0055844Y0031836D01*
X0056338Y0031737D01*
X0056590Y0031737D01*
X0056590Y0034296D01*
X0056591Y0034296D01*
X0056591Y0031737D01*
X0056843Y0031737D01*
X0057337Y0031836D01*
X0057803Y0032029D01*
X0058222Y0032309D01*
X0058578Y0032665D01*
X0058858Y0033084D01*
X0059051Y0033550D01*
X0059091Y0033748D01*
X0059130Y0033550D01*
X0059323Y0033084D01*
X0059603Y0032665D01*
X0059959Y0032309D01*
X0060378Y0032029D01*
X0060844Y0031836D01*
X0061338Y0031737D01*
X0061590Y0031737D01*
X0061590Y0034296D01*
X0061591Y0034296D01*
X0061591Y0031737D01*
X0061843Y0031737D01*
X0062337Y0031836D01*
X0062803Y0032029D01*
X0063222Y0032309D01*
X0063578Y0032665D01*
X0063858Y0033084D01*
X0064051Y0033550D01*
X0064091Y0033748D01*
X0064130Y0033550D01*
X0064323Y0033084D01*
X0064603Y0032665D01*
X0064959Y0032309D01*
X0065378Y0032029D01*
X0065844Y0031836D01*
X0066338Y0031737D01*
X0066590Y0031737D01*
X0066590Y0034296D01*
X0066591Y0034296D01*
X0066591Y0031737D01*
X0066843Y0031737D01*
X0067337Y0031836D01*
X0067803Y0032029D01*
X0068222Y0032309D01*
X0068578Y0032665D01*
X0068858Y0033084D01*
X0069051Y0033550D01*
X0069091Y0033748D01*
X0069130Y0033550D01*
X0069323Y0033084D01*
X0069603Y0032665D01*
X0069959Y0032309D01*
X0070378Y0032029D01*
X0070844Y0031836D01*
X0071338Y0031737D01*
X0071590Y0031737D01*
X0071590Y0034296D01*
X0071591Y0034296D01*
X0071591Y0031737D01*
X0071843Y0031737D01*
X0072337Y0031836D01*
X0072803Y0032029D01*
X0073222Y0032309D01*
X0073578Y0032665D01*
X0073858Y0033084D01*
X0074051Y0033550D01*
X0074091Y0033748D01*
X0074130Y0033550D01*
X0074323Y0033084D01*
X0074603Y0032665D01*
X0074959Y0032309D01*
X0075378Y0032029D01*
X0075844Y0031836D01*
X0076338Y0031737D01*
X0076590Y0031737D01*
X0076590Y0034296D01*
X0076591Y0034296D01*
X0076591Y0031737D01*
X0076843Y0031737D01*
X0077337Y0031836D01*
X0077803Y0032029D01*
X0078222Y0032309D01*
X0078578Y0032665D01*
X0078858Y0033084D01*
X0079051Y0033550D01*
X0079091Y0033748D01*
X0079130Y0033550D01*
X0079323Y0033084D01*
X0079603Y0032665D01*
X0079959Y0032309D01*
X0080378Y0032029D01*
X0080844Y0031836D01*
X0081338Y0031737D01*
X0081590Y0031737D01*
X0081590Y0034296D01*
X0081591Y0034296D01*
X0081591Y0034297D01*
X0084150Y0034297D01*
X0084150Y0034549D01*
X0084051Y0035043D01*
X0083858Y0035509D01*
X0083578Y0035928D01*
X0083222Y0036284D01*
X0082803Y0036564D01*
X0082337Y0036757D01*
X0081843Y0036856D01*
X0081591Y0036856D01*
X0081591Y0034297D01*
X0081590Y0034297D01*
X0081590Y0036856D01*
X0081338Y0036856D01*
X0080844Y0036757D01*
X0080378Y0036564D01*
X0079959Y0036284D01*
X0079603Y0035928D01*
X0079323Y0035509D01*
X0079130Y0035043D01*
X0079091Y0034845D01*
X0079051Y0035043D01*
X0078858Y0035509D01*
X0078578Y0035928D01*
X0078222Y0036284D01*
X0077803Y0036564D01*
X0077337Y0036757D01*
X0076843Y0036856D01*
X0076591Y0036856D01*
X0076591Y0034297D01*
X0076590Y0034297D01*
X0076590Y0036856D01*
X0076338Y0036856D01*
X0075844Y0036757D01*
X0075378Y0036564D01*
X0074959Y0036284D01*
X0074603Y0035928D01*
X0074323Y0035509D01*
X0074130Y0035043D01*
X0074091Y0034845D01*
X0074051Y0035043D01*
X0073858Y0035509D01*
X0073578Y0035928D01*
X0073222Y0036284D01*
X0072803Y0036564D01*
X0072337Y0036757D01*
X0071843Y0036856D01*
X0071591Y0036856D01*
X0071591Y0034297D01*
X0071590Y0034297D01*
X0071590Y0036856D01*
X0071338Y0036856D01*
X0070844Y0036757D01*
X0070378Y0036564D01*
X0069959Y0036284D01*
X0069603Y0035928D01*
X0069323Y0035509D01*
X0069130Y0035043D01*
X0069091Y0034845D01*
X0069051Y0035043D01*
X0068858Y0035509D01*
X0068578Y0035928D01*
X0068222Y0036284D01*
X0067803Y0036564D01*
X0067337Y0036757D01*
X0066843Y0036856D01*
X0066591Y0036856D01*
X0066591Y0034297D01*
X0066590Y0034297D01*
X0066590Y0036856D01*
X0066338Y0036856D01*
X0065844Y0036757D01*
X0065378Y0036564D01*
X0064959Y0036284D01*
X0064603Y0035928D01*
X0064323Y0035509D01*
X0064130Y0035043D01*
X0064091Y0034845D01*
X0064051Y0035043D01*
X0063858Y0035509D01*
X0063578Y0035928D01*
X0063222Y0036284D01*
X0062803Y0036564D01*
X0062337Y0036757D01*
X0061843Y0036856D01*
X0061591Y0036856D01*
X0061591Y0034297D01*
X0061590Y0034297D01*
X0061590Y0036856D01*
X0061338Y0036856D01*
X0060844Y0036757D01*
X0060378Y0036564D01*
X0059959Y0036284D01*
X0059603Y0035928D01*
X0059323Y0035509D01*
X0059130Y0035043D01*
X0059091Y0034845D01*
X0059051Y0035043D01*
X0058858Y0035509D01*
X0058578Y0035928D01*
X0058222Y0036284D01*
X0057803Y0036564D01*
X0057337Y0036757D01*
X0056843Y0036856D01*
X0056591Y0036856D01*
X0056591Y0034297D01*
X0056590Y0034297D01*
X0056590Y0036856D01*
X0056338Y0036856D01*
X0055844Y0036757D01*
X0055378Y0036564D01*
X0054959Y0036284D01*
X0054603Y0035928D01*
X0054323Y0035509D01*
X0054130Y0035043D01*
X0054091Y0034845D01*
X0054051Y0035043D01*
X0053858Y0035509D01*
X0053578Y0035928D01*
X0053222Y0036284D01*
X0052803Y0036564D01*
X0052337Y0036757D01*
X0051843Y0036856D01*
X0051591Y0036856D01*
X0051591Y0034297D01*
X0051590Y0034297D01*
X0051590Y0036856D01*
X0051338Y0036856D01*
X0050844Y0036757D01*
X0050378Y0036564D01*
X0049959Y0036284D01*
X0049603Y0035928D01*
X0049323Y0035509D01*
X0049130Y0035043D01*
X0049091Y0034845D01*
X0049051Y0035043D01*
X0048858Y0035509D01*
X0048578Y0035928D01*
X0048222Y0036284D01*
X0047803Y0036564D01*
X0047337Y0036757D01*
X0046843Y0036856D01*
X0046591Y0036856D01*
X0046591Y0034297D01*
X0046590Y0034297D01*
X0046590Y0036856D01*
X0046338Y0036856D01*
X0045844Y0036757D01*
X0045378Y0036564D01*
X0044959Y0036284D01*
X0044603Y0035928D01*
X0044323Y0035509D01*
X0044130Y0035043D01*
X0044091Y0034845D01*
X0044051Y0035043D01*
X0043858Y0035509D01*
X0043578Y0035928D01*
X0043222Y0036284D01*
X0042803Y0036564D01*
X0042337Y0036757D01*
X0041843Y0036856D01*
X0041591Y0036856D01*
X0041591Y0034297D01*
X0041590Y0034297D01*
X0041590Y0036856D01*
X0041338Y0036856D01*
X0040844Y0036757D01*
X0040378Y0036564D01*
X0039959Y0036284D01*
X0039603Y0035928D01*
X0039323Y0035509D01*
X0039130Y0035043D01*
X0039091Y0034845D01*
X0039051Y0035043D01*
X0038858Y0035509D01*
X0038578Y0035928D01*
X0038222Y0036284D01*
X0037803Y0036564D01*
X0037337Y0036757D01*
X0036843Y0036856D01*
X0036591Y0036856D01*
X0036591Y0034297D01*
X0036590Y0034297D01*
X0036590Y0036856D01*
X0036338Y0036856D01*
X0035844Y0036757D01*
X0035378Y0036564D01*
X0034959Y0036284D01*
X0034603Y0035928D01*
X0034323Y0035509D01*
X0034130Y0035043D01*
X0034091Y0034845D01*
X0034051Y0035043D01*
X0033858Y0035509D01*
X0033578Y0035928D01*
X0033222Y0036284D01*
X0032803Y0036564D01*
X0032337Y0036757D01*
X0031843Y0036856D01*
X0031591Y0036856D01*
X0031591Y0034297D01*
X0031590Y0034297D01*
X0031590Y0036856D01*
X0031338Y0036856D01*
X0030844Y0036757D01*
X0030378Y0036564D01*
X0029959Y0036284D01*
X0029603Y0035928D01*
X0029323Y0035509D01*
X0029130Y0035043D01*
X0029091Y0034845D01*
X0029051Y0035043D01*
X0028858Y0035509D01*
X0028578Y0035928D01*
X0028222Y0036284D01*
X0027803Y0036564D01*
X0027337Y0036757D01*
X0026843Y0036856D01*
X0026591Y0036856D01*
X0026591Y0034297D01*
X0026590Y0034297D01*
X0026590Y0036856D01*
X0026338Y0036856D01*
X0025844Y0036757D01*
X0025378Y0036564D01*
X0024959Y0036284D01*
X0024193Y0035195D02*
X0020677Y0035195D01*
X0020189Y0034015D02*
X0024037Y0034015D01*
X0024031Y0034044D02*
X0024130Y0033550D01*
X0024323Y0033084D01*
X0024603Y0032665D01*
X0024959Y0032309D01*
X0025378Y0032029D01*
X0025844Y0031836D01*
X0026338Y0031737D01*
X0026590Y0031737D01*
X0026590Y0034296D01*
X0024031Y0034296D01*
X0024031Y0034044D01*
X0024489Y0032835D02*
X0019316Y0032835D01*
X0018126Y0031656D02*
X0089544Y0031656D01*
X0088353Y0032835D02*
X0083692Y0032835D01*
X0083578Y0032665D02*
X0083858Y0033084D01*
X0084051Y0033550D01*
X0084150Y0034044D01*
X0084150Y0034296D01*
X0081591Y0034296D01*
X0081591Y0031737D01*
X0081843Y0031737D01*
X0082337Y0031836D01*
X0082803Y0032029D01*
X0083222Y0032309D01*
X0083578Y0032665D01*
X0084144Y0034015D02*
X0087480Y0034015D01*
X0086992Y0035195D02*
X0083988Y0035195D01*
X0083087Y0036374D02*
X0086709Y0036374D01*
X0081591Y0036374D02*
X0081590Y0036374D01*
X0081590Y0035195D02*
X0081591Y0035195D01*
X0081590Y0034297D02*
X0081590Y0034296D01*
X0079031Y0034296D01*
X0076591Y0034296D01*
X0076591Y0034297D01*
X0081590Y0034297D01*
X0081590Y0034015D02*
X0081591Y0034015D01*
X0081590Y0032835D02*
X0081591Y0032835D01*
X0079489Y0032835D02*
X0078692Y0032835D01*
X0078988Y0035195D02*
X0079193Y0035195D01*
X0080094Y0036374D02*
X0078087Y0036374D01*
X0076591Y0036374D02*
X0076590Y0036374D01*
X0076590Y0035195D02*
X0076591Y0035195D01*
X0076590Y0034297D02*
X0076590Y0034296D01*
X0074031Y0034296D01*
X0071591Y0034296D01*
X0071591Y0034297D01*
X0076590Y0034297D01*
X0076590Y0034015D02*
X0076591Y0034015D01*
X0076590Y0032835D02*
X0076591Y0032835D01*
X0074489Y0032835D02*
X0073692Y0032835D01*
X0073988Y0035195D02*
X0074193Y0035195D01*
X0075094Y0036374D02*
X0073087Y0036374D01*
X0071591Y0036374D02*
X0071590Y0036374D01*
X0071590Y0035195D02*
X0071591Y0035195D01*
X0071590Y0034297D02*
X0071590Y0034296D01*
X0069031Y0034296D01*
X0066591Y0034296D01*
X0066591Y0034297D01*
X0071590Y0034297D01*
X0071590Y0034015D02*
X0071591Y0034015D01*
X0071590Y0032835D02*
X0071591Y0032835D01*
X0069489Y0032835D02*
X0068692Y0032835D01*
X0068988Y0035195D02*
X0069193Y0035195D01*
X0070094Y0036374D02*
X0068087Y0036374D01*
X0066591Y0036374D02*
X0066590Y0036374D01*
X0066590Y0035195D02*
X0066591Y0035195D01*
X0066590Y0034297D02*
X0066590Y0034296D01*
X0064031Y0034296D01*
X0061591Y0034296D01*
X0061591Y0034297D01*
X0066590Y0034297D01*
X0066590Y0034015D02*
X0066591Y0034015D01*
X0066590Y0032835D02*
X0066591Y0032835D01*
X0064489Y0032835D02*
X0063692Y0032835D01*
X0063988Y0035195D02*
X0064193Y0035195D01*
X0065094Y0036374D02*
X0063087Y0036374D01*
X0061591Y0036374D02*
X0061590Y0036374D01*
X0061590Y0035195D02*
X0061591Y0035195D01*
X0061590Y0034297D02*
X0061590Y0034296D01*
X0059031Y0034296D01*
X0056591Y0034296D01*
X0056591Y0034297D01*
X0061590Y0034297D01*
X0061590Y0034015D02*
X0061591Y0034015D01*
X0061590Y0032835D02*
X0061591Y0032835D01*
X0059489Y0032835D02*
X0058692Y0032835D01*
X0058988Y0035195D02*
X0059193Y0035195D01*
X0060094Y0036374D02*
X0058087Y0036374D01*
X0056591Y0036374D02*
X0056590Y0036374D01*
X0056590Y0035195D02*
X0056591Y0035195D01*
X0056590Y0034297D02*
X0056590Y0034296D01*
X0054031Y0034296D01*
X0051591Y0034296D01*
X0051591Y0034297D01*
X0056590Y0034297D01*
X0056590Y0034015D02*
X0056591Y0034015D01*
X0056590Y0032835D02*
X0056591Y0032835D01*
X0054489Y0032835D02*
X0053692Y0032835D01*
X0053988Y0035195D02*
X0054193Y0035195D01*
X0055094Y0036374D02*
X0053087Y0036374D01*
X0051591Y0036374D02*
X0051590Y0036374D01*
X0051590Y0035195D02*
X0051591Y0035195D01*
X0051590Y0034297D02*
X0051590Y0034296D01*
X0049150Y0034296D01*
X0046591Y0034296D01*
X0046591Y0034297D01*
X0051590Y0034297D01*
X0051590Y0034015D02*
X0051591Y0034015D01*
X0051590Y0032835D02*
X0051591Y0032835D01*
X0049489Y0032835D02*
X0048692Y0032835D01*
X0048988Y0035195D02*
X0049193Y0035195D01*
X0050094Y0036374D02*
X0048087Y0036374D01*
X0046591Y0036374D02*
X0046590Y0036374D01*
X0046590Y0035195D02*
X0046591Y0035195D01*
X0046590Y0034297D02*
X0046590Y0034296D01*
X0044031Y0034296D01*
X0041591Y0034296D01*
X0041591Y0034297D01*
X0046590Y0034297D01*
X0046590Y0034015D02*
X0046591Y0034015D01*
X0046590Y0032835D02*
X0046591Y0032835D01*
X0044489Y0032835D02*
X0043692Y0032835D01*
X0043988Y0035195D02*
X0044193Y0035195D01*
X0045094Y0036374D02*
X0043087Y0036374D01*
X0041591Y0036374D02*
X0041590Y0036374D01*
X0041590Y0035195D02*
X0041591Y0035195D01*
X0041590Y0034297D02*
X0041590Y0034296D01*
X0039031Y0034296D01*
X0036591Y0034296D01*
X0036591Y0034297D01*
X0041590Y0034297D01*
X0041590Y0034015D02*
X0041591Y0034015D01*
X0041590Y0032835D02*
X0041591Y0032835D01*
X0039489Y0032835D02*
X0038692Y0032835D01*
X0038988Y0035195D02*
X0039193Y0035195D01*
X0040094Y0036374D02*
X0038087Y0036374D01*
X0036591Y0036374D02*
X0036590Y0036374D01*
X0036590Y0035195D02*
X0036591Y0035195D01*
X0036590Y0034297D02*
X0036590Y0034296D01*
X0034031Y0034296D01*
X0031591Y0034296D01*
X0031591Y0034297D01*
X0036590Y0034297D01*
X0036590Y0034015D02*
X0036591Y0034015D01*
X0036590Y0032835D02*
X0036591Y0032835D01*
X0034489Y0032835D02*
X0033692Y0032835D01*
X0033988Y0035195D02*
X0034193Y0035195D01*
X0035094Y0036374D02*
X0033087Y0036374D01*
X0031591Y0036374D02*
X0031590Y0036374D01*
X0031590Y0035195D02*
X0031591Y0035195D01*
X0031590Y0034297D02*
X0031590Y0034296D01*
X0029031Y0034296D01*
X0026591Y0034296D01*
X0026591Y0034297D01*
X0031590Y0034297D01*
X0031590Y0034015D02*
X0031591Y0034015D01*
X0031590Y0032835D02*
X0031591Y0032835D01*
X0029489Y0032835D02*
X0028692Y0032835D01*
X0028988Y0035195D02*
X0029193Y0035195D01*
X0030094Y0036374D02*
X0028087Y0036374D01*
X0026591Y0036374D02*
X0026590Y0036374D01*
X0026590Y0035195D02*
X0026591Y0035195D01*
X0026590Y0034015D02*
X0026591Y0034015D01*
X0026590Y0032835D02*
X0026591Y0032835D01*
X0025897Y0052623D02*
X0055839Y0052623D01*
X0057648Y0050814D01*
X0060533Y0050814D01*
X0062573Y0052854D01*
X0062573Y0055739D01*
X0060533Y0057779D01*
X0057648Y0057779D01*
X0055839Y0055970D01*
X0028167Y0055970D01*
X0028173Y0055984D01*
X0028173Y0057609D01*
X0027552Y0059109D01*
X0026403Y0060258D01*
X0024903Y0060879D01*
X0023278Y0060879D01*
X0021778Y0060258D01*
X0020629Y0059109D01*
X0020008Y0057609D01*
X0020008Y0055984D01*
X0020629Y0054484D01*
X0021778Y0053335D01*
X0023278Y0052714D01*
X0024903Y0052714D01*
X0025542Y0052979D01*
X0025897Y0052623D01*
X0025632Y0052889D02*
X0025325Y0052889D01*
X0026591Y0054297D02*
X0059091Y0054297D01*
X0061428Y0051709D02*
X0099701Y0051709D01*
X0099701Y0050530D02*
X0007968Y0050530D01*
X0007968Y0051709D02*
X0056753Y0051709D01*
X0056296Y0056428D02*
X0028173Y0056428D01*
X0028173Y0057607D02*
X0057476Y0057607D01*
X0060705Y0057607D02*
X0079871Y0057607D01*
X0080129Y0056984D02*
X0079508Y0058484D01*
X0079508Y0060109D01*
X0080129Y0061609D01*
X0081278Y0062758D01*
X0082778Y0063379D01*
X0090403Y0063379D01*
X0091903Y0062758D01*
X0093052Y0061609D01*
X0093317Y0060970D01*
X0093397Y0060970D01*
X0094917Y0062490D01*
X0094917Y0088603D01*
X0083400Y0100120D01*
X0083344Y0100064D01*
X0079837Y0100064D01*
X0077358Y0102543D01*
X0077358Y0106050D01*
X0079837Y0108529D01*
X0083344Y0108529D01*
X0083400Y0108473D01*
X0087417Y0112490D01*
X0087417Y0151103D01*
X0082707Y0155814D01*
X0080148Y0155814D01*
X0078339Y0157623D01*
X0057047Y0157623D01*
X0050984Y0151560D01*
X0051133Y0151560D01*
X0051768Y0150926D01*
X0051768Y0147667D01*
X0051133Y0147033D01*
X0041575Y0147033D01*
X0040941Y0147667D01*
X0040941Y0150926D01*
X0041575Y0151560D01*
X0046252Y0151560D01*
X0054681Y0159990D01*
X0055661Y0160970D01*
X0078339Y0160970D01*
X0080148Y0162779D01*
X0083033Y0162779D01*
X0085073Y0160739D01*
X0085073Y0158180D01*
X0089784Y0153470D01*
X0090764Y0152490D01*
X0090764Y0111103D01*
X0085767Y0106106D01*
X0085823Y0106050D01*
X0085823Y0102543D01*
X0085767Y0102487D01*
X0098264Y0089990D01*
X0098264Y0061103D01*
X0097284Y0060123D01*
X0094784Y0057623D01*
X0093317Y0057623D01*
X0093052Y0056984D01*
X0091903Y0055835D01*
X0090403Y0055214D01*
X0082778Y0055214D01*
X0081278Y0055835D01*
X0080129Y0056984D01*
X0080686Y0056428D02*
X0061885Y0056428D01*
X0062573Y0055248D02*
X0082696Y0055248D01*
X0079508Y0058787D02*
X0027685Y0058787D01*
X0026694Y0059966D02*
X0069517Y0059966D01*
X0069715Y0059769D02*
X0071381Y0059769D01*
X0071381Y0064087D01*
X0067063Y0064087D01*
X0067063Y0062421D01*
X0069715Y0059769D01*
X0071381Y0059966D02*
X0071800Y0059966D01*
X0071800Y0059769D02*
X0073466Y0059769D01*
X0076118Y0062421D01*
X0076118Y0064087D01*
X0071800Y0064087D01*
X0071800Y0059769D01*
X0071800Y0061146D02*
X0071381Y0061146D01*
X0071381Y0062326D02*
X0071800Y0062326D01*
X0071800Y0063505D02*
X0071381Y0063505D01*
X0071381Y0064087D02*
X0071800Y0064087D01*
X0071800Y0064506D01*
X0076118Y0064506D01*
X0076118Y0066172D01*
X0074667Y0067623D01*
X0077284Y0067623D01*
X0078264Y0068603D01*
X0079366Y0069706D01*
X0086181Y0069706D01*
X0086181Y0068887D01*
X0079223Y0068887D01*
X0079320Y0068271D01*
X0079533Y0067616D01*
X0079846Y0067002D01*
X0080251Y0066444D01*
X0080738Y0065957D01*
X0081296Y0065552D01*
X0081910Y0065239D01*
X0082565Y0065026D01*
X0083246Y0064919D01*
X0086181Y0064919D01*
X0086181Y0068887D01*
X0087000Y0068887D01*
X0087000Y0064919D01*
X0089935Y0064919D01*
X0090616Y0065026D01*
X0091271Y0065239D01*
X0091885Y0065552D01*
X0092443Y0065957D01*
X0092930Y0066444D01*
X0093335Y0067002D01*
X0093648Y0067616D01*
X0093861Y0068271D01*
X0093958Y0068887D01*
X0087000Y0068887D01*
X0087000Y0069706D01*
X0086181Y0069706D01*
X0086181Y0073674D01*
X0083335Y0073674D01*
X0084874Y0075214D01*
X0090403Y0075214D01*
X0091903Y0075835D01*
X0093052Y0076984D01*
X0093673Y0078484D01*
X0093673Y0080109D01*
X0093052Y0081609D01*
X0091903Y0082758D01*
X0090403Y0083379D01*
X0082778Y0083379D01*
X0081278Y0082758D01*
X0080129Y0081609D01*
X0079508Y0080109D01*
X0079508Y0078484D01*
X0080129Y0076984D01*
X0081021Y0076093D01*
X0075897Y0070970D01*
X0074250Y0070970D01*
X0075823Y0072543D01*
X0075823Y0076050D01*
X0073344Y0078529D01*
X0069837Y0078529D01*
X0069781Y0078473D01*
X0063264Y0084990D01*
X0062573Y0085680D01*
X0062573Y0085739D01*
X0060533Y0087779D01*
X0057648Y0087779D01*
X0055839Y0085970D01*
X0054784Y0085970D01*
X0050073Y0090680D01*
X0050073Y0093239D01*
X0048264Y0095049D01*
X0048264Y0101103D01*
X0055764Y0108603D01*
X0055764Y0141103D01*
X0057284Y0142623D01*
X0061457Y0142623D01*
X0062048Y0142033D01*
X0071606Y0142033D01*
X0072240Y0142667D01*
X0072240Y0145926D01*
X0071606Y0146560D01*
X0062048Y0146560D01*
X0061457Y0145970D01*
X0055897Y0145970D01*
X0054917Y0144990D01*
X0052417Y0142490D01*
X0052417Y0109990D01*
X0044917Y0102490D01*
X0044917Y0095049D01*
X0043108Y0093239D01*
X0043108Y0090354D01*
X0045148Y0088314D01*
X0047707Y0088314D01*
X0053397Y0082623D01*
X0055839Y0082623D01*
X0057648Y0080814D01*
X0060533Y0080814D01*
X0061620Y0081901D01*
X0067414Y0076106D01*
X0067358Y0076050D01*
X0067358Y0072543D01*
X0068931Y0070970D01*
X0050897Y0070970D01*
X0049917Y0069990D01*
X0048400Y0068473D01*
X0048344Y0068529D01*
X0044837Y0068529D01*
X0042358Y0066050D01*
X0042358Y0065970D01*
X0039784Y0065970D01*
X0033264Y0072490D01*
X0033264Y0104990D01*
X0028173Y0110080D01*
X0028173Y0110109D01*
X0027552Y0111609D01*
X0026403Y0112758D01*
X0024903Y0113379D01*
X0023278Y0113379D01*
X0021778Y0112758D01*
X0020629Y0111609D01*
X0020008Y0110109D01*
X0020008Y0108484D01*
X0020629Y0106984D01*
X0021778Y0105835D01*
X0023278Y0105214D01*
X0024903Y0105214D01*
X0026403Y0105835D01*
X0027044Y0106476D01*
X0029917Y0103603D01*
X0029917Y0078700D01*
X0027721Y0078700D01*
X0027552Y0079109D01*
X0026403Y0080258D01*
X0024903Y0080879D01*
X0023278Y0080879D01*
X0021778Y0080258D01*
X0020629Y0079109D01*
X0020008Y0077609D01*
X0020008Y0075984D01*
X0020629Y0074484D01*
X0021778Y0073335D01*
X0023278Y0072714D01*
X0024903Y0072714D01*
X0026403Y0073335D01*
X0027552Y0074484D01*
X0027912Y0075353D01*
X0029917Y0075353D01*
X0029917Y0071103D01*
X0030897Y0070123D01*
X0030897Y0070123D01*
X0037417Y0063603D01*
X0038397Y0062623D01*
X0042358Y0062623D01*
X0042358Y0062543D01*
X0044837Y0060064D01*
X0048344Y0060064D01*
X0050823Y0062543D01*
X0050823Y0066050D01*
X0050767Y0066106D01*
X0052284Y0067623D01*
X0068514Y0067623D01*
X0067063Y0066172D01*
X0067063Y0064506D01*
X0071381Y0064506D01*
X0071381Y0064087D01*
X0068337Y0061146D02*
X0049426Y0061146D01*
X0050606Y0062326D02*
X0067158Y0062326D01*
X0067063Y0063505D02*
X0050823Y0063505D01*
X0050823Y0064685D02*
X0067063Y0064685D01*
X0067063Y0065865D02*
X0050823Y0065865D01*
X0051704Y0067044D02*
X0067935Y0067044D01*
X0068139Y0071763D02*
X0050460Y0071763D01*
X0051118Y0072421D02*
X0051118Y0074087D01*
X0046800Y0074087D01*
X0046800Y0069769D01*
X0048466Y0069769D01*
X0051118Y0072421D01*
X0051118Y0072942D02*
X0067358Y0072942D01*
X0067358Y0074122D02*
X0046800Y0074122D01*
X0046800Y0074087D02*
X0046800Y0074506D01*
X0046381Y0074506D01*
X0046381Y0074087D01*
X0042063Y0074087D01*
X0042063Y0072421D01*
X0044715Y0069769D01*
X0046381Y0069769D01*
X0046381Y0074087D01*
X0046800Y0074087D01*
X0046800Y0074506D02*
X0051118Y0074506D01*
X0051118Y0076172D01*
X0048466Y0078824D01*
X0046800Y0078824D01*
X0046800Y0074506D01*
X0046381Y0074506D02*
X0046381Y0078824D01*
X0044715Y0078824D01*
X0042063Y0076172D01*
X0042063Y0074506D01*
X0046381Y0074506D01*
X0046381Y0074122D02*
X0033264Y0074122D01*
X0033264Y0075301D02*
X0042063Y0075301D01*
X0042372Y0076481D02*
X0033264Y0076481D01*
X0033264Y0077661D02*
X0043551Y0077661D01*
X0046381Y0077661D02*
X0046800Y0077661D01*
X0046800Y0076481D02*
X0046381Y0076481D01*
X0046381Y0075301D02*
X0046800Y0075301D01*
X0046800Y0072942D02*
X0046381Y0072942D01*
X0046381Y0071763D02*
X0046800Y0071763D01*
X0046800Y0070583D02*
X0046381Y0070583D01*
X0044532Y0068224D02*
X0037530Y0068224D01*
X0038709Y0067044D02*
X0043352Y0067044D01*
X0043901Y0070583D02*
X0035170Y0070583D01*
X0033991Y0071763D02*
X0042721Y0071763D01*
X0042063Y0072942D02*
X0033264Y0072942D01*
X0031591Y0071797D02*
X0031591Y0077027D01*
X0024321Y0077027D01*
X0024091Y0076797D01*
X0025454Y0072942D02*
X0029917Y0072942D01*
X0029917Y0071763D02*
X0007968Y0071763D01*
X0007968Y0072942D02*
X0022727Y0072942D01*
X0023065Y0071067D02*
X0022410Y0070854D01*
X0021796Y0070541D01*
X0021238Y0070136D01*
X0020751Y0069649D01*
X0020346Y0069091D01*
X0020033Y0068477D01*
X0019820Y0067822D01*
X0019723Y0067206D01*
X0023681Y0067206D01*
X0023681Y0066387D01*
X0019723Y0066387D01*
X0019820Y0065771D01*
X0020033Y0065116D01*
X0020346Y0064502D01*
X0020751Y0063944D01*
X0021238Y0063457D01*
X0021796Y0063052D01*
X0022410Y0062739D01*
X0023065Y0062526D01*
X0023681Y0062429D01*
X0023681Y0066387D01*
X0024500Y0066387D01*
X0024500Y0062429D01*
X0025116Y0062526D01*
X0025771Y0062739D01*
X0026385Y0063052D01*
X0026943Y0063457D01*
X0027430Y0063944D01*
X0027835Y0064502D01*
X0028148Y0065116D01*
X0028361Y0065771D01*
X0028458Y0066387D01*
X0024500Y0066387D01*
X0024500Y0067206D01*
X0023681Y0067206D01*
X0023681Y0071164D01*
X0023065Y0071067D01*
X0023681Y0070583D02*
X0024500Y0070583D01*
X0024500Y0071164D02*
X0025116Y0071067D01*
X0025771Y0070854D01*
X0026385Y0070541D01*
X0026943Y0070136D01*
X0027430Y0069649D01*
X0027835Y0069091D01*
X0028148Y0068477D01*
X0028361Y0067822D01*
X0028458Y0067206D01*
X0024500Y0067206D01*
X0024500Y0071164D01*
X0024500Y0069403D02*
X0023681Y0069403D01*
X0023681Y0068224D02*
X0024500Y0068224D01*
X0024500Y0067044D02*
X0033977Y0067044D01*
X0035156Y0065865D02*
X0028375Y0065865D01*
X0027928Y0064685D02*
X0036336Y0064685D01*
X0037417Y0063603D02*
X0037417Y0063603D01*
X0037515Y0063505D02*
X0026991Y0063505D01*
X0024500Y0063505D02*
X0023681Y0063505D01*
X0023681Y0064685D02*
X0024500Y0064685D01*
X0024500Y0065865D02*
X0023681Y0065865D01*
X0023681Y0067044D02*
X0007968Y0067044D01*
X0007968Y0065865D02*
X0019806Y0065865D01*
X0020253Y0064685D02*
X0007968Y0064685D01*
X0007968Y0063505D02*
X0021190Y0063505D01*
X0021487Y0059966D02*
X0007968Y0059966D01*
X0007968Y0058787D02*
X0020496Y0058787D01*
X0020008Y0057607D02*
X0007968Y0057607D01*
X0007968Y0056428D02*
X0020008Y0056428D01*
X0020313Y0055248D02*
X0007968Y0055248D01*
X0007968Y0054068D02*
X0021045Y0054068D01*
X0022856Y0052889D02*
X0007968Y0052889D01*
X0007968Y0049350D02*
X0099701Y0049350D01*
X0099701Y0048170D02*
X0007968Y0048170D01*
X0007968Y0046991D02*
X0099701Y0046991D01*
X0099701Y0045811D02*
X0007968Y0045811D01*
X0007968Y0044632D02*
X0099701Y0044632D01*
X0099701Y0043452D02*
X0095015Y0043452D01*
X0097290Y0042272D02*
X0099701Y0042272D01*
X0099701Y0041093D02*
X0098469Y0041093D01*
X0099100Y0039913D02*
X0099701Y0039913D01*
X0099701Y0038733D02*
X0099589Y0038733D01*
X0099701Y0037554D02*
X0099701Y0037554D01*
X0099701Y0036374D02*
X0099701Y0036374D01*
X0099701Y0035195D02*
X0099418Y0035195D01*
X0099701Y0034015D02*
X0098929Y0034015D01*
X0099701Y0032835D02*
X0098056Y0032835D01*
X0096866Y0031656D02*
X0099701Y0031656D01*
X0099701Y0052889D02*
X0062573Y0052889D01*
X0062573Y0054068D02*
X0099701Y0054068D01*
X0099701Y0055248D02*
X0090485Y0055248D01*
X0092495Y0056428D02*
X0099701Y0056428D01*
X0099701Y0057607D02*
X0093310Y0057607D01*
X0094091Y0059297D02*
X0096591Y0061797D01*
X0096591Y0089297D01*
X0081591Y0104297D01*
X0089091Y0111797D01*
X0089091Y0151797D01*
X0081591Y0159297D01*
X0056354Y0159297D01*
X0046354Y0149297D01*
X0046668Y0151976D02*
X0007968Y0151976D01*
X0007968Y0150797D02*
X0040941Y0150797D01*
X0040941Y0149617D02*
X0007968Y0149617D01*
X0007968Y0148438D02*
X0040941Y0148438D01*
X0041350Y0147258D02*
X0026903Y0147258D01*
X0026403Y0147758D02*
X0024903Y0148379D01*
X0023278Y0148379D01*
X0021778Y0147758D01*
X0020629Y0146609D01*
X0020008Y0145109D01*
X0020008Y0143484D01*
X0020629Y0141984D01*
X0021778Y0140835D01*
X0023278Y0140214D01*
X0024903Y0140214D01*
X0026403Y0140835D01*
X0027552Y0141984D01*
X0027817Y0142623D01*
X0040985Y0142623D01*
X0041575Y0142033D01*
X0051133Y0142033D01*
X0051768Y0142667D01*
X0051768Y0145926D01*
X0051133Y0146560D01*
X0041575Y0146560D01*
X0040985Y0145970D01*
X0027817Y0145970D01*
X0027552Y0146609D01*
X0026403Y0147758D01*
X0027772Y0146078D02*
X0041093Y0146078D01*
X0041068Y0142539D02*
X0027782Y0142539D01*
X0026928Y0141360D02*
X0041375Y0141360D01*
X0041575Y0141560D02*
X0040941Y0140926D01*
X0040941Y0137667D01*
X0041575Y0137033D01*
X0051133Y0137033D01*
X0051768Y0137667D01*
X0051768Y0140926D01*
X0051133Y0141560D01*
X0041575Y0141560D01*
X0040941Y0140180D02*
X0007968Y0140180D01*
X0007968Y0139001D02*
X0040941Y0139001D01*
X0040941Y0137821D02*
X0026688Y0137821D01*
X0026943Y0137636D02*
X0026385Y0138041D01*
X0025771Y0138354D01*
X0025116Y0138567D01*
X0024500Y0138664D01*
X0024500Y0134706D01*
X0023681Y0134706D01*
X0023681Y0133887D01*
X0019723Y0133887D01*
X0019820Y0133271D01*
X0020033Y0132616D01*
X0020346Y0132002D01*
X0020751Y0131444D01*
X0021238Y0130957D01*
X0021796Y0130552D01*
X0022410Y0130239D01*
X0023065Y0130026D01*
X0023681Y0129929D01*
X0023681Y0133887D01*
X0024500Y0133887D01*
X0024500Y0129929D01*
X0025116Y0130026D01*
X0025771Y0130239D01*
X0026385Y0130552D01*
X0026943Y0130957D01*
X0027430Y0131444D01*
X0027835Y0132002D01*
X0028148Y0132616D01*
X0028361Y0133271D01*
X0028458Y0133887D01*
X0024500Y0133887D01*
X0024500Y0134706D01*
X0028458Y0134706D01*
X0028361Y0135322D01*
X0028148Y0135977D01*
X0027835Y0136591D01*
X0027430Y0137149D01*
X0026943Y0137636D01*
X0027798Y0136641D02*
X0052417Y0136641D01*
X0051768Y0135926D02*
X0051133Y0136560D01*
X0041575Y0136560D01*
X0040941Y0135926D01*
X0040941Y0132667D01*
X0041575Y0132033D01*
X0051133Y0132033D01*
X0051768Y0132667D01*
X0051768Y0135926D01*
X0051768Y0135462D02*
X0052417Y0135462D01*
X0052417Y0134282D02*
X0051768Y0134282D01*
X0051768Y0133103D02*
X0052417Y0133103D01*
X0052417Y0131923D02*
X0027777Y0131923D01*
X0028306Y0133103D02*
X0040941Y0133103D01*
X0040941Y0134282D02*
X0024500Y0134282D01*
X0023681Y0134282D02*
X0007968Y0134282D01*
X0007968Y0133103D02*
X0019875Y0133103D01*
X0020404Y0131923D02*
X0007968Y0131923D01*
X0007968Y0130743D02*
X0021533Y0130743D01*
X0023681Y0130743D02*
X0024500Y0130743D01*
X0024500Y0131923D02*
X0023681Y0131923D01*
X0023681Y0133103D02*
X0024500Y0133103D01*
X0023681Y0134706D02*
X0019723Y0134706D01*
X0019820Y0135322D01*
X0020033Y0135977D01*
X0020346Y0136591D01*
X0020751Y0137149D01*
X0021238Y0137636D01*
X0021796Y0138041D01*
X0022410Y0138354D01*
X0023065Y0138567D01*
X0023681Y0138664D01*
X0023681Y0134706D01*
X0023681Y0135462D02*
X0024500Y0135462D01*
X0024500Y0136641D02*
X0023681Y0136641D01*
X0023681Y0137821D02*
X0024500Y0137821D01*
X0021493Y0137821D02*
X0007968Y0137821D01*
X0007968Y0136641D02*
X0020383Y0136641D01*
X0019866Y0135462D02*
X0007968Y0135462D01*
X0007968Y0129564D02*
X0052417Y0129564D01*
X0052417Y0130743D02*
X0026648Y0130743D01*
X0028315Y0135462D02*
X0040941Y0135462D01*
X0046354Y0144297D02*
X0024091Y0144297D01*
X0021253Y0141360D02*
X0007968Y0141360D01*
X0007968Y0142539D02*
X0020399Y0142539D01*
X0020008Y0143719D02*
X0007968Y0143719D01*
X0007968Y0144899D02*
X0020008Y0144899D01*
X0020410Y0146078D02*
X0007968Y0146078D01*
X0007968Y0147258D02*
X0021278Y0147258D01*
X0015757Y0164533D02*
X0013172Y0164533D01*
X0010785Y0165522D01*
X0008957Y0167349D01*
X0007969Y0169737D01*
X0007969Y0172321D01*
X0008957Y0174709D01*
X0010785Y0176536D01*
X0013172Y0177525D01*
X0015757Y0177525D01*
X0018144Y0176536D01*
X0019972Y0174709D01*
X0020961Y0172321D01*
X0020961Y0169737D01*
X0019972Y0167349D01*
X0018144Y0165522D01*
X0015757Y0164533D01*
X0016769Y0164952D02*
X0090900Y0164952D01*
X0091913Y0164533D02*
X0094497Y0164533D01*
X0096884Y0165522D01*
X0098712Y0167349D01*
X0099701Y0169737D01*
X0099701Y0172321D01*
X0098712Y0174709D01*
X0096884Y0176536D01*
X0094497Y0177525D01*
X0091913Y0177525D01*
X0089525Y0176536D01*
X0087698Y0174709D01*
X0086709Y0172321D01*
X0086709Y0169737D01*
X0087698Y0167349D01*
X0089525Y0165522D01*
X0091913Y0164533D01*
X0088915Y0166132D02*
X0018754Y0166132D01*
X0019934Y0167311D02*
X0087735Y0167311D01*
X0087225Y0168491D02*
X0020445Y0168491D01*
X0020933Y0169671D02*
X0086736Y0169671D01*
X0086709Y0170850D02*
X0020961Y0170850D01*
X0020961Y0172030D02*
X0022877Y0172030D01*
X0022878Y0172029D02*
X0023344Y0171836D01*
X0023838Y0171737D01*
X0024090Y0171737D01*
X0024090Y0174296D01*
X0024091Y0174296D01*
X0024091Y0171737D01*
X0024343Y0171737D01*
X0024837Y0171836D01*
X0025303Y0172029D01*
X0025722Y0172309D01*
X0026078Y0172665D01*
X0026358Y0173084D01*
X0026551Y0173550D01*
X0026591Y0173748D01*
X0026630Y0173550D01*
X0026823Y0173084D01*
X0027103Y0172665D01*
X0027459Y0172309D01*
X0027878Y0172029D01*
X0028344Y0171836D01*
X0028838Y0171737D01*
X0029090Y0171737D01*
X0029090Y0174296D01*
X0029091Y0174296D01*
X0029091Y0171737D01*
X0029343Y0171737D01*
X0029837Y0171836D01*
X0030303Y0172029D01*
X0030722Y0172309D01*
X0031078Y0172665D01*
X0031358Y0173084D01*
X0031551Y0173550D01*
X0031591Y0173748D01*
X0031630Y0173550D01*
X0031823Y0173084D01*
X0032103Y0172665D01*
X0032459Y0172309D01*
X0032878Y0172029D01*
X0033344Y0171836D01*
X0033838Y0171737D01*
X0034090Y0171737D01*
X0034090Y0174296D01*
X0034091Y0174296D01*
X0034091Y0171737D01*
X0034343Y0171737D01*
X0034837Y0171836D01*
X0035303Y0172029D01*
X0035722Y0172309D01*
X0036078Y0172665D01*
X0036358Y0173084D01*
X0036551Y0173550D01*
X0036591Y0173748D01*
X0036630Y0173550D01*
X0036823Y0173084D01*
X0037103Y0172665D01*
X0037459Y0172309D01*
X0037878Y0172029D01*
X0038344Y0171836D01*
X0038838Y0171737D01*
X0039090Y0171737D01*
X0039090Y0174296D01*
X0039091Y0174296D01*
X0039091Y0171737D01*
X0039343Y0171737D01*
X0039837Y0171836D01*
X0040303Y0172029D01*
X0040722Y0172309D01*
X0041078Y0172665D01*
X0041358Y0173084D01*
X0041551Y0173550D01*
X0041591Y0173748D01*
X0041630Y0173550D01*
X0041823Y0173084D01*
X0042103Y0172665D01*
X0042459Y0172309D01*
X0042878Y0172029D01*
X0043344Y0171836D01*
X0043838Y0171737D01*
X0044090Y0171737D01*
X0044090Y0174296D01*
X0044091Y0174296D01*
X0044091Y0171737D01*
X0044343Y0171737D01*
X0044837Y0171836D01*
X0045303Y0172029D01*
X0045722Y0172309D01*
X0046078Y0172665D01*
X0046358Y0173084D01*
X0046551Y0173550D01*
X0046591Y0173748D01*
X0046630Y0173550D01*
X0046823Y0173084D01*
X0047103Y0172665D01*
X0047459Y0172309D01*
X0047878Y0172029D01*
X0048344Y0171836D01*
X0048838Y0171737D01*
X0049090Y0171737D01*
X0049090Y0174296D01*
X0049091Y0174296D01*
X0049091Y0171737D01*
X0049343Y0171737D01*
X0049837Y0171836D01*
X0050303Y0172029D01*
X0050722Y0172309D01*
X0051078Y0172665D01*
X0051358Y0173084D01*
X0051551Y0173550D01*
X0051591Y0173748D01*
X0051630Y0173550D01*
X0051823Y0173084D01*
X0052103Y0172665D01*
X0052459Y0172309D01*
X0052878Y0172029D01*
X0053344Y0171836D01*
X0053838Y0171737D01*
X0054090Y0171737D01*
X0054090Y0174296D01*
X0054091Y0174296D01*
X0054091Y0171737D01*
X0054343Y0171737D01*
X0054837Y0171836D01*
X0055303Y0172029D01*
X0055722Y0172309D01*
X0056078Y0172665D01*
X0056358Y0173084D01*
X0056551Y0173550D01*
X0056591Y0173748D01*
X0056630Y0173550D01*
X0056823Y0173084D01*
X0057103Y0172665D01*
X0057459Y0172309D01*
X0057878Y0172029D01*
X0058344Y0171836D01*
X0058838Y0171737D01*
X0059090Y0171737D01*
X0059090Y0174296D01*
X0059091Y0174296D01*
X0059091Y0171737D01*
X0059343Y0171737D01*
X0059837Y0171836D01*
X0060303Y0172029D01*
X0060722Y0172309D01*
X0061078Y0172665D01*
X0061358Y0173084D01*
X0061551Y0173550D01*
X0061591Y0173748D01*
X0061630Y0173550D01*
X0061823Y0173084D01*
X0062103Y0172665D01*
X0062459Y0172309D01*
X0062878Y0172029D01*
X0063344Y0171836D01*
X0063838Y0171737D01*
X0064090Y0171737D01*
X0064090Y0174296D01*
X0064091Y0174296D01*
X0064091Y0171737D01*
X0064343Y0171737D01*
X0064837Y0171836D01*
X0065303Y0172029D01*
X0065722Y0172309D01*
X0066078Y0172665D01*
X0066358Y0173084D01*
X0066551Y0173550D01*
X0066591Y0173748D01*
X0066630Y0173550D01*
X0066823Y0173084D01*
X0067103Y0172665D01*
X0067459Y0172309D01*
X0067878Y0172029D01*
X0068344Y0171836D01*
X0068838Y0171737D01*
X0069090Y0171737D01*
X0069090Y0174296D01*
X0069091Y0174296D01*
X0069091Y0171737D01*
X0069343Y0171737D01*
X0069837Y0171836D01*
X0070303Y0172029D01*
X0070722Y0172309D01*
X0071078Y0172665D01*
X0071358Y0173084D01*
X0071551Y0173550D01*
X0071591Y0173748D01*
X0071630Y0173550D01*
X0071823Y0173084D01*
X0072103Y0172665D01*
X0072459Y0172309D01*
X0072878Y0172029D01*
X0073344Y0171836D01*
X0073838Y0171737D01*
X0074090Y0171737D01*
X0074090Y0174296D01*
X0074091Y0174296D01*
X0074091Y0171737D01*
X0074343Y0171737D01*
X0074837Y0171836D01*
X0075303Y0172029D01*
X0075722Y0172309D01*
X0076078Y0172665D01*
X0076358Y0173084D01*
X0076551Y0173550D01*
X0076591Y0173748D01*
X0076630Y0173550D01*
X0076823Y0173084D01*
X0077103Y0172665D01*
X0077459Y0172309D01*
X0077878Y0172029D01*
X0078344Y0171836D01*
X0078838Y0171737D01*
X0079090Y0171737D01*
X0079090Y0174296D01*
X0079091Y0174296D01*
X0079091Y0171737D01*
X0079343Y0171737D01*
X0079837Y0171836D01*
X0080303Y0172029D01*
X0080722Y0172309D01*
X0081078Y0172665D01*
X0081358Y0173084D01*
X0081551Y0173550D01*
X0081591Y0173748D01*
X0081630Y0173550D01*
X0081823Y0173084D01*
X0082103Y0172665D01*
X0082459Y0172309D01*
X0082878Y0172029D01*
X0083344Y0171836D01*
X0083838Y0171737D01*
X0084090Y0171737D01*
X0084090Y0174296D01*
X0084091Y0174296D01*
X0084091Y0174297D01*
X0084090Y0174297D01*
X0084090Y0176856D01*
X0083838Y0176856D01*
X0083344Y0176757D01*
X0082878Y0176564D01*
X0082459Y0176284D01*
X0082103Y0175928D01*
X0081823Y0175509D01*
X0081630Y0175043D01*
X0081591Y0174845D01*
X0081551Y0175043D01*
X0081358Y0175509D01*
X0081078Y0175928D01*
X0080722Y0176284D01*
X0080303Y0176564D01*
X0079837Y0176757D01*
X0079343Y0176856D01*
X0079091Y0176856D01*
X0079091Y0174297D01*
X0079090Y0174297D01*
X0079090Y0176856D01*
X0078838Y0176856D01*
X0078344Y0176757D01*
X0077878Y0176564D01*
X0077459Y0176284D01*
X0077103Y0175928D01*
X0076823Y0175509D01*
X0076630Y0175043D01*
X0076591Y0174845D01*
X0076551Y0175043D01*
X0076358Y0175509D01*
X0076078Y0175928D01*
X0075722Y0176284D01*
X0075303Y0176564D01*
X0074837Y0176757D01*
X0074343Y0176856D01*
X0074091Y0176856D01*
X0074091Y0174297D01*
X0074090Y0174297D01*
X0074090Y0176856D01*
X0073838Y0176856D01*
X0073344Y0176757D01*
X0072878Y0176564D01*
X0072459Y0176284D01*
X0072103Y0175928D01*
X0071823Y0175509D01*
X0071630Y0175043D01*
X0071591Y0174845D01*
X0071551Y0175043D01*
X0071358Y0175509D01*
X0071078Y0175928D01*
X0070722Y0176284D01*
X0070303Y0176564D01*
X0069837Y0176757D01*
X0069343Y0176856D01*
X0069091Y0176856D01*
X0069091Y0174297D01*
X0069090Y0174297D01*
X0069090Y0176856D01*
X0068838Y0176856D01*
X0068344Y0176757D01*
X0067878Y0176564D01*
X0067459Y0176284D01*
X0067103Y0175928D01*
X0066823Y0175509D01*
X0066630Y0175043D01*
X0066591Y0174845D01*
X0066551Y0175043D01*
X0066358Y0175509D01*
X0066078Y0175928D01*
X0065722Y0176284D01*
X0065303Y0176564D01*
X0064837Y0176757D01*
X0064343Y0176856D01*
X0064091Y0176856D01*
X0064091Y0174297D01*
X0064090Y0174297D01*
X0064090Y0176856D01*
X0063838Y0176856D01*
X0063344Y0176757D01*
X0062878Y0176564D01*
X0062459Y0176284D01*
X0062103Y0175928D01*
X0061823Y0175509D01*
X0061630Y0175043D01*
X0061591Y0174845D01*
X0061551Y0175043D01*
X0061358Y0175509D01*
X0061078Y0175928D01*
X0060722Y0176284D01*
X0060303Y0176564D01*
X0059837Y0176757D01*
X0059343Y0176856D01*
X0059091Y0176856D01*
X0059091Y0174297D01*
X0059090Y0174297D01*
X0059090Y0176856D01*
X0058838Y0176856D01*
X0058344Y0176757D01*
X0057878Y0176564D01*
X0057459Y0176284D01*
X0057103Y0175928D01*
X0056823Y0175509D01*
X0056630Y0175043D01*
X0056591Y0174845D01*
X0056551Y0175043D01*
X0056358Y0175509D01*
X0056078Y0175928D01*
X0055722Y0176284D01*
X0055303Y0176564D01*
X0054837Y0176757D01*
X0054343Y0176856D01*
X0054091Y0176856D01*
X0054091Y0174297D01*
X0054090Y0174297D01*
X0054090Y0176856D01*
X0053838Y0176856D01*
X0053344Y0176757D01*
X0052878Y0176564D01*
X0052459Y0176284D01*
X0052103Y0175928D01*
X0051823Y0175509D01*
X0051630Y0175043D01*
X0051591Y0174845D01*
X0051551Y0175043D01*
X0051358Y0175509D01*
X0051078Y0175928D01*
X0050722Y0176284D01*
X0050303Y0176564D01*
X0049837Y0176757D01*
X0049343Y0176856D01*
X0049091Y0176856D01*
X0049091Y0174297D01*
X0049090Y0174297D01*
X0049090Y0176856D01*
X0048838Y0176856D01*
X0048344Y0176757D01*
X0047878Y0176564D01*
X0047459Y0176284D01*
X0047103Y0175928D01*
X0046823Y0175509D01*
X0046630Y0175043D01*
X0046591Y0174845D01*
X0046551Y0175043D01*
X0046358Y0175509D01*
X0046078Y0175928D01*
X0045722Y0176284D01*
X0045303Y0176564D01*
X0044837Y0176757D01*
X0044343Y0176856D01*
X0044091Y0176856D01*
X0044091Y0174297D01*
X0044090Y0174297D01*
X0044090Y0176856D01*
X0043838Y0176856D01*
X0043344Y0176757D01*
X0042878Y0176564D01*
X0042459Y0176284D01*
X0042103Y0175928D01*
X0041823Y0175509D01*
X0041630Y0175043D01*
X0041591Y0174845D01*
X0041551Y0175043D01*
X0041358Y0175509D01*
X0041078Y0175928D01*
X0040722Y0176284D01*
X0040303Y0176564D01*
X0039837Y0176757D01*
X0039343Y0176856D01*
X0039091Y0176856D01*
X0039091Y0174297D01*
X0039090Y0174297D01*
X0039090Y0176856D01*
X0038838Y0176856D01*
X0038344Y0176757D01*
X0037878Y0176564D01*
X0037459Y0176284D01*
X0037103Y0175928D01*
X0036823Y0175509D01*
X0036630Y0175043D01*
X0036591Y0174845D01*
X0036551Y0175043D01*
X0036358Y0175509D01*
X0036078Y0175928D01*
X0035722Y0176284D01*
X0035303Y0176564D01*
X0034837Y0176757D01*
X0034343Y0176856D01*
X0034091Y0176856D01*
X0034091Y0174297D01*
X0034090Y0174297D01*
X0034090Y0176856D01*
X0033838Y0176856D01*
X0033344Y0176757D01*
X0032878Y0176564D01*
X0032459Y0176284D01*
X0032103Y0175928D01*
X0031823Y0175509D01*
X0031630Y0175043D01*
X0031591Y0174845D01*
X0031551Y0175043D01*
X0031358Y0175509D01*
X0031078Y0175928D01*
X0030722Y0176284D01*
X0030303Y0176564D01*
X0029837Y0176757D01*
X0029343Y0176856D01*
X0029091Y0176856D01*
X0029091Y0174297D01*
X0029090Y0174297D01*
X0029090Y0176856D01*
X0028838Y0176856D01*
X0028344Y0176757D01*
X0027878Y0176564D01*
X0027459Y0176284D01*
X0027103Y0175928D01*
X0026823Y0175509D01*
X0026630Y0175043D01*
X0026591Y0174845D01*
X0026551Y0175043D01*
X0026358Y0175509D01*
X0026078Y0175928D01*
X0025722Y0176284D01*
X0025303Y0176564D01*
X0024837Y0176757D01*
X0024343Y0176856D01*
X0024091Y0176856D01*
X0024091Y0174297D01*
X0024090Y0174297D01*
X0024090Y0176856D01*
X0023838Y0176856D01*
X0023344Y0176757D01*
X0022878Y0176564D01*
X0022459Y0176284D01*
X0022103Y0175928D01*
X0021823Y0175509D01*
X0021630Y0175043D01*
X0021531Y0174549D01*
X0021531Y0174297D01*
X0024090Y0174297D01*
X0024090Y0174296D01*
X0021531Y0174296D01*
X0021531Y0174044D01*
X0021630Y0173550D01*
X0021823Y0173084D01*
X0022103Y0172665D01*
X0022459Y0172309D01*
X0022878Y0172029D01*
X0024090Y0172030D02*
X0024091Y0172030D01*
X0024090Y0173209D02*
X0024091Y0173209D01*
X0024091Y0174296D02*
X0024091Y0174297D01*
X0026650Y0174297D01*
X0029090Y0174297D01*
X0029090Y0174296D01*
X0024091Y0174296D01*
X0024090Y0174389D02*
X0024091Y0174389D01*
X0024090Y0175569D02*
X0024091Y0175569D01*
X0024090Y0176748D02*
X0024091Y0176748D01*
X0024859Y0176748D02*
X0028322Y0176748D01*
X0029090Y0176748D02*
X0029091Y0176748D01*
X0029859Y0176748D02*
X0033322Y0176748D01*
X0034090Y0176748D02*
X0034091Y0176748D01*
X0034859Y0176748D02*
X0038322Y0176748D01*
X0039090Y0176748D02*
X0039091Y0176748D01*
X0039859Y0176748D02*
X0043322Y0176748D01*
X0044090Y0176748D02*
X0044091Y0176748D01*
X0044859Y0176748D02*
X0048322Y0176748D01*
X0049090Y0176748D02*
X0049091Y0176748D01*
X0049859Y0176748D02*
X0053322Y0176748D01*
X0054090Y0176748D02*
X0054091Y0176748D01*
X0054859Y0176748D02*
X0058322Y0176748D01*
X0059090Y0176748D02*
X0059091Y0176748D01*
X0059859Y0176748D02*
X0063322Y0176748D01*
X0064090Y0176748D02*
X0064091Y0176748D01*
X0064859Y0176748D02*
X0068322Y0176748D01*
X0069090Y0176748D02*
X0069091Y0176748D01*
X0069859Y0176748D02*
X0073322Y0176748D01*
X0074090Y0176748D02*
X0074091Y0176748D01*
X0074859Y0176748D02*
X0078322Y0176748D01*
X0079090Y0176748D02*
X0079091Y0176748D01*
X0079859Y0176748D02*
X0083322Y0176748D01*
X0084090Y0176748D02*
X0084091Y0176748D01*
X0084091Y0176856D02*
X0084091Y0174297D01*
X0086650Y0174297D01*
X0086650Y0174549D01*
X0086551Y0175043D01*
X0086358Y0175509D01*
X0086078Y0175928D01*
X0085722Y0176284D01*
X0085303Y0176564D01*
X0084837Y0176757D01*
X0084343Y0176856D01*
X0084091Y0176856D01*
X0084859Y0176748D02*
X0090038Y0176748D01*
X0088558Y0175569D02*
X0086318Y0175569D01*
X0086650Y0174389D02*
X0087565Y0174389D01*
X0086650Y0174296D02*
X0084091Y0174296D01*
X0084091Y0171737D01*
X0084343Y0171737D01*
X0084837Y0171836D01*
X0085303Y0172029D01*
X0085722Y0172309D01*
X0086078Y0172665D01*
X0086358Y0173084D01*
X0086551Y0173550D01*
X0086650Y0174044D01*
X0086650Y0174296D01*
X0086410Y0173209D02*
X0087077Y0173209D01*
X0086709Y0172030D02*
X0085304Y0172030D01*
X0084091Y0172030D02*
X0084090Y0172030D01*
X0084090Y0173209D02*
X0084091Y0173209D01*
X0084090Y0174296D02*
X0079091Y0174296D01*
X0079091Y0174297D01*
X0081650Y0174297D01*
X0084090Y0174297D01*
X0084090Y0174296D01*
X0084090Y0174389D02*
X0084091Y0174389D01*
X0084090Y0175569D02*
X0084091Y0175569D01*
X0081863Y0175569D02*
X0081318Y0175569D01*
X0079091Y0175569D02*
X0079090Y0175569D01*
X0079090Y0174389D02*
X0079091Y0174389D01*
X0079090Y0174297D02*
X0079090Y0174296D01*
X0074091Y0174296D01*
X0074091Y0174297D01*
X0076650Y0174297D01*
X0079090Y0174297D01*
X0079090Y0173209D02*
X0079091Y0173209D01*
X0079090Y0172030D02*
X0079091Y0172030D01*
X0080304Y0172030D02*
X0082877Y0172030D01*
X0081771Y0173209D02*
X0081410Y0173209D01*
X0077877Y0172030D02*
X0075304Y0172030D01*
X0074091Y0172030D02*
X0074090Y0172030D01*
X0074090Y0173209D02*
X0074091Y0173209D01*
X0074090Y0174296D02*
X0069091Y0174296D01*
X0069091Y0174297D01*
X0071650Y0174297D01*
X0074090Y0174297D01*
X0074090Y0174296D01*
X0074090Y0174389D02*
X0074091Y0174389D01*
X0074090Y0175569D02*
X0074091Y0175569D01*
X0076318Y0175569D02*
X0076863Y0175569D01*
X0076771Y0173209D02*
X0076410Y0173209D01*
X0072877Y0172030D02*
X0070304Y0172030D01*
X0069091Y0172030D02*
X0069090Y0172030D01*
X0069090Y0173209D02*
X0069091Y0173209D01*
X0069090Y0174296D02*
X0064091Y0174296D01*
X0064091Y0174297D01*
X0066650Y0174297D01*
X0069090Y0174297D01*
X0069090Y0174296D01*
X0069090Y0174389D02*
X0069091Y0174389D01*
X0069090Y0175569D02*
X0069091Y0175569D01*
X0071318Y0175569D02*
X0071863Y0175569D01*
X0071771Y0173209D02*
X0071410Y0173209D01*
X0067877Y0172030D02*
X0065304Y0172030D01*
X0064091Y0172030D02*
X0064090Y0172030D01*
X0064090Y0173209D02*
X0064091Y0173209D01*
X0064090Y0174296D02*
X0059091Y0174296D01*
X0059091Y0174297D01*
X0061650Y0174297D01*
X0064090Y0174297D01*
X0064090Y0174296D01*
X0064090Y0174389D02*
X0064091Y0174389D01*
X0064090Y0175569D02*
X0064091Y0175569D01*
X0066318Y0175569D02*
X0066863Y0175569D01*
X0066771Y0173209D02*
X0066410Y0173209D01*
X0062877Y0172030D02*
X0060304Y0172030D01*
X0059091Y0172030D02*
X0059090Y0172030D01*
X0059090Y0173209D02*
X0059091Y0173209D01*
X0059090Y0174296D02*
X0054091Y0174296D01*
X0054091Y0174297D01*
X0056650Y0174297D01*
X0059090Y0174297D01*
X0059090Y0174296D01*
X0059090Y0174389D02*
X0059091Y0174389D01*
X0059090Y0175569D02*
X0059091Y0175569D01*
X0061318Y0175569D02*
X0061863Y0175569D01*
X0061771Y0173209D02*
X0061410Y0173209D01*
X0057877Y0172030D02*
X0055304Y0172030D01*
X0054091Y0172030D02*
X0054090Y0172030D01*
X0054090Y0173209D02*
X0054091Y0173209D01*
X0054090Y0174296D02*
X0049091Y0174296D01*
X0049091Y0174297D01*
X0051531Y0174297D01*
X0054090Y0174297D01*
X0054090Y0174296D01*
X0054090Y0174389D02*
X0054091Y0174389D01*
X0054090Y0175569D02*
X0054091Y0175569D01*
X0056318Y0175569D02*
X0056863Y0175569D01*
X0056771Y0173209D02*
X0056410Y0173209D01*
X0052877Y0172030D02*
X0050304Y0172030D01*
X0049091Y0172030D02*
X0049090Y0172030D01*
X0049090Y0173209D02*
X0049091Y0173209D01*
X0049090Y0174296D02*
X0044091Y0174296D01*
X0044091Y0174297D01*
X0046531Y0174297D01*
X0049090Y0174297D01*
X0049090Y0174296D01*
X0049090Y0174389D02*
X0049091Y0174389D01*
X0049090Y0175569D02*
X0049091Y0175569D01*
X0051318Y0175569D02*
X0051863Y0175569D01*
X0051771Y0173209D02*
X0051410Y0173209D01*
X0047877Y0172030D02*
X0045304Y0172030D01*
X0044091Y0172030D02*
X0044090Y0172030D01*
X0044090Y0173209D02*
X0044091Y0173209D01*
X0044090Y0174296D02*
X0039091Y0174296D01*
X0039091Y0174297D01*
X0041650Y0174297D01*
X0044090Y0174297D01*
X0044090Y0174296D01*
X0044090Y0174389D02*
X0044091Y0174389D01*
X0044090Y0175569D02*
X0044091Y0175569D01*
X0046318Y0175569D02*
X0046863Y0175569D01*
X0046771Y0173209D02*
X0046410Y0173209D01*
X0042877Y0172030D02*
X0040304Y0172030D01*
X0039091Y0172030D02*
X0039090Y0172030D01*
X0039090Y0173209D02*
X0039091Y0173209D01*
X0039090Y0174296D02*
X0034091Y0174296D01*
X0034091Y0174297D01*
X0036650Y0174297D01*
X0039090Y0174297D01*
X0039090Y0174296D01*
X0039090Y0174389D02*
X0039091Y0174389D01*
X0039090Y0175569D02*
X0039091Y0175569D01*
X0041318Y0175569D02*
X0041863Y0175569D01*
X0041771Y0173209D02*
X0041410Y0173209D01*
X0037877Y0172030D02*
X0035304Y0172030D01*
X0034091Y0172030D02*
X0034090Y0172030D01*
X0034090Y0173209D02*
X0034091Y0173209D01*
X0034090Y0174296D02*
X0029091Y0174296D01*
X0029091Y0174297D01*
X0031650Y0174297D01*
X0034090Y0174297D01*
X0034090Y0174296D01*
X0034090Y0174389D02*
X0034091Y0174389D01*
X0034090Y0175569D02*
X0034091Y0175569D01*
X0036318Y0175569D02*
X0036863Y0175569D01*
X0036771Y0173209D02*
X0036410Y0173209D01*
X0032877Y0172030D02*
X0030304Y0172030D01*
X0031410Y0173209D02*
X0031771Y0173209D01*
X0031863Y0175569D02*
X0031318Y0175569D01*
X0029091Y0175569D02*
X0029090Y0175569D01*
X0029090Y0174389D02*
X0029091Y0174389D01*
X0029090Y0173209D02*
X0029091Y0173209D01*
X0029090Y0172030D02*
X0029091Y0172030D01*
X0027877Y0172030D02*
X0025304Y0172030D01*
X0026410Y0173209D02*
X0026771Y0173209D01*
X0026863Y0175569D02*
X0026318Y0175569D01*
X0023322Y0176748D02*
X0017632Y0176748D01*
X0019112Y0175569D02*
X0021863Y0175569D01*
X0021531Y0174389D02*
X0020104Y0174389D01*
X0020593Y0173209D02*
X0021771Y0173209D01*
X0012160Y0164952D02*
X0007968Y0164952D01*
X0007968Y0163772D02*
X0099701Y0163772D01*
X0099701Y0162593D02*
X0083219Y0162593D01*
X0084399Y0161413D02*
X0099701Y0161413D01*
X0099701Y0160234D02*
X0085073Y0160234D01*
X0085073Y0159054D02*
X0099701Y0159054D01*
X0099701Y0157874D02*
X0085379Y0157874D01*
X0086559Y0156695D02*
X0099701Y0156695D01*
X0099701Y0155515D02*
X0087738Y0155515D01*
X0088918Y0154336D02*
X0099701Y0154336D01*
X0099701Y0153156D02*
X0090097Y0153156D01*
X0090764Y0151976D02*
X0099701Y0151976D01*
X0099701Y0150797D02*
X0090764Y0150797D01*
X0090764Y0149617D02*
X0099701Y0149617D01*
X0099701Y0148438D02*
X0090764Y0148438D01*
X0090764Y0147258D02*
X0099701Y0147258D01*
X0099701Y0146078D02*
X0090764Y0146078D01*
X0090764Y0144899D02*
X0099701Y0144899D01*
X0099701Y0143719D02*
X0090764Y0143719D01*
X0090764Y0142539D02*
X0099701Y0142539D01*
X0099701Y0141360D02*
X0090764Y0141360D01*
X0090764Y0140180D02*
X0099701Y0140180D01*
X0099701Y0139001D02*
X0090764Y0139001D01*
X0090764Y0137821D02*
X0099701Y0137821D01*
X0099701Y0136641D02*
X0090764Y0136641D01*
X0090764Y0135462D02*
X0099701Y0135462D01*
X0099701Y0134282D02*
X0090764Y0134282D01*
X0090764Y0133103D02*
X0099701Y0133103D01*
X0099701Y0131923D02*
X0090764Y0131923D01*
X0090764Y0130743D02*
X0099701Y0130743D01*
X0099701Y0129564D02*
X0090764Y0129564D01*
X0090764Y0128384D02*
X0099701Y0128384D01*
X0099701Y0127204D02*
X0090764Y0127204D01*
X0090764Y0126025D02*
X0099701Y0126025D01*
X0099701Y0124845D02*
X0090764Y0124845D01*
X0090764Y0123666D02*
X0099701Y0123666D01*
X0099701Y0122486D02*
X0090764Y0122486D01*
X0090764Y0121306D02*
X0099701Y0121306D01*
X0099701Y0120127D02*
X0090764Y0120127D01*
X0090764Y0118947D02*
X0099701Y0118947D01*
X0099701Y0117768D02*
X0090764Y0117768D01*
X0090764Y0116588D02*
X0099701Y0116588D01*
X0099701Y0115408D02*
X0090764Y0115408D01*
X0090764Y0114229D02*
X0099701Y0114229D01*
X0099701Y0113049D02*
X0090764Y0113049D01*
X0090764Y0111869D02*
X0099701Y0111869D01*
X0099701Y0110690D02*
X0090350Y0110690D01*
X0089171Y0109510D02*
X0099701Y0109510D01*
X0099701Y0108331D02*
X0087991Y0108331D01*
X0086811Y0107151D02*
X0099701Y0107151D01*
X0099701Y0105971D02*
X0085823Y0105971D01*
X0085823Y0104792D02*
X0099701Y0104792D01*
X0099701Y0103612D02*
X0085823Y0103612D01*
X0085821Y0102433D02*
X0099701Y0102433D01*
X0099701Y0101253D02*
X0087000Y0101253D01*
X0088180Y0100073D02*
X0099701Y0100073D01*
X0099701Y0098894D02*
X0089360Y0098894D01*
X0090539Y0097714D02*
X0099701Y0097714D01*
X0099701Y0096535D02*
X0091719Y0096535D01*
X0092898Y0095355D02*
X0099701Y0095355D01*
X0099701Y0094175D02*
X0094078Y0094175D01*
X0092884Y0090636D02*
X0070368Y0090636D01*
X0070368Y0090232D02*
X0070368Y0091587D01*
X0066800Y0091587D01*
X0066800Y0088019D01*
X0068155Y0088019D01*
X0070368Y0090232D01*
X0069594Y0089457D02*
X0094064Y0089457D01*
X0094917Y0088277D02*
X0068414Y0088277D01*
X0066800Y0088277D02*
X0066381Y0088277D01*
X0066381Y0088019D02*
X0066381Y0091587D01*
X0062813Y0091587D01*
X0062813Y0090232D01*
X0065026Y0088019D01*
X0066381Y0088019D01*
X0066381Y0089457D02*
X0066800Y0089457D01*
X0066800Y0090636D02*
X0066381Y0090636D01*
X0066381Y0091587D02*
X0066800Y0091587D01*
X0066800Y0092006D01*
X0066381Y0092006D01*
X0066381Y0091587D01*
X0066381Y0091816D02*
X0050073Y0091816D01*
X0050073Y0092996D02*
X0062813Y0092996D01*
X0062813Y0093361D02*
X0062813Y0092006D01*
X0066381Y0092006D01*
X0066381Y0095574D01*
X0065026Y0095574D01*
X0062813Y0093361D01*
X0063626Y0094175D02*
X0049137Y0094175D01*
X0048264Y0095355D02*
X0064806Y0095355D01*
X0066381Y0095355D02*
X0066800Y0095355D01*
X0066800Y0095574D02*
X0066800Y0092006D01*
X0070368Y0092006D01*
X0070368Y0093361D01*
X0068155Y0095574D01*
X0066800Y0095574D01*
X0066800Y0094175D02*
X0066381Y0094175D01*
X0066381Y0092996D02*
X0066800Y0092996D01*
X0066800Y0091816D02*
X0091705Y0091816D01*
X0090525Y0092996D02*
X0070368Y0092996D01*
X0069555Y0094175D02*
X0089345Y0094175D01*
X0088166Y0095355D02*
X0068375Y0095355D01*
X0064767Y0088277D02*
X0052476Y0088277D01*
X0053656Y0087098D02*
X0056966Y0087098D01*
X0056591Y0084297D02*
X0059091Y0084297D01*
X0054091Y0084297D01*
X0046591Y0091797D01*
X0046591Y0101797D01*
X0054091Y0109297D01*
X0054091Y0141797D01*
X0056591Y0144297D01*
X0066827Y0144297D01*
X0066827Y0146737D02*
X0071339Y0146737D01*
X0071689Y0146831D01*
X0072004Y0147013D01*
X0072260Y0147269D01*
X0072442Y0147584D01*
X0072535Y0147934D01*
X0072535Y0149296D01*
X0066827Y0149296D01*
X0066827Y0146737D01*
X0066827Y0149296D01*
X0066827Y0149296D01*
X0066827Y0149297D01*
X0066827Y0149297D01*
X0066827Y0151856D01*
X0071339Y0151856D01*
X0071689Y0151762D01*
X0072004Y0151580D01*
X0072260Y0151324D01*
X0072442Y0151009D01*
X0072535Y0150659D01*
X0072535Y0149297D01*
X0066827Y0149297D01*
X0066827Y0151856D01*
X0062315Y0151856D01*
X0061964Y0151762D01*
X0061650Y0151580D01*
X0061393Y0151324D01*
X0061212Y0151009D01*
X0061118Y0150659D01*
X0061118Y0149297D01*
X0066827Y0149297D01*
X0066827Y0149296D01*
X0061118Y0149296D01*
X0061118Y0147934D01*
X0061212Y0147584D01*
X0061393Y0147269D01*
X0061650Y0147013D01*
X0061964Y0146831D01*
X0062315Y0146737D01*
X0066827Y0146737D01*
X0066827Y0147258D02*
X0066827Y0147258D01*
X0066827Y0148438D02*
X0066827Y0148438D01*
X0066827Y0149617D02*
X0066827Y0149617D01*
X0066827Y0150797D02*
X0066827Y0150797D01*
X0061155Y0150797D02*
X0051768Y0150797D01*
X0051768Y0149617D02*
X0061118Y0149617D01*
X0061118Y0148438D02*
X0051768Y0148438D01*
X0051359Y0147258D02*
X0061405Y0147258D01*
X0061566Y0146078D02*
X0051616Y0146078D01*
X0051768Y0144899D02*
X0054826Y0144899D01*
X0053647Y0143719D02*
X0051768Y0143719D01*
X0051640Y0142539D02*
X0052467Y0142539D01*
X0052417Y0141360D02*
X0051334Y0141360D01*
X0051768Y0140180D02*
X0052417Y0140180D01*
X0052417Y0139001D02*
X0051768Y0139001D01*
X0051768Y0137821D02*
X0052417Y0137821D01*
X0055764Y0137821D02*
X0061413Y0137821D01*
X0061413Y0137667D02*
X0062048Y0137033D01*
X0071488Y0137033D01*
X0071854Y0136666D01*
X0071689Y0136762D01*
X0071339Y0136856D01*
X0066827Y0136856D01*
X0066827Y0134297D01*
X0066827Y0134297D01*
X0066827Y0136856D01*
X0062315Y0136856D01*
X0061964Y0136762D01*
X0061650Y0136580D01*
X0061393Y0136324D01*
X0061212Y0136009D01*
X0061118Y0135659D01*
X0061118Y0134297D01*
X0066827Y0134297D01*
X0066827Y0134296D01*
X0066827Y0131737D01*
X0071339Y0131737D01*
X0071689Y0131831D01*
X0072004Y0132013D01*
X0072260Y0132269D01*
X0072417Y0132542D01*
X0072417Y0129990D01*
X0067707Y0125279D01*
X0065148Y0125279D01*
X0063108Y0123239D01*
X0063108Y0120354D01*
X0065148Y0118314D01*
X0068033Y0118314D01*
X0070073Y0120354D01*
X0070073Y0122913D01*
X0074784Y0127623D01*
X0078339Y0127623D01*
X0080148Y0125814D01*
X0083033Y0125814D01*
X0085073Y0127854D01*
X0085073Y0130739D01*
X0083033Y0132779D01*
X0080148Y0132779D01*
X0078339Y0130970D01*
X0075764Y0130970D01*
X0075764Y0137490D01*
X0074784Y0138470D01*
X0072284Y0140970D01*
X0072196Y0140970D01*
X0071606Y0141560D01*
X0062048Y0141560D01*
X0061413Y0140926D01*
X0061413Y0137667D01*
X0061756Y0136641D02*
X0055764Y0136641D01*
X0055764Y0135462D02*
X0061118Y0135462D01*
X0061118Y0134296D02*
X0061118Y0132934D01*
X0061212Y0132584D01*
X0061393Y0132269D01*
X0061650Y0132013D01*
X0061964Y0131831D01*
X0062315Y0131737D01*
X0066827Y0131737D01*
X0066827Y0134296D01*
X0066827Y0134296D01*
X0061118Y0134296D01*
X0061118Y0134282D02*
X0055764Y0134282D01*
X0055764Y0133103D02*
X0061118Y0133103D01*
X0061806Y0131923D02*
X0055764Y0131923D01*
X0055764Y0130743D02*
X0072417Y0130743D01*
X0072417Y0131923D02*
X0071848Y0131923D01*
X0071991Y0129564D02*
X0055764Y0129564D01*
X0055764Y0128384D02*
X0070812Y0128384D01*
X0069632Y0127204D02*
X0055764Y0127204D01*
X0055764Y0126025D02*
X0068453Y0126025D01*
X0070073Y0122486D02*
X0087417Y0122486D01*
X0087417Y0121306D02*
X0070073Y0121306D01*
X0069846Y0120127D02*
X0087417Y0120127D01*
X0087417Y0118947D02*
X0068666Y0118947D01*
X0066591Y0121797D02*
X0074091Y0129297D01*
X0074091Y0136797D01*
X0071591Y0139297D01*
X0066827Y0139297D01*
X0066827Y0136641D02*
X0066827Y0136641D01*
X0066827Y0135462D02*
X0066827Y0135462D01*
X0066827Y0134282D02*
X0066827Y0134282D01*
X0066827Y0133103D02*
X0066827Y0133103D01*
X0066827Y0131923D02*
X0066827Y0131923D01*
X0064714Y0124845D02*
X0055764Y0124845D01*
X0055764Y0123666D02*
X0063534Y0123666D01*
X0063108Y0122486D02*
X0055764Y0122486D01*
X0055764Y0121306D02*
X0063108Y0121306D01*
X0063335Y0120127D02*
X0055764Y0120127D01*
X0055764Y0118947D02*
X0064515Y0118947D01*
X0070826Y0123666D02*
X0087417Y0123666D01*
X0087417Y0124845D02*
X0072006Y0124845D01*
X0073185Y0126025D02*
X0079937Y0126025D01*
X0078757Y0127204D02*
X0074365Y0127204D01*
X0074091Y0129297D02*
X0081591Y0129297D01*
X0083889Y0131923D02*
X0087417Y0131923D01*
X0087417Y0133103D02*
X0075764Y0133103D01*
X0075764Y0134282D02*
X0087417Y0134282D01*
X0087417Y0135462D02*
X0075764Y0135462D01*
X0075764Y0136641D02*
X0087417Y0136641D01*
X0087417Y0137821D02*
X0075432Y0137821D01*
X0074253Y0139001D02*
X0087417Y0139001D01*
X0087417Y0140180D02*
X0073073Y0140180D01*
X0071806Y0141360D02*
X0087417Y0141360D01*
X0087417Y0142539D02*
X0072113Y0142539D01*
X0072240Y0143719D02*
X0087417Y0143719D01*
X0087417Y0144899D02*
X0072240Y0144899D01*
X0072088Y0146078D02*
X0087417Y0146078D01*
X0087417Y0147258D02*
X0072249Y0147258D01*
X0072535Y0148438D02*
X0087417Y0148438D01*
X0087417Y0149617D02*
X0072535Y0149617D01*
X0072499Y0150797D02*
X0087417Y0150797D01*
X0086544Y0151976D02*
X0051400Y0151976D01*
X0052580Y0153156D02*
X0085365Y0153156D01*
X0084185Y0154336D02*
X0053760Y0154336D01*
X0054939Y0155515D02*
X0083006Y0155515D01*
X0079267Y0156695D02*
X0056119Y0156695D01*
X0053746Y0159054D02*
X0007968Y0159054D01*
X0007968Y0157874D02*
X0052566Y0157874D01*
X0051386Y0156695D02*
X0007968Y0156695D01*
X0007968Y0155515D02*
X0050207Y0155515D01*
X0049027Y0154336D02*
X0007968Y0154336D01*
X0007968Y0153156D02*
X0047847Y0153156D01*
X0054925Y0160234D02*
X0007968Y0160234D01*
X0007968Y0161413D02*
X0078782Y0161413D01*
X0079962Y0162593D02*
X0007968Y0162593D01*
X0007968Y0166132D02*
X0010175Y0166132D01*
X0008995Y0167311D02*
X0007968Y0167311D01*
X0007968Y0168491D02*
X0008484Y0168491D01*
X0007996Y0169671D02*
X0007968Y0169671D01*
X0007968Y0170850D02*
X0007969Y0170850D01*
X0007968Y0172030D02*
X0007969Y0172030D01*
X0007968Y0173209D02*
X0008337Y0173209D01*
X0007968Y0174389D02*
X0008825Y0174389D01*
X0007968Y0175569D02*
X0009818Y0175569D01*
X0011297Y0176748D02*
X0007968Y0176748D01*
X0007968Y0128384D02*
X0052417Y0128384D01*
X0052417Y0127204D02*
X0007968Y0127204D01*
X0007968Y0126025D02*
X0052417Y0126025D01*
X0052417Y0124845D02*
X0048885Y0124845D01*
X0048155Y0125574D02*
X0050368Y0123361D01*
X0050368Y0122006D01*
X0046800Y0122006D01*
X0046381Y0122006D01*
X0046381Y0121587D01*
X0042813Y0121587D01*
X0042813Y0120232D01*
X0045026Y0118019D01*
X0046381Y0118019D01*
X0046381Y0121587D01*
X0046800Y0121587D01*
X0046800Y0118019D01*
X0048155Y0118019D01*
X0050368Y0120232D01*
X0050368Y0121587D01*
X0046800Y0121587D01*
X0046800Y0122006D01*
X0046800Y0125574D01*
X0048155Y0125574D01*
X0046800Y0124845D02*
X0046381Y0124845D01*
X0046381Y0125574D02*
X0045026Y0125574D01*
X0042813Y0123361D01*
X0042813Y0122006D01*
X0046381Y0122006D01*
X0046381Y0125574D01*
X0046381Y0123666D02*
X0046800Y0123666D01*
X0046800Y0122486D02*
X0046381Y0122486D01*
X0046381Y0121306D02*
X0046800Y0121306D01*
X0046800Y0120127D02*
X0046381Y0120127D01*
X0046381Y0118947D02*
X0046800Y0118947D01*
X0049084Y0118947D02*
X0052417Y0118947D01*
X0052417Y0117768D02*
X0007968Y0117768D01*
X0007968Y0118947D02*
X0044097Y0118947D01*
X0042917Y0120127D02*
X0007968Y0120127D01*
X0007968Y0121306D02*
X0042813Y0121306D01*
X0042813Y0122486D02*
X0007968Y0122486D01*
X0007968Y0123666D02*
X0043117Y0123666D01*
X0044296Y0124845D02*
X0007968Y0124845D01*
X0007968Y0116588D02*
X0052417Y0116588D01*
X0052417Y0115408D02*
X0007968Y0115408D01*
X0007968Y0114229D02*
X0052417Y0114229D01*
X0052417Y0113049D02*
X0025700Y0113049D01*
X0027291Y0111869D02*
X0052417Y0111869D01*
X0052417Y0110690D02*
X0027932Y0110690D01*
X0028743Y0109510D02*
X0051938Y0109510D01*
X0050758Y0108331D02*
X0029923Y0108331D01*
X0031102Y0107151D02*
X0049579Y0107151D01*
X0048399Y0105971D02*
X0032282Y0105971D01*
X0033264Y0104792D02*
X0047220Y0104792D01*
X0046040Y0103612D02*
X0033264Y0103612D01*
X0033264Y0102433D02*
X0044917Y0102433D01*
X0044917Y0101253D02*
X0033264Y0101253D01*
X0033264Y0100073D02*
X0044917Y0100073D01*
X0044917Y0098894D02*
X0033264Y0098894D01*
X0033264Y0097714D02*
X0044917Y0097714D01*
X0044917Y0096535D02*
X0033264Y0096535D01*
X0033264Y0095355D02*
X0044917Y0095355D01*
X0044044Y0094175D02*
X0033264Y0094175D01*
X0033264Y0092996D02*
X0043108Y0092996D01*
X0043108Y0091816D02*
X0033264Y0091816D01*
X0033264Y0090636D02*
X0043108Y0090636D01*
X0044005Y0089457D02*
X0033264Y0089457D01*
X0033264Y0088277D02*
X0047744Y0088277D01*
X0048923Y0087098D02*
X0033264Y0087098D01*
X0033264Y0085918D02*
X0050103Y0085918D01*
X0051282Y0084738D02*
X0033264Y0084738D01*
X0033264Y0083559D02*
X0052462Y0083559D01*
X0056083Y0082379D02*
X0033264Y0082379D01*
X0033264Y0081200D02*
X0057262Y0081200D01*
X0059091Y0084297D02*
X0061591Y0084297D01*
X0071591Y0074297D01*
X0074212Y0077661D02*
X0079849Y0077661D01*
X0079508Y0078840D02*
X0069413Y0078840D01*
X0068233Y0080020D02*
X0079508Y0080020D01*
X0079960Y0081200D02*
X0067054Y0081200D01*
X0065874Y0082379D02*
X0080899Y0082379D01*
X0080632Y0076481D02*
X0075392Y0076481D01*
X0075823Y0075301D02*
X0080229Y0075301D01*
X0079050Y0074122D02*
X0075823Y0074122D01*
X0075823Y0072942D02*
X0077870Y0072942D01*
X0076690Y0071763D02*
X0075043Y0071763D01*
X0076591Y0069297D02*
X0051591Y0069297D01*
X0046591Y0064297D01*
X0039091Y0064297D01*
X0031591Y0071797D01*
X0030438Y0070583D02*
X0026302Y0070583D01*
X0027608Y0069403D02*
X0031617Y0069403D01*
X0032797Y0068224D02*
X0028230Y0068224D01*
X0027190Y0074122D02*
X0029917Y0074122D01*
X0029917Y0075301D02*
X0027890Y0075301D01*
X0027663Y0078840D02*
X0029917Y0078840D01*
X0029917Y0080020D02*
X0026641Y0080020D01*
X0029917Y0081200D02*
X0007968Y0081200D01*
X0007968Y0082379D02*
X0029917Y0082379D01*
X0029917Y0083559D02*
X0007968Y0083559D01*
X0007968Y0084738D02*
X0029917Y0084738D01*
X0029917Y0085918D02*
X0007968Y0085918D01*
X0007968Y0087098D02*
X0029917Y0087098D01*
X0029917Y0088277D02*
X0007968Y0088277D01*
X0007968Y0089457D02*
X0029917Y0089457D01*
X0029917Y0090636D02*
X0007968Y0090636D01*
X0007968Y0091816D02*
X0029917Y0091816D01*
X0029917Y0092996D02*
X0007968Y0092996D01*
X0007968Y0094175D02*
X0029917Y0094175D01*
X0029917Y0095355D02*
X0025998Y0095355D01*
X0025771Y0095239D02*
X0026385Y0095552D01*
X0026943Y0095957D01*
X0027430Y0096444D01*
X0027835Y0097002D01*
X0028148Y0097616D01*
X0028361Y0098271D01*
X0028458Y0098887D01*
X0024500Y0098887D01*
X0024500Y0094929D01*
X0025116Y0095026D01*
X0025771Y0095239D01*
X0024500Y0095355D02*
X0023681Y0095355D01*
X0023681Y0094929D02*
X0023681Y0098887D01*
X0019723Y0098887D01*
X0019820Y0098271D01*
X0020033Y0097616D01*
X0020346Y0097002D01*
X0020751Y0096444D01*
X0021238Y0095957D01*
X0021796Y0095552D01*
X0022410Y0095239D01*
X0023065Y0095026D01*
X0023681Y0094929D01*
X0022183Y0095355D02*
X0007968Y0095355D01*
X0007968Y0096535D02*
X0020686Y0096535D01*
X0020001Y0097714D02*
X0007968Y0097714D01*
X0007968Y0098894D02*
X0023681Y0098894D01*
X0023681Y0098887D02*
X0023681Y0099706D01*
X0019723Y0099706D01*
X0019820Y0100322D01*
X0020033Y0100977D01*
X0020346Y0101591D01*
X0020751Y0102149D01*
X0021238Y0102636D01*
X0021796Y0103041D01*
X0022410Y0103354D01*
X0023065Y0103567D01*
X0023681Y0103664D01*
X0023681Y0099706D01*
X0024500Y0099706D01*
X0024500Y0103664D01*
X0025116Y0103567D01*
X0025771Y0103354D01*
X0026385Y0103041D01*
X0026943Y0102636D01*
X0027430Y0102149D01*
X0027835Y0101591D01*
X0028148Y0100977D01*
X0028361Y0100322D01*
X0028458Y0099706D01*
X0024500Y0099706D01*
X0024500Y0098887D01*
X0023681Y0098887D01*
X0024500Y0098894D02*
X0029917Y0098894D01*
X0029917Y0100073D02*
X0028400Y0100073D01*
X0028007Y0101253D02*
X0029917Y0101253D01*
X0029917Y0102433D02*
X0027146Y0102433D01*
X0028729Y0104792D02*
X0007968Y0104792D01*
X0007968Y0105971D02*
X0021642Y0105971D01*
X0020560Y0107151D02*
X0007968Y0107151D01*
X0007968Y0108331D02*
X0020072Y0108331D01*
X0020008Y0109510D02*
X0007968Y0109510D01*
X0007968Y0110690D02*
X0020249Y0110690D01*
X0020890Y0111869D02*
X0007968Y0111869D01*
X0007968Y0113049D02*
X0022482Y0113049D01*
X0024091Y0109297D02*
X0026591Y0109297D01*
X0031591Y0104297D01*
X0031591Y0077027D01*
X0033264Y0078840D02*
X0064680Y0078840D01*
X0063501Y0080020D02*
X0033264Y0080020D01*
X0036350Y0069403D02*
X0049331Y0069403D01*
X0049281Y0070583D02*
X0050511Y0070583D01*
X0051118Y0075301D02*
X0067358Y0075301D01*
X0067040Y0076481D02*
X0050809Y0076481D01*
X0049630Y0077661D02*
X0065860Y0077661D01*
X0062321Y0081200D02*
X0060919Y0081200D01*
X0063515Y0084738D02*
X0094917Y0084738D01*
X0094917Y0083559D02*
X0064695Y0083559D01*
X0062394Y0085918D02*
X0094917Y0085918D01*
X0094917Y0087098D02*
X0061215Y0087098D01*
X0063587Y0089457D02*
X0051297Y0089457D01*
X0050117Y0090636D02*
X0062813Y0090636D01*
X0054311Y0107151D02*
X0078459Y0107151D01*
X0077358Y0105971D02*
X0053132Y0105971D01*
X0051952Y0104792D02*
X0077358Y0104792D01*
X0077358Y0103612D02*
X0050773Y0103612D01*
X0049593Y0102433D02*
X0077469Y0102433D01*
X0078648Y0101253D02*
X0048413Y0101253D01*
X0048264Y0100073D02*
X0079828Y0100073D01*
X0083353Y0100073D02*
X0083447Y0100073D01*
X0084627Y0098894D02*
X0048264Y0098894D01*
X0048264Y0097714D02*
X0085807Y0097714D01*
X0086986Y0096535D02*
X0048264Y0096535D01*
X0055491Y0108331D02*
X0079639Y0108331D01*
X0079715Y0109769D02*
X0077063Y0112421D01*
X0077063Y0114087D01*
X0081381Y0114087D01*
X0081381Y0114506D01*
X0077063Y0114506D01*
X0077063Y0116172D01*
X0079715Y0118824D01*
X0081381Y0118824D01*
X0081381Y0114506D01*
X0081800Y0114506D01*
X0081800Y0118824D01*
X0083466Y0118824D01*
X0086118Y0116172D01*
X0086118Y0114506D01*
X0081800Y0114506D01*
X0081800Y0114087D01*
X0081800Y0109769D01*
X0083466Y0109769D01*
X0086118Y0112421D01*
X0086118Y0114087D01*
X0081800Y0114087D01*
X0081381Y0114087D01*
X0081381Y0109769D01*
X0079715Y0109769D01*
X0078794Y0110690D02*
X0055764Y0110690D01*
X0055764Y0111869D02*
X0077614Y0111869D01*
X0077063Y0113049D02*
X0055764Y0113049D01*
X0055764Y0114229D02*
X0081381Y0114229D01*
X0081800Y0114229D02*
X0087417Y0114229D01*
X0087417Y0115408D02*
X0086118Y0115408D01*
X0085703Y0116588D02*
X0087417Y0116588D01*
X0087417Y0117768D02*
X0084523Y0117768D01*
X0086118Y0113049D02*
X0087417Y0113049D01*
X0086797Y0111869D02*
X0085567Y0111869D01*
X0085618Y0110690D02*
X0084387Y0110690D01*
X0084438Y0109510D02*
X0055764Y0109510D01*
X0055764Y0115408D02*
X0077063Y0115408D01*
X0077478Y0116588D02*
X0055764Y0116588D01*
X0055764Y0117768D02*
X0078658Y0117768D01*
X0081381Y0117768D02*
X0081800Y0117768D01*
X0081800Y0116588D02*
X0081381Y0116588D01*
X0081381Y0115408D02*
X0081800Y0115408D01*
X0081800Y0113049D02*
X0081381Y0113049D01*
X0081381Y0111869D02*
X0081800Y0111869D01*
X0081800Y0110690D02*
X0081381Y0110690D01*
X0083244Y0126025D02*
X0087417Y0126025D01*
X0087417Y0127204D02*
X0084424Y0127204D01*
X0085073Y0128384D02*
X0087417Y0128384D01*
X0087417Y0129564D02*
X0085073Y0129564D01*
X0085069Y0130743D02*
X0087417Y0130743D01*
X0079292Y0131923D02*
X0075764Y0131923D01*
X0061847Y0141360D02*
X0056020Y0141360D01*
X0055764Y0140180D02*
X0061413Y0140180D01*
X0061413Y0139001D02*
X0055764Y0139001D01*
X0057200Y0142539D02*
X0061541Y0142539D01*
X0052417Y0123666D02*
X0050064Y0123666D01*
X0050368Y0122486D02*
X0052417Y0122486D01*
X0052417Y0121306D02*
X0050368Y0121306D01*
X0050264Y0120127D02*
X0052417Y0120127D01*
X0029909Y0103612D02*
X0024828Y0103612D01*
X0024500Y0103612D02*
X0023681Y0103612D01*
X0023353Y0103612D02*
X0007968Y0103612D01*
X0007968Y0102433D02*
X0021035Y0102433D01*
X0020174Y0101253D02*
X0007968Y0101253D01*
X0007968Y0100073D02*
X0019781Y0100073D01*
X0023681Y0100073D02*
X0024500Y0100073D01*
X0024500Y0101253D02*
X0023681Y0101253D01*
X0023681Y0102433D02*
X0024500Y0102433D01*
X0026539Y0105971D02*
X0027549Y0105971D01*
X0028180Y0097714D02*
X0029917Y0097714D01*
X0029917Y0096535D02*
X0027495Y0096535D01*
X0024500Y0096535D02*
X0023681Y0096535D01*
X0023681Y0097714D02*
X0024500Y0097714D01*
X0021540Y0080020D02*
X0007968Y0080020D01*
X0007968Y0078840D02*
X0020518Y0078840D01*
X0020029Y0077661D02*
X0007968Y0077661D01*
X0007968Y0076481D02*
X0020008Y0076481D01*
X0020291Y0075301D02*
X0007968Y0075301D01*
X0007968Y0074122D02*
X0020991Y0074122D01*
X0021879Y0070583D02*
X0007968Y0070583D01*
X0007968Y0069403D02*
X0020573Y0069403D01*
X0019951Y0068224D02*
X0007968Y0068224D01*
X0007968Y0062326D02*
X0042575Y0062326D01*
X0043755Y0061146D02*
X0007968Y0061146D01*
X0024091Y0056797D02*
X0026591Y0054297D01*
X0073664Y0059966D02*
X0079508Y0059966D01*
X0079938Y0061146D02*
X0074844Y0061146D01*
X0076023Y0062326D02*
X0080846Y0062326D01*
X0080866Y0065865D02*
X0076118Y0065865D01*
X0076118Y0064685D02*
X0094917Y0064685D01*
X0094917Y0065865D02*
X0092315Y0065865D01*
X0093356Y0067044D02*
X0094917Y0067044D01*
X0094917Y0068224D02*
X0093845Y0068224D01*
X0093958Y0069706D02*
X0093861Y0070322D01*
X0093648Y0070977D01*
X0093335Y0071591D01*
X0092930Y0072149D01*
X0092443Y0072636D01*
X0091885Y0073041D01*
X0091271Y0073354D01*
X0090616Y0073567D01*
X0089935Y0073674D01*
X0087000Y0073674D01*
X0087000Y0069706D01*
X0093958Y0069706D01*
X0093776Y0070583D02*
X0094917Y0070583D01*
X0094917Y0069403D02*
X0087000Y0069403D01*
X0086181Y0069403D02*
X0079064Y0069403D01*
X0079336Y0068224D02*
X0077884Y0068224D01*
X0076591Y0069297D02*
X0086591Y0079297D01*
X0090614Y0075301D02*
X0094917Y0075301D01*
X0094917Y0074122D02*
X0083782Y0074122D01*
X0086181Y0072942D02*
X0087000Y0072942D01*
X0087000Y0071763D02*
X0086181Y0071763D01*
X0086181Y0070583D02*
X0087000Y0070583D01*
X0087000Y0068224D02*
X0086181Y0068224D01*
X0086181Y0067044D02*
X0087000Y0067044D01*
X0087000Y0065865D02*
X0086181Y0065865D01*
X0086591Y0059297D02*
X0094091Y0059297D01*
X0093574Y0061146D02*
X0093243Y0061146D01*
X0092335Y0062326D02*
X0094753Y0062326D01*
X0094917Y0063505D02*
X0076118Y0063505D01*
X0075246Y0067044D02*
X0079825Y0067044D01*
X0086591Y0059297D02*
X0091591Y0059297D01*
X0095947Y0058787D02*
X0099701Y0058787D01*
X0099701Y0059966D02*
X0097127Y0059966D01*
X0098264Y0061146D02*
X0099701Y0061146D01*
X0099701Y0062326D02*
X0098264Y0062326D01*
X0098264Y0063505D02*
X0099701Y0063505D01*
X0099701Y0064685D02*
X0098264Y0064685D01*
X0098264Y0065865D02*
X0099701Y0065865D01*
X0099701Y0067044D02*
X0098264Y0067044D01*
X0098264Y0068224D02*
X0099701Y0068224D01*
X0099701Y0069403D02*
X0098264Y0069403D01*
X0098264Y0070583D02*
X0099701Y0070583D01*
X0099701Y0071763D02*
X0098264Y0071763D01*
X0098264Y0072942D02*
X0099701Y0072942D01*
X0099701Y0074122D02*
X0098264Y0074122D01*
X0098264Y0075301D02*
X0099701Y0075301D01*
X0099701Y0076481D02*
X0098264Y0076481D01*
X0098264Y0077661D02*
X0099701Y0077661D01*
X0099701Y0078840D02*
X0098264Y0078840D01*
X0098264Y0080020D02*
X0099701Y0080020D01*
X0099701Y0081200D02*
X0098264Y0081200D01*
X0098264Y0082379D02*
X0099701Y0082379D01*
X0099701Y0083559D02*
X0098264Y0083559D01*
X0098264Y0084738D02*
X0099701Y0084738D01*
X0099701Y0085918D02*
X0098264Y0085918D01*
X0098264Y0087098D02*
X0099701Y0087098D01*
X0099701Y0088277D02*
X0098264Y0088277D01*
X0098264Y0089457D02*
X0099701Y0089457D01*
X0099701Y0090636D02*
X0097617Y0090636D01*
X0096437Y0091816D02*
X0099701Y0091816D01*
X0099701Y0092996D02*
X0095258Y0092996D01*
X0094917Y0082379D02*
X0092282Y0082379D01*
X0093221Y0081200D02*
X0094917Y0081200D01*
X0094917Y0080020D02*
X0093673Y0080020D01*
X0093673Y0078840D02*
X0094917Y0078840D01*
X0094917Y0077661D02*
X0093332Y0077661D01*
X0092549Y0076481D02*
X0094917Y0076481D01*
X0094917Y0072942D02*
X0092021Y0072942D01*
X0093210Y0071763D02*
X0094917Y0071763D01*
X0095509Y0164952D02*
X0099701Y0164952D01*
X0099701Y0166132D02*
X0097494Y0166132D01*
X0098674Y0167311D02*
X0099701Y0167311D01*
X0099701Y0168491D02*
X0099185Y0168491D01*
X0099673Y0169671D02*
X0099701Y0169671D01*
X0099701Y0170850D02*
X0099701Y0170850D01*
X0099701Y0172030D02*
X0099701Y0172030D01*
X0099701Y0173209D02*
X0099333Y0173209D01*
X0099701Y0174389D02*
X0098844Y0174389D01*
X0099701Y0175569D02*
X0097852Y0175569D01*
X0096372Y0176748D02*
X0099701Y0176748D01*
D16*
X0084091Y0174297D03*
X0079091Y0174297D03*
X0074091Y0174297D03*
X0069091Y0174297D03*
X0064091Y0174297D03*
X0059091Y0174297D03*
X0054091Y0174297D03*
X0049091Y0174297D03*
X0044091Y0174297D03*
X0039091Y0174297D03*
X0034091Y0174297D03*
X0029091Y0174297D03*
X0024091Y0174297D03*
X0026591Y0034297D03*
X0031591Y0034297D03*
X0036591Y0034297D03*
X0041591Y0034297D03*
X0046591Y0034297D03*
X0051591Y0034297D03*
X0056591Y0034297D03*
X0061591Y0034297D03*
X0066591Y0034297D03*
X0071591Y0034297D03*
X0076591Y0034297D03*
X0081591Y0034297D03*
M02*
